<mxfile host="Electron" agent="Mozilla/5.0 (Windows NT 10.0; Win64; x64) AppleWebKit/537.36 (KHTML, like Gecko) draw.io/24.7.17 Chrome/128.0.6613.36 Electron/32.0.1 Safari/537.36" version="24.7.17">
  <diagram name="第 1 页" id="tIPviLYLJOJyH3t0BMkT">
    <mxGraphModel dx="1050" dy="629" grid="0" gridSize="10" guides="1" tooltips="1" connect="1" arrows="1" fold="1" page="0" pageScale="1" pageWidth="1169" pageHeight="827" math="0" shadow="0">
      <root>
        <mxCell id="0" />
        <mxCell id="1" parent="0" />
        <mxCell id="TXK5YK1UMYOfHFgav4WL-1" value="" style="shape=image;verticalLabelPosition=bottom;labelBackgroundColor=default;verticalAlign=top;aspect=fixed;imageAspect=0;image=data:image/png,iVBORw0KGgoAAAANSUhEUgAABIYAAAFOCAIAAAB8DoEpAAAgAElEQVR4AeydiV9UV7bv359GXjrdne7bnb65N/f269uDgEwiMgmiGGdjbmdQMQ6tERWHaCA4RI1JJE7BAWfUOIMxcQqKwZQlWMN+Hla5atU++wxVVEEBPz75xF3n7LPX2t+1p3X2cP5POByODP5FB/8U/kAABEAABEAABEAABEAABEAABIaLwP+BSzZcqCEHBEAABEAABEAABEAABEAABHQCI+OS0Ywc/g8CIAACIAACIAACIAACIAACGSKguz7Z+ns4XLIMIUayIAACIAACIAACIAACIAACIOCfQHY6ZZlyyXxyoW1s+D8IgAAIgAAIgAAIgAAIgAAIpIWAT08ke9yz9LtkTgjSwheJgAAIgAAIgAAIgAAIgAAIgECyBJyclGxwzNLpktnzaSQVxh8IgAAIgAAIgAAIgAAIgAAIZJ6A0R+xuy0j65ilxyXTcqXl3Al1CH8gAAIgAAIgAAIgAAIgAAIgkG4CTg6I5qdoXsxIOWZpcMlkTmQmNRB2zs/xBwIgAAIgAAIgAAIgAAIgAALpJmB3PTTfRLot0p0ZEa9sSC6Z1F7mijMsWWicB/AHAiAAAiAAAiAAAiAAAiAAApkhoHkf0jFhb0W6MNK1GWbHLHWXTCrNmeHscZ6JheTcjz8QAAEQAAEQAAEQAAEQAAEQyDwB6YaQY8J+Cnsu7MtIB2c4vbIUXTKpLuWBs0SZ1Dwxpv3M9hfEHwiAAAiAAAiAAAiAAAiAAAikg4DN23jGngi7Z9I3Yy+GnBrp5gybV5aKSyYVlf6Y3Rnj/BMaCfkp/kAABEAABEAABEAABEAABEAgMwSk60HOCPsm5JvZHbOR8sqSdsl8+mOUYemJMeqA7e8X/IEACIAACIAACIAACIAACIDA0AjY/IwA+yDkoUnfbGBgIEu8stRdMuP8GHmc/f397IwRBabDkJ/gDwRAAARAAARAAARAAARAAAQyQ4D9DvZEyDEJBoPsmPF0GS33o0WM2lzZMCxfTM4l4ykyJ3+MJ8eCwaDmjFHmeboQARAAARAAARAAARAAARAAARDINIFnz54Fg0GjY0aiabpsBL2yJFwyP/6YnByjbD9//jwSiQyDcwkRIAACIAACIAACIAACIAACIOBEIBKJPH/+nJyUp0+fatNlz58/HymvbEguGZ/nMTAwQIsV5eTYwMBANBp1IoLrIAACIAACIAACIAACIAACIDDMBKLR6MDAQCBgbTPjDWb9/f3aXNlwLl/065I5TZE9f/5c88coe5gZG+ayBXEgAAIgAAIgAAIgAAIgAAI+CUQikadPn7Jj9uyZdVY+e2XDvKksFZeMVAyFQuyP0RQZ5wr+mM+igGggAAIgAAIgAAIgAAIgAAIjQkB6ZeSSGb0ynprKnJLJuWR8qodxySKty8RixcxZCymDAAiAAAiAAAiAAAiAAAiki0A0GiUXhk8idJkoS5dQezq+XDJ2DSORiH2KjM4wofMVMT9mR4wrIAACIAACIAACIAACIAAC2UkgEol4Ll9kbyhDWUjCJeMpsnA4LFct0pEegUDg+fPnGdISyYIACIAACIAACIAACIAACIBAJgjQMYx02odx7WIkEiGvLBPSlVKpuGTSH+Nj/p8+fZohFZEsCIAACIAACIAACIAACIAACGSOAB2KYVy+KI9ezJAC3i4Zz9MZVy3yFFk4HM6QikgWBEAABEAABEAABEAABEAABDJHIBwO8/JF40QZ+0SZ0MGvS8arFulgD3nwPWmfCeWQJgiAAAiAAAiAAAiAAAiAAAgMAwH7RBl/OTrTE2WpuGR89v2zZ89I9f7+/mHABBEgAAIgAAIgAAIgAAIgAAIgkAkC/f39NNVk/0ZZFrlk9rMWsWoxE6UBaYIACIAACIAACIAACIAACAwzgVAo5LR2cYRdMl40qW0ko29DB4PBQCDwyy+/4Oz7YS4xEAcCIAACIAACIAACIAACIJBGApFI5JdffgkEAnzIx/Pnz0OhEM1LZfTQRY+Fi0aXTNtI9ssvv6SRBZICARAAARAAARAAARAAARAAgWEmEI1GNZdsYGDA7pJFo9G0K+bLJZNne9g3ksElS7tVkCAIgAAIgAAIgAAIgAAIgMAwE3jy5MmIbCdL3SXjjWRPnjwZZlgQBwIgAAIgAAIgAAIgAAIgAALpJcAuWTAY1I7Cz+h2sqG6ZL/88gtcsvQWBaQGAiAAAiAAAiAAAiAAAiAw/ASePHnyyy+/PH36dPS5ZH19fcPPCxJBAARAAARAAARAAARAAARAII0E+vr6RpNL9uzZMz5uES5ZGssBkgIBEAABEAABEAABEAABEBgRAuSS8aGLAwMDfOhiVixclB8l007Ah0s2IiUGQkEABEAABEAABEAABEAABNJIQHPJ+vv72SULh8OZOwff714yuGRpNDaSAgEQAAEQAAEQAAEQAAEQyDYCcMmyzSLQBwRAAARAAARAAARAAARAYBwRGK0u2ZMnT7BwcRyVU2QVBEAABEAABEAABEAABMYogb6+PjoHPxgMPnv2bNQsXIRLNkYLJLIFAiAAAiAAAiAAAiAAAuOLwKhxyQYGBuh4j6dPnwYCAbhk46ucIrcgAAIgAAIgAAIgAAIgMEYJ2F2ygYGBUChEx2pk0fEecMnGaAlEtkAABEAABEAABEAABEBgXBNgl+zp06e0cBEu2bguEMg8CIAACIAACIAACIAACIDAcBKASzactCELBEAABEAABEAABEAABEAABBIIwCVLwIEfIAACIAACIAACIAACIAACIDCcBOCSDSdtyAIBEAABEAABEAABEAABEACBBAJwyRJw4AcIgAAIgAAIgAAIgAAIgAAIDCcBuGTDSRuyQAAEQAAEQAAEQAAEQAAEQCCBAFyyBBz4AQIgAAIgAAIgAAIgAAIgAALDSQAu2XDShiwQAAEQAAEQAAEQAAEQAAEQSCAAlywBB36AAAiAAAiAAAiAAAiAAAiAwHASgEs2nLQhCwRAAARAAARAAARAAARAAAQSCMAlS8CBHyAAAiAAAiAAAiAAAiAAAiAwnATgkg0nbcgCARAAARAAARAAARAAARAAgQQCcMkScOAHCIAACIAACIAACIAACIAACAwnAbhkw0kbskAABEAABEAABEAABEAABEAggQBcsgQc+DFEAgNh9UG7em29enWdWnBQDYSHmN6oebzzvvrzpyqnUb21VXX8mBG1h0FERvRGoiDgSqDqC6vi5DSq32xQx39wjYqbIJB9BPr6Ve2XVpf36w1q9UkVTZOGqBcpgMyQLVLQBI9oBLg8v7FF3e7TbuJnjABcMhSFdBLYd93qmWiAldOotl9OZ+JZm1YwpIp2xnOd26r6+tOs7DCISLPGSA4E/BHgrhoumT9giJVdBNacijf+nmU4HFVXH6qG4+ovzdb/Xf5QL1zgON1KyhZOieB6JghweYZL5oIXLpkjnOM/WG9t2bswBjIx+HZUaDTcGKUu2eNn6u+fxW0tPcn7v6i3tsVvtVwymGEY/KUMibjdp97YEs8dF/LfbVQTd6gdl8fRPKfBriN3aeGhBKNM3q2ej90JZ+6qPYezI2eQcSf56kP1h03xQvir9epAtwGCUy/5b5vUlD3qULcK2+aMdlyOJ8sNjhao+sIgK2svJeUGyOwvPuqWp2GoFyxC8n9tvbXio+G4ehBwUy877yVli+zJQl+/ym0114s/blZ1X6nz99M2+zpSuebCBpfMxQRwyRzhOHU2svGCS6bhG6ULFzXPpH5/vPk70K1+tT7eVjp1osOwqjATIrSMy7JN4Tc/UUdva0bGz8wS6HlqvUGXtvjDJuvN+lj9464aLln2mHjT+YQSmNOoFh4yaOfZS/6tRV1/lPCg9ElkIZfh0eWSJbVYTmbfqTchXsNQL1iEhM/h19arFR0GpzrBnFn2IylbZI/uLi4Zm2PON6P7DSkXNrhkLgUPLpkjHM/OJqfRerGR9iVqjgrhRsYIaJ7JW9vU/V9iwt49nDA0ce9EM6ZgphLWMs6tvwy83qTa4ZVlygKGdLnl+b/jYw0wd9VwyQylYSQuRZWq3hdr93ghurGz47IqWwwt/B+fqBu98WxIn0SLyT9Hl0sWz5uPkMy+e28yDPWCRTB5e2DJ0fgLSh/5Q5RUCPhxyXIa1ZbOVBLPkme4sMElc7EIXDIXOPFbcuQ6hnuLeIbHWUjaN6fRmhajVTr2htK9Ex112GTGecg1EFYHu2OnlVAPXb53LC+cyzarLT4aGw3nblf/0xILy5nbbFN4iPpwVw2XbIgk0/X49z+rPw2uZ/7VelW/P1YCX29SZ+/pEqRLxj1jMKRaLiWsiH73sP4g/ZaPj7Gm1ZxhZa0GZ7fHPcvDUC/sIqLKmtWs/TKu5Bub1bWxO0XvZKZhvi5HGuyxRJW63KOKd8VtMapXsHNh4wwOM+RRIQ4umS8zyZErdzzySe5a3m9Xl35SfxscSNH5S+Go2nlZ/dvguvy3tqq2m/Hn4mOvwdm2Cw+sd5OvDS6Te2291Sx2P45HphA36FSso0p9dUP91+Bmp1fXWYdMnL+vP6KUtfbgULcq2qV+2xSr3r/baK31//b7hBdgKzvild/YWwSeW1uMqEfhllq2JtzZuJyfJmHuuKwCz1XTOSsLrwyeuvbHzdarIPsOBKWsmJvPW4NUfnErxblINBBJvMTme2ub+v1GK4OU/c77sZ+TPo/lWlqfbaGpIeNIOUZzk0VeXafK9riZ26cIKc5PWNqCXTJ68Poj9eYnsVzLhXPS3ESp95l6uy1Wbv+4Wa3ssCxl/3sQUEuOWmmSoV9dp/57m7VjofeZPa51JSlzsy3814veoNp2QU3eHaubRJg20X11I6EEcvFIqnabc+V1VW4aXHNKzWyLmUDO3GppDIStcd7EHfHa/dp69dcW1XgmvhskquJja6dzd+48sc4LJQ5/bVG9QUsO96NVX1htxbffW80It1FvtzmaTylLesNxy8pcYf+4Wc3+RnWJORMpgorZ+fveIrSqFI5ajcYfN1vKO7WcSlnLfnZctnaNkv45jdYjdV+pCw80otbBj7SRmLzE3mdW0SUvJafRaqy+upHQcvLzKYjIabQgyz8uzDmNlsLanx9za48k+5O3BL+1TX3TFWsDcxrVmlN6SgzKnotvv49vxv5Ls+p5qj+rVJwzN7mGSC8vdfVaiye5AWHzfft9Qm19Gd3Xv7IBtKPmJE7dUa8Pdp2/36g6B3tY+aBsnI3DTWlQGVkLa68kuOr5rxessM8Ai9BED4Tj06Q5jWrT+Xh6Ga16DKrlkjVSoubo3zapz69YJl7ZYZ1pmdNoja8u/RRXKSlbxB9TVkOUbImiQRqPo6hBG/r5gbJX1YqQ3NWp9dEDYatBntlmVQpuY2kr4MoOxwVcKTQg2iDttfVWK7pr0CiSJ4dpwDllj/rd4Ggqp9Hqm7jV1TLITyGglIJL5qsYyDqvdZ/0PPdMf/8sPqzJabTa8aXH4rUlp1GxJ6OUNe6nRvkfrWrdmXiR5Zb69xvVscRTobnNemOL+v5na8RDA1x+xL7MrOepKt0dE8TROFC9L151rz201KNbWuWnbJ69F+uZchqtER7t3JatCSfr4iBJmOvPxn08+Wz9fn1a5tZjfYONjE9hrV/xZdrBSGy+ybtjZycW7VTBkDUEIZN9dDyGRVqfbaFpIuNIHfyY+9Qd+UTCK1UpxUlEwsM+fkhb2C3Oh0xIsNLci49aS5LojYBUr/bLhFXvUWWdvel0WM7vN1oDXO0vWXOzLfzXCx6OSM05LLPAxSOp2q3lyOdP7oCJ+faX79R55lZL53KPgT/nQpaTI7diA5qcRmu8ZTt2wbIRP7iyIyaHKVXstdwSrbXJabRmU2/Z3hxFlfWehftgTpYCWkljEW9ssUZd9qfsIrgq5bZajt/0r+OakwhtsZwafPev7dBjrV5pVO99m1Bi2eK/2aA+6TQQfqVRfXRCM4U1vZCCCLszw4XZ7pL5N7euXDK/ueJX77Ncbj54wP6SnkHZc/E8bL3vIMhOgzD5uPElIGkdjprLHiUuW6dkcmnFlQc7uSjAer75ibrzxHpQtpxckKzOwnTAtzSojKyFtYykUC+SzT6L0EQrZa0T4U3UkkxGqx6DmvR5fKRBn5Z5J/HEI35nlKwtCFEKJWogbLUS9gaQXgMZz/3ybw7Zq2pFSJY0GpZwsoxLK0j0094GqsFpN3t/zY/L/oKldN5PGNNy5JxGVbAz9uaOIyulfuxTedv1Blk+pWVQPoswXDJfZUDWCmOp5SZbljynML9r5NbNKWZOo/qf5virbiWWPbyxxRqvG4e5E3fEpyl6gx7VI6fRmo6jD4g9D6vyvbG6ZG+jlbIGTKSqHCDK1kRmxJiCSwMqn/31BnXkVtw0gecJ0/cypgw7SYwn5BBi81V9EXPD/rDJeg9HQ4r6/dYLIRIkre/UIMo4UqAfc2tLBJMVIcX5CcuCrQ2U5SsDCVaa+71vE5a4sC1eXaf2XIvLb7mU8FaCo3FAe4+QgrkZlM96ISdnWA0tsPrlnAAXDy2C8SfX7nj+kwnxsQo0scAeWk6jsq/+krYwKiOLYm/QmjqjaPLFEGkn6768y4M2Y/p0UVMsqqwBtEt8raRJEXL7nExBE8FVKbdVbThrLl38zkgp68XBf7yc8pXJyrDcM+PH4pLSEEVIM8lGXnPJkjJ3MoUuIa48XYamR9hD07KsTXNpuZBVzGkQJjnLcX+CQspaBsmTANJkFJatk/ag50/pNxrPL6EUuHnhoitbTqmSMaf8uIxpD2sZSaFeeOZXi8AiNNGaZaVpMlr1fILKabTKw77rsdwkZQt6JtkS5dmm/WaDNWGV8p+s2loRku/BtWbQE1fxrvhQ0JqBcT7XkUqjvQp7tpzV+xJeZt16nLDlwV7InV5bpIxujD0Il8yXQWWdt5darf2i8eX6s/FByd8/U/cD8YVDM9tiQrl1o4L7elNsgv7aQ/UPcSKqPJOdK+EfNsWWR9Z+adW0yz3xMcfrTYonW6SIP3+qTt+13o4PhNXGc3F37tcbrNUp9LfnWrzz0+q/XLUo31FpBF1aeYopYVLGS3dbrx4DzxPG9++3xxOWL/gr9sbeU/YG1btHYm+tXm8a0geaeaHO++2xtTSvrrOWQtHx99svxxfYaK+pWEU5tjCWEOnhUK5/s0F9dslaj3H4VvyN4BubDXMOJMWPCNbHZ0Dagkcb9Kzc4i9LlGzWJ+6wJl5eLPU82K2eR9SH7fEyX/tlTIWu3vgCyFfXWXHoRJxrDxPc7LLd8ZY9BXMnWy+UUrParEVr+65bdZOmjHqDlno8+GNbS/L+a7dPE8hokjm1EnIdo2YgpSzlWVuuF9T1tt9W8w6quQdk8vFXKvad4nKGXDozXJ2p0L6xxRp5hKNq64W46L9/Zs028J/E9Uqjmrlf3f7ZIhyOWktz15yyqrk8FSkFEdysvbVN/edWqxH48KhVfmRV4gmN5+GEhqV4V2xvTF9/grn/sMlqRelPZoEy/nabpXPPU5UrXgDzq/EhitBaDC7MmkuWrLnZIkkFOO+8SE/KlZ2R1vFpuZANBdtC04RluSxclFXg9Sbr7Ri9QKTitPGc9eKM+zstfT8/eW2wpr98ll+UGOPInGrjaZkIhaVxpatjj5lCvbAn4n6FRdhdMjlnvkx8Py2jVU/C+Y9PrGnneQfjfUr1PqsC8tYJ48svP7ZIoUTJgvrnT63BRjhqNQgrOuLNoHwV7o7dfteodjhqCfrzpzECsoGiFPZes2hsPKdu9sYqxUBY7b0W38bJVZjiy4rsp7+QzRr13b1BqyU/fz82+CTfmF+/RpW1hYEazJxGq9/fd90CpZTVyfKmOM86Yuczfq7AJfNlazlyNTbKssZSO8uNC88YcFvGKfAVWuIoz7X7+kZ82QCPbrUXqDmNVinnfTsyNVoWL7+p9eZgAydzu/FcvPKwlyhfpWt+l8wjr2uSCVLYpZWnCBJmTqOq2Bsfn0kRTEkpay071fO3tsb8MUrK57ITu5LaFTbW4qNWo0+rj/5fs2UCejHMitmHxZQUR7Av4GFZ0kCvN8Vf8snXyfaukR/3I4Ij+wxIW2hZu9wT/zCRLAmy89DeVvKpAPIwUvmhmA/bY84PqfcgYE0Ck2Vl55GCudmClJp7vXCBI9+a8/YtSd5/7XaR4nRLAuSxL89RSESUgsz1wkMJbI0ipN+lzceymbQJaq7O1MXSRhrthavsYqVXmdNoTZfZV0hquiUrwv524+22mBQpnasS7wjNabReddEeOdIhqqzNJDyG4EGetDjNT5IboLXAPKQeogjZ1mki5AanZM2tcfb5k5spbhDkVC33FJSaBKXl4puu+EJZrbCxJvJxhsl3KSAbHPuoVIucws9lLxelc365/eH1vcxEvihkWVJDWRc4ggxIIzplmeKnUC+kID9hFsGVhZ4aCKuyl4tOtQaBUVCtSW/VYzivrrOmRmVN59NlWGcjPT+2kHH8lCi5Eff3G9U5cciNvKUx9MOf40iVuDmSgaS+RsMFWM4lag2Ln/5CTtCxoUlneYuriexf7GDZcJ51hLGMwwBcMl9GlyNXreOh57lr4YMQuHHhnc3clnEKfCWnUa0/m6DJnSfxuQXuKrRKpTUBLJHfrcrl4PZVGXL8J0Xw6kSntpjzmKDxyx9c8TT1Xt5PWIWvOYpOnHm8yKNkSi0TLtmL01D4vWlOo/UK9nk4PksmQXGO3N8WczRpbs054VtO0HyKYFk+AxI4Z01705bTqHgJnzYWp1Wv/BVj2a9QatLDMRYbzjgXWqVia0etLQTiawTuGz9k4dcYyltygOuEiAsw9xyp1W6n9F2u81tMyYov2s9XkNOJOY3WG9MvrsUnG+2C5ABCLkKTE+BcDOhxpvHqOmtmTP7xLQallPXGhE+FkZ68fFALczo+RciBGjmK8rwQLlFcDHiAoh1UQGqwceXLFHlR8+LkLR4UDlEE9wikklOJTdbcGmc/P+UEAncZ8qJWJSUNzkUwZO0k5EX12rhQqiEfZ5gyglJW88vL6end5Qft+gkx2iNJ/fz85aJ06qmlOH4DyCcQyoMuWIps92Rd4AgyII3rlGWKn0K9kIL8hFkEVxb7KX/y9Vamqx7DsY+aeB8j62yk58cW0sR+SpR8tc1qMF7WWXZhfNdnQKotPTEKvzJ4pNC2C7EZJ880nVRKtgHhcZfcqELSpcLcZXBVMn7GkA3nWUc8MziGI8Al82VcOXLljkc+yV0LlzauFVxeeazAKfAVe2WWJV72gpysPGBDaiLDLZfiL4B5jQ1HkCJYbaWsk47pdCm5fUVGdnrlSSlzxeNWniVSQMJkOPZbTElboDX969jmut5gwhvuoXyyg0dU1MrLNRvUB7N9uavQMsUR5MBOi+Nibr7lBG0YXDJ7T0BX8rYnTCzIksBvLrWc8k/pM2vL2yiOLM/cxUonxKe5ZTpy3R1rYgz09VurPv7aEj8YSkLgSsHG5SssjgswW1CWW6NQl4v8LoDXTCplneLDZ/1pA4KBxCV53H//pdnKl1wcyELlymQeX8oqr02Au1RnvsVYtFKqzaiwDlqA07EXfr4lRWjjQk1hLXGl1Psv19P+eoPhu+fG5ogtbq/O8haX2PSK4NKl9QspmNtOw/0KT/dpfhQXb21wJmnIuiPDvFfZLlo+zjDt0dpvx7skTvn1Jmvh8fn73tOw9gTlFdaBypisbgyByiH/lI9rb6m0gqrF1F6qumTZfemEU72wi3O/wukwVS2g7fLNdNXjku/SrrLORnqye3KxRVIliiuFBsf+U1OJa409ptZNSLXtkfnKvIP6sWd8tuEfNpmPHpFvIZNtQLg/YgWMAeYs8/v5Fb3oseE4vh4Dv3Hios8yILttrS5RClqzLltel8ZFlmBZc1xaeW6ztN7amBGX9F1EyHdI/J6bM8jrMI0S3TsSekTCZDj2W5Kz53kP/7UtYUGjk25O1xkUNam8UIeXinGj7NSaMB/7GI6FshS77fiWfVTKj/sRwZF9BqQtjK3tlD0J/phWbDTz2YXK9I2RZXnm/iwFc8t0tKpk1+rFRrKosj5Nwa8ejHlnWzN5vsLiOFNsQVlujaKdLvKKWW1fjZxp/NPgOasyhb5+a1LX6Rywf53UB6xyZTI7eKy8nDojKdyP2ksm32IsmkvGBpUK28Ocjk8RclxofySp9LXThtiabHF7dZa3OIMuWUhBBJcue0ORrLntNNyv8MspraTJBReca83c9kr0SqO1F4jXfNpFG2HaoyllHYnOs6+aoL+1OO6/NSalXeQ2inbM8jsLOmlm5uAeQjpzUm6plYnI8bSsCzIOh6VxJUmOwAGXQsW3PMVxasYAp6MhpZ9vfmLYoc1tRSaqHsPhmsjiuF1lnY30/NvCf4mSpdQIii9qKrHyHIEDnB2yi5Paff0JE87awqXrj+J7ujhlLaD1hkk1IIxaS1P7yYWQ82ssG5waxzeWyXF+EbNkvgoAt9r2Hpqe50rLpc1P48Il2N71yvEZN0/S07M/Ys8J9685jbGV2TKObAW07dfcLfE7UVbVaZqIU+aKZ6yWTgMUetyF85ZO5XQam/1TAayMzwDnjvYx80Idnqxgxdi+WspcAJxKiBxH2m3HCjhB00Y/WoOuKeP/J+dLa2Tpe03GN9Cy2MiSaRQqi7HnLJncRJ6subm62dkaFZMTcVre+Sfbmo3LV1gcE2ALpmwalsIKGAO8x0zm60HA+grZX5p13+zVddbR9tofr0ymNw7SSbNPMLpUZ77FWLRSOgyzZC71hXPNu8U8Z8nytqsnA9Zz0haaQeUtHoGlVwSXLqfCnJS5mYNnQO7EM5Y9ushlXgPFj7wyuLN/4SHv5YVGmE56hqPW0TJ1XxnepEzcYZ4TdkpKXueZfCoeNDPw/5pjg923tqnvfortLpblXKYgm0SnOBxfGpfLD9+VAa5f9kLOt4+50MwAACAASURBVDzFyQTtYU6HbUefkJq4wzrP2ehLc0Nn18qefrL1guFwGWNxXA1ZZyO9pGzhs0TJUipB2cPaWiRW3h6Ts0PQ3NXe0hlf7sS5vvPE8HEOuyDNJSNxPhsQRm1PVl7hnp3za2xpObUhFlp7MRtLV+CS+bKmHLlqdYme50rLpc1P48Il2N71coK8nYkEcbL2R+w5cV/ay3NBOY3Wx7iCoXgCciS98JDV2/GnabRjGOPPvAxxxXNqsiVMbnnpaXlLcuajJn6zweop6ctF1PEvOer2sdqXSnn8y+uOjO2XdCOdTkSU9pKaS8Eu5uZbTtC00Y+TCCnOT1gC12zh9LgsDJ6PPBmIf4NB7o/ixLnPlouCUjB3UvVCzgPnNFpftaIjAUkrLsBcl9m4fIXFMQG2YMqm4RRkb2cPu/s5wZB1UugfBj9MT8/yVBgzlxV/ZYf1tQn6AKv2ClajYS+ZdlBKKZk4z7GzaGOA0/EpQr7dsD9iF8HnNxj3ksn5H2bLFre/YZG3eHiUXhGyJDi1SJRNP+a2A3G6Itfs2QseX+G1A0NvlIwwndTj67TfqfKL+DiVXx1yHP8BOQu94WzM+5rZFvtq6K/WW1so39hiyeLKriUum0RuIrQ4/JObDm0ynCNwIIV6wc/6DLiIcEqBC2cmqh7DYdQsjttV1plrn1Q1KVvwg+4l6tbj+PdaWQ1+Ni0Bd7WN1UT6aX/+VJ34Me5CM0bPUaJ7A8LjIj+2lpvA7XMAvcH4KeKedSQtSEdpInDJfBlOjlyNdZLrDJc2rhUujQs3N1rN0Zb88jlgyc6SyeGRdpCGUtaZDdzL2lu3dw/H7v61RX15I7ZX23PvUIYWLrIy2qHevoznIxK38k4DIC4ATm0TFwD7GI7lO5nb5xDTjwiW5TPA+XIZcGhJyc6Dy7YWR/5kpyun0TpzXJ6/J9/zyYVSKZibq5tWlaQmHJZZ0GZ9+/rjhyxzXWbyfIXFMQE2rrF9YNFOAZ6Y5SrpFNAUNibIs9xGs0qP9K8t8e8sGw9x5qphL/l8i7Fo61qTPXHRpwif9YXJSKdLO6tDO7WZZxTZ4vbqLG9xszlEERV74/VCnuPvpzArZX0DkL+FwAWSs+8/4GfqmIol70KUNFIo+fJxhulTYXkmjU9QTinznpnJu2M93fbL8W8ll3weuyjNJJOS7YmsCzIOh93fk3I0957UWPXksz7DnI696jmlwA2dn0eSrRd+2lXW2VhgkrKFlkenEiUbZ/s4SksktZ/uavO6hpxGxWtJ2BDa+4io+H6sz3rh1IDIBkHru43ZlOaWCy60Aa1nHTEmPk4uwiXzZWg5cjV2PNy1cGnz07hwpbIOtTsZm6e68yQ+SLKfJ8bJ+qlscuyV02h94IK+SxYMqbWnY3NNOY3WO3X+IA/j4B3/v9mgSj6PuWfuB3vQs9xiOjXZEqY2gJC3JGdO840t1vjjdp+1c8y4rIL1TyrA6cMl8+QmOw/NfMZneRKGTsyn75LRW8k88YkneSYvm8O/uZOqF3Lu7tcbVPNFqywNhFXrdwn7Vbgup1a7jTScLvJmReNMjlxRJuey+Ls0N3rjs9x3nlgflmCPzj5Lpg3iOabxgBy2hb068y0GRbmTX9d4ZXAS8vojy+Xw/C6ZfxHcctofsROWKzPpwyHXHlqx5IcNcxqt7zE8CMSeZov7dMlSECGPpny9yfqiWjhqfaiQDyoku8gWKWVz25kYr7BnYnT7JRPuCORF2WIb07dflI8bR9jk5Ffstfaktd+Of0JwIGx9oIz3gmqjUrsg9ys8yUmeLb0e4qUir62Pebx8BKWWmmwStbqgxVTK+oQaq81fIrVHGxsuWbL1gptx7lm4pnPp4mbHWGD82KKv32ohkypRsk178xNrGwgdnhQd/OLWvuvWetr6/UYz+rropHZv0PqYJC0Lymm0ljMcuRVLkAttTqO1nZi/GMaf/xp6AyK/UkMt+dWHsVMfgyFrQe+aU9bUccePMZXk0ZSvrrPW0oejVqPKJiOVPOuIL2RjNBJcMkfDyt6CRy1agBsOjsylzU/jws2Nliz/5K9zsJacrB+XTCnrGxovvuTLCdoDdhEkS3Pn6EHjoE2qZE+fr/DYQvpdDJCEylvcBCuleNqEU5OBP21Riw4PafkiNxmsJAOnAHfPPASUbahURgvLDEpza4L4Fqdvn3DQUuafUoSmtudPCdxnOjLjfh7RJiJYbRnQDnVMwdyyEGpsjRDcRZBuXJdTq91GuU4XedunXBUmI3MEud5J5lry5LBcDipT04ZKOY2x7+/JOBTmqiFLpnaLQdF1OdPImsiAVmxSEGGsL3bl+Yp83Ss14bB2shxb3KdLpp0Ky8nKgCbC2MByfN43KwtzyuZmDi4BbuJohGePKSPwnLYLKHsKdMUzFxpz2eAwHy2gHdTuJNrpuqYSv8VgH5XEyeUqXAI1TeRPe5WhFwF/bTH3yFr8FOqFUwadrruIcHqEM65p6xQ/qarHhuAmgsXxeIB1ZpeM40j4Wlhqm0KJ8mzTtELrRMPpuh+V6JMz/CZavuvUMit/DrEB2X45PgMvk+WwBKutveI4FOCZfK2/cGIyPq/DJXO0u+xstLLFP7nh4Mhc2vw0Lu5NyW82qE864wtaSFFO1qdLppR17jMthWe1OfDaeus8H7mWTOKQi5Wtj0QlfqaZY0qVOGV7gJsGFzdA3uImmLqxgp3mbowFpXzIh5wzYSU5dxSQLSad7iqvsA72AJcQudrKbjsuCbKBS0GEprbnTwlcquryoNTK5yMvvmY++xtH8+VtVz/2JQjsDapkzS0LoZMRpYxbj61JY7u9XltvvUClvVVcl1Or3VKce1hOgjkhlS/XeeenzLUxLy61W3NKtS+BssI8AJIlk+7yLQbFT/UG1ZQ9BrykpJZHTse/CGN9Yen2QFRZx5xoE1BM7Pcb1Vc3Eh5ii9tHWvIWDwrpDM+kRCilOu8n7PojfV5bb70X/0drjJ4szEMxd0L2TD9kvngBpxaRP8/Frr58SrbY2oPyp3suCIJMSjY4bDIZsDcgUpyfsMyF/Pqf/BpKTqOS53pzCZSaaGF7eSZljCew5zRa5fP4D3F9U6gX8Yf9hVxEOCXAGde0dYqfVNXjssFNBIvjIsE6c+3jOBp/+VNqm1qJ6nmqSl9+PlumzGHW0AmFy3VPlXIaVfW+hDNsnoeteTmWLgMTd8RP/hhiA+JuPnuh1dYoslZ/aVarTsa0tfcXLmTG2y24ZI4W15ppLlsywA0HR+bS5qdxkU3J602xtxGvrlP/vU01HI+vopEqcrL2Yb2MpoX7+q1u/r+3xUTwiVi3E4fC2lN3nlhuGOfX6WAPqRJHtge4aXBxA+Qt2cD92Bc/JcKeMl8xbobRMmX/ya2hbLW1aByHscsrrIA9wCVkPLtkNGA9fdcapv/u5Zztb5usXVu7rsQWQkjgKZhbFkIuaTJNe7j3mbV2hRcR/WmL9Zm7233x0/a4LqdWu+0Sna7IYxWcFkfJOQqeSRsIW2fQzWyz1lvyO8jX1lveplMDwjrwymT6WOrZe3wnIcADIHvt4FsMSj4ZHTy3sO4r9cfNsTbk1XWWnvaD+Dgd/yK45bQ/InXQwg8C1nT6m5/EzqXklrb3mRYxXgb8u2SUhH8RFL/7sfUdZFqY9Nsma9R14UHCcUqyMA/F3HoObb8ZqfEYHooup2rpKBSuGnZQNgmxC7Kq2htMuiIbf/r+eOMZqwvg1iOnUf3bJqs9OdRtaECcRDtdl+c3yBJ17WH8XAd5XWvMnXKhPSKldz9WM76OVw1KQYufQr2QIvyEXUQ4Pc7lRNPWKT5d91kvuGxwv8niuEiwzim7ZCmXqKiy2lvZi726Tv37Fqva7rkWXzrujsJ412k4QW3mvIOGrSVqcCn4tgvqP18O0n7bZOn2QsPeZ/Hz2NLSgPQ+szoUHkDmNFo18a8t1kValC4zFY4qqdV/brXe+weeK54vNfYXMoXxHIZLNpLW5+aGB/ojqU22ypZrBv7RqrofxxUNR9WxH+L7f1DV42hGbQjmHh7TycF07Zf6F0iHRwdIAQEQAAEQAAEQIAJwyUayJMAl80OfX67YT1ZVyhpKTn65nAAumR+eWR4H5h4GA/UG49POv99o7TjFHwiAAAiAAAiAwAgSgEs2gvBjXz6hRQtyfnkkdco+2byYIafR+ijZ6Tuxsxajypo0n/51/PO4vMcm+zIBjfwSgLn9kko13rWHSp7K5ed041RF4TkQAAEQAAEQAAFfBOCS+cKUoUiYJfMD1vPQSPJptQPN/KSMOFlIAObOkFGkr8u7X7SzLjMkGsmCAAiAAAiAAAi4E4BL5s4ns3fhkvnk23Ip/mkOHk3KwJufqLabPhNDtGwnAHNnwkJ2l2zKHutrNvgDARAAARAAARAYcQJwyUbSBHDJ/NN/EFDLT1iH/Py2KX4I5O82Wqf27biczs9G+1cJMTNHAOZOO9vPr8QqzmvrrVrz1Y00HFWXdiWRIAiAAAiAAAiMTwJwycan3ZFrEAABEAABEAABEAABEACBrCAAlywrzAAlQAAEQAAEQAAEQAAEQAAExicBuGTj0+7INQiAAAiAAAiAAAiAAAiAQFYQgEuWFWaAEiAAAiAAAiAAAiAAAiAAAuOTAFyy8Wl35BoEQAAEQAAEQAAEQAAEQCArCMAlywozQAkQAAEQAAEQAAEQAAEQAIHxSQAu2fi0O3INAiAAAiAAAiAAAiAAAiCQFQTgkmWFGaAECIAACIAACIAACIAACIDA+CQAl2x82h25BgEQAAEQAAEQAAEQAAEQyAoCcMmywgxQAgRAAARAAARAAARAAARAYHwSgEs2Pu2OXIMACIAACIAACIAACIAACGQFAbhkWWEGKAECIAACIAACIAACIAACIDA+CcAlG592R65BAARAAARAAARAAARAAASyggBcsqwwA5QAARAAARAAARAAARAAARAYnwTgko1PuyPXIAACIAACIAACIAACIAACWUEALllWmIGVuN2nFh5Sb36iXmlUOS//e2OLut3HUcZ7YCCsPmhXr61Xr65TCw6qgfB4B4L8gwAIgAAIgAAIgAAIjGoCcMmyyHwtlyxPgz0xDoyISxZV6vbPqvGMyt2uar/MIkr7rlvOGMPZfjmLdIMqIAACIAACIAACIAACIJAsAbhkjsSqvoiP+9kBeHWdNYW18JDq6nV8MLUbHT+q15sMEnMa1Yi4ZMd/UL/ZENOn6ovU8pSRp+CSZQQrEgUBEAABEAABEAABEBghAnDJHMEbXTLpm63sUFHHp5O7EVWqfn/cHyvepa49TC6FtMfOWpcMCxfTbmskCAIgAAIgAAIgAAIgMIIE4JI5wnd3yXIareVz+647Pp7UjcfP1N8/i7lkb21Vd54k9XRGImetS5aR3CJREAABEAABEAABEAABEBghAnDJHMGzS/abDer4D1a0cFSduauKdsans6r3pWei7HaftTqRpuByW1Vfv6NWw3YDLtmwoYYgEAABEAABEAABEACB8UwALpmj9e0uGUW9+lD9YZOb+xSOql1XrFkvOoXi1XXqv7eppnMq8NxRln+XLBxVnfetzWx//jR+FgjtcFt0WD0IOIqIKnX+vqr7Sv1xc0x5Umz92bgHKN0wXqJpDOywHaoRjqpD3apol/rtyx1xv9uopuxR335v8Fp3XI7pQNvkokp9dUP91zbr4qvrLKf3/P2EjPT1q9zW2CNSH/aWE2Ir64BKdnF3XLbIN52z0qdzLP+4WW3ptBxs+1/gudp8Xv1PS8IJIn4k2pPCFRAAARAAARAAARAAARDwQwAumSMlJ5dMugf2Ga0f+1TedoPzkNNouQQ3HA4FkS6EPU2porvX9HqTar8to8fCff2qep9Zq5xGtfhoLJp74tIz0VyynqeqdLdj+tX74l4fSZIu2fc/q4bjCYf+5zRaJ53IjEjmUg0/Ltn6s2riDoNu9fvV88QD9G89Vn9pNsT0I9EAHZdAAARAAARAAARAAARAwAcBuGSOkJxcsrP34kcjTt6dMKzvDTr6YzSs/0er6g3GJPr3f9hlUspaQskHIUpXgcP/tU3fiuapFafvmThLkS6ZZ/o5jdYx+vIDYtIl23HZnKOJO+LzikNxyVhnLfDrDerIrbj1A89V8S4Pfyyn0VKVVrHGn0QIBEAABEAABEAABEAABIZAAC6ZIzy7SxYMqT3XrEPwaXD/6jrVcinh8cVH42P66V/HXKOuXlW2J359ZUfsEf/+D7tMSqlTd1T+drXmlPruJxUMWUmFo6rjR2sdI2ulHToitXq9SW08F5uzCobU2Xvq7Ta1+mRCLuiHVM/9EHyZ/p8/VafvWisVB8KWIPYef71BfdMVl8Iu2R82qb+1WJrXfmlpdblH/cdLvK83WZk1/tlNo0WTs46EpXS3ZY7Ac0sQ+2bvt8efO3JL/frlof8Ve2O26w2qd4/EZvBeb7I44w8EQAAEQAAEQAAEQAAE0ksALpkjTx738wheBl5pVO99mzDzc+eJemtrbLhfvCs+w6OUNb7nW7wuUfo8MmV7WLpkTuoe6Fa/evmZ6TWn4rG+/1n96eXBIdpqwHgkU0iq5+KS3f9FvTW4Byyn0XJWrz9KSGvjubj/M7MtfotdMsqsxCUdPDkXF39YKTaN05yV5pJV7I2vnHTK16bzMVW1Ey/lYZh+DCH1RBgEQAAEQAAEQAAEQAAEPAnAJXNExON+zUf61Xo1/Wt14YH+oPyE8abz+l1OzfjdZ+lCsM+mJ+H6W3oa0nP4/ErcKXr3sGsSiTdlgi4umXQFFx5KTEIp6RDKfEmXTHOr5K20uGSaoyhRy3ytOfXSJdum7v8SzwhcsjgLhEAABEAABEAABEAABDJAAC6ZI1R2ojSXzOmgDh7T2+PLK5oHQuKlnyBdF6NyfHbiv28xHwwoXTKedEr2K2o+XbKWS3GXT1vGqZQ1N8UnJUpfVPpd9fsNRzIaM84X2TRGmCrxxEWNp0QtXTLpUU//OnZ2ZW/QOtySzbelk1VAAARAAARAAARAAARAAATSQwAumSNHbdzfG7S2XfHovHpfwqpFpaxzC/muS8DoRUg/QXMhNP16nqoy57MNSa7RJTPK1RKXP326ZDLX9kktPy6Z/SmphjGsmcYex4WnvCVdMs/jPeznptjl4goIgAAIgAAIgAAIgAAIJEsALpkjMfu4X47atfP6/Ltkb2xWtx7rQqWf4OKSSQVcvD6jS5ahWTLegpXTqB92os2SvflJ7MwMpZScJcsSl0wp62Nl/3ed2a/+/UZ1bPBz4brl8BsEQAAEQAAEQAAEQAAEhkYALpkjP7tLppR14iJ9ADqnUZXvTTgBXy7hS9bN8OmSyVMB39hiKUOHLmqH40uXTLpMmdhLJveq2feSyc9qF+2Ma5uFLtnlntgXwH+zwToE8rXBs1JeGTyzZMlR1fvMsZzgBgiAAAiAAAiAAAiAAAgMhQBcMkd6RpesN6j+OnhoO33O+Oy9+OOd99XvN8bmWOzLGuPxTCGfLpn0ZLQTRLZ/Fz9xUbpkcv1hUicunrrj+Pk1mQPpdGkHaSilVr88M0N+kDo7Z8nePRyz3dwDMn8IgwAIgAAIgAAIgAAIgEBmCcAlc+RrdMmUUis74mvb5NEUA+GEXV7Fu9TpO7H9ZgNhdbPX+k5X/na164pBok+XTE5JFe9St3+2kurqtU6AfKUxrpV0yTStXm9SjWdin6t2/y7ZnScJX2Bbe1rfO0fZeB62Zgt5FSV/lywYUmtPx+aachqtCajLPfGMS98y2RlFleQh+NpCUIla7iVjc9P04+0+a5ml/Lx1XHuEQAAEQAAEQAAEQAAEQCB9BOCSObLkMbp2MMa1h+qNzTEnRPM0On6Mzyyxl6IFjB6I9BM0F0LqJ0Vrycqf0iVTyvrA8etNca9JxqSwFp8kar6W9pTMxbl78elBLRr9tH9TO1mXTMY3iqCLrJULT3lLumQ8S2ZM/09b1KLDWL4oCyPCIAACIAACIAACIAAC6SEAl8yRo5NLFlWqfn/cw9E2aB29rd54+Wlm4+Ce3QYpWPoJLi6ZUuqjEwkTYiziby3q75/FtLK7WB0/xqe8+BEO2OOTbjd61X98Es8px89ptM7nkH8uuX5tvWo6px9zL10sLSmZLIdlfKmGFuakXHjKW9Il6w2qgp3mzLIUHPLBFkEABEAABEAABEAABEAgXQTgkjmSdHLJlFLymI03P7GWDsq/wHO1+by15YyOiMhpVL9tUn/+1PrCVed9FY7KuLGw9BPcXbKoUt90WedP0ErF19ariTusxZDhqGKFjS5W4LlqvmhF/u3LGbPfNllKbjxnfT3M6a/3mTU79OYnuh/Izg8/2NdvLen8722x40/oYIyFh9TtPo4SD0gXy55UPN7LkIzPDpI9wEm58JS3pEv2Y5/K2+7hkuU0WgADz1+qhX9BAARAAARAAARAAARAYMgE4JINGSESGP0E+votX4t8vH+0qm7xlYJw1Dr+/s2Xs4Xyg9ejP9/IAQiAAAiAAAiAAAiAwMgTgEs28jaABiNOYN/1+LcNWi7p6jwPq8kvP88Nl0yng98gAAIgAAIgAAIgAAJDIwCXbGj88PSYICAXRv6tJX5UZlSp648SDrSUX1cbE1lHJkAABEAABEAABEAABEaYAFyyETYAxGcDAc9DI2lNY1IfdsuGfEEHEAABEAABEAABEACB7CcAlyz7bQQNh4NAy6X4cSz2g0NyGq3tZG03h0MTyAABEAABEAABEAABEBhXBOCSjStzI7NuBB4E1PIT1imUfChlTqP63Ubr5I8dl/HZaDd0uAcCIAACIAACIAACIJAygRF2yaIv/7QM0OVIJBIe/AuFQgMDA/39/c+ePXv69GkgEHjy5Elfn+l4dS0h/AQBEAABEAABEAABEAABEACBLCYAlyyLjQPVQAAEQAAEQAAEQAAEQAAExjoBuGRj3cLIHwiAAAiAAAiAAAiAAAiAQBYTgEuWxcaBaiAAAiAAAiAAAiAAAiAAAmOdAFyysW5h5A8EQAAEQAAEQAAEQAAEQCCLCYyYSxYZ/Ht5ukdUQ4TjPTQg+AkCIAACIAACIAACIAACIDAmCWSFS2YnC5fMzgRXQAAEQAAEQAAEQAAEQAAExh4BuGRjz6bIEQiAAAiAAAiAAAiAAAiAwKghAJds1JgKioIACIAACIAACIAACIAACIw9AiPpkjltJFNKYeHi2CtqyBEIgAAIgAAIgAAIgAAIgICdAFwyOxNcAQEQAAEQAAEQAAEQAAEQAIFhIgCXbJhAQwwIgAAIgAAIgAAIgAAIgAAI2AmMvEtm1wkLF41McBEEQAAEQAAEQAAEQAAEQGDsERgxl8xlIxlcsrFXzpAjEAABEAABEAABEAABEAABIwG4ZEYsuAgCIAACIAACIAACIAACIAACw0FghF0ypyzixEUnMrgOAiAAAiAAAiAAAiAAAiAwlgjAJRtL1kReQAAEQAAEQAAEQAAEQAAERhkBuGSjzGBQFwRAAARAAARAAARAAARAYCwRGEmXzIUjFi66wMEtEAABEAABEAABEAABEACBMUMALtmYMSUyAgIgAAIgAAIgAAIgAAIgMPoIjJhL5o4Ks2TufHAXBEAABEAABEAABEAABEBgbBCASzY27IhcgAAIgAAIgAAIgAAIgAAIjEoCcMlGpdmgNAiAAAiAAAiAAAiAAAiAwNggAJdsbNgRuQABEAABEAABEAABEAABEBiVBOCSjUqzQWkQAAEQAAEQAAEQAAEQAIGxQQAu2diwI3IBAiAAAiAAAiAAAiAAAiAwKgnAJRuVZoPSIAACIAACIAACIAACIAACY4MAXLKxYUfkAgRAAARAAARAAARAAARAYFQSgEs2Ks0GpUEABEAABEAABEAABEAABMYGAbhkY8OOyAUIgAAIgAAIgAAIgAAIgMCoJACXbFSaDUqDAAiAAAiAAAiAAAiAAAiMDQJwycaGHZELEAABEAABEAABEAABEACBUUkALtmoNBuUBgEQAAEQAAEQAAEQAAEQGBsE4JKNDTsiFyAAAiAAAiAAAiAAAiAAAqOSAFyyUWk2KA0CIAACIAACIAACIAACIDA2CMAlGxt2RC5AAARAAARAAARAAARAAARGJQG4ZKPSbFAaBEAABEAABEAABEAABEBgbBCASzY27IhcgAAIgAAIgAAIgAAIgAAIjEoCcMlGpdmgNAiAAAiAAAiAAAiAAAiAwNggAJdsbNgRuQABEAABEAABEAABEAABEBiVBOCSjUqzQWkQAAEQAAEQAAEQAAEQAIGxQQAu2diwI3IBAiAAAiAAAiAAAiAAAiAwKgnAJRuVZoPSIAACIAACIAACY5vA9Rs3S8sqp02f+VNPT2o5HXoKqcnFUyNCAOYeEezpEgqXLF0k05/Ow4ePKqpq5sxbGAwG05/6yxSXNiyvqKp5+PDRywsj+e+DBz99uLihoKh0Ql7hhLzCTOddZrW5pZWETsgrLCopu3r1mryrlHKPMA6NpfFJ+WcwGJwzb+Fw2jplVf0/ePXqtaKSsqUNy/0/gpjjigC1GKmVkO7uW7PnLsgvKKEmK7VEjLSXNiznZjB7+gWjqilfHF11k/udo8eOp5bloaeQmlw8NSIE/Jt7KE3QiGRtPAiFS2a2Mhdr6p8mT6la9a+PHzz4yRw7M1fH2yi/t/dxbV09DwiSdckikcjBQ0dq6+pz84ty84um1kw/eOhIJBLxaRxp8bHqklGJYsK5+UW1dfVf7/8mFAr5pJSJaCm7ZB0nT+VNLJ6QV9jWdiATig0lzdE17BtKTn0+u3PX7gl5hQWFkzo7L8pHCBSXyfyCklmz5x0/0cE1Vyu0HDONfohRh46OU9FoVKqa3nDK46Gu7lulZZXMYUJeYRpR+HHJrl69VltXf+LEyfQCUUqRIZpbWu0pL21YntRbm/7+iPoe2AAAIABJREFU/p27dldU1VJ3MHPW3PPnO8mg6aqbQ+GwdVvzhLzChmUruIzdvXuvvGLqhLxCzfWiSY/6t+ek/No05RSM9ULWTbuZcGXECfg3d8pN0IjncQwrAJfMbFw5QOfOr6ik7PiJDvMDGbhKFSapfigFLbJnlqyt7cCEvMLFS5b19fUlm5FAIPDeB0vYUhQwelaeKTe3tLo/aIwwKoxFSmqUcvOLPmvd4YklcxFSc8mi0eiq1R/X1M6oqp723vuLw+Fw5jRMIeV0DftSEJ2Fj/T39y9Y+G7923NKyyo3NG2WGmrDPiqcuflFmzZ/QqNVY6FNrx9i1CG/oKT9aIrzEjKDTmHKVwre1Iamzbn5RU2btozU6omjx47bPQenbCZ1nQxhd8nC4fB77y/23xX+1NMzo3621tDxpF+66uZQOCxtWJ6bX1RVPa2n5yEhOnDgUG5+UYbAJmUFjmysF7JuckwERiOBlJug0ZjZ0aIzXDKzpcglo/dVkUjk9u0f/ve9D602dGrd/QcPzM+k+ypVGP/9UGrys8clM7o6fjIVjUa3fdoyIa+wvLLm2/ajoVAoGo3eu3dv3fqN12/c9JOCjOOphjHCqDCWpmQoFDp27ERRSVmmy5jEaw+n5pI96u2dWju9uaV1Q9Pm8oqpd+/es6c8glfSNewbwSykUXRXV3dpWcXhI+0vnOeZb88NBAKcuAYqEAjs/eLLopKySaXlXV3dHE0plbkBhKbDwMDA57v35k0sTsFfkgq7h1POzvC02C5ShuKKuDP5qaenvGKqHTs1EYuXLOM5JZd0QqFQw7IVE/IKp8+YdeHipcjg382urlWrP37U28tzcXYpLmkabw2Fw9KG5TNmzq6qntZx8pRSKhwOf7i4Yd78RUUlZdosmVH08FzU6oVL3RwefSAlvQRSboLSqwZSkwTgkkka8bB0yehqKBR6f3AeZs/efXSluaW1oqqmp+fhiY6TVdXTJuQVlpZVHjt2gruN/v7+r/e38VK6iqranbt20yKxW99/X1pWob0wpmQ3NG0uLau49f33VGEWL1l2+/YP7yz6Z35BSX5ByZqP18mXoy4iODO0om9qzXRawjF7zoLbt3/gu1rXe/nylUml5ZNKyy9evMRxurtvkQIT8gqnVFR/c+AgLyviOC6BaDR6/nznzFlzSQHJQT5ldHVkBKcwLfmYVFp++fIVpzh+QNGznmoYI2SPsZwI8KBWOmB2d8gPKM/yYO11mbPAvmSIdbNSePc92jQ4sXBSfkGJ1IqjuQQ6Tp4qKinr7Lx4+szZ/IKSAwcOaZGdlKTptbyJxafPnJWPXPrucmHx5FWrP45Go2TNZctXckbsVU8p5VKzaDSzes3aa9euz5g5Oze/qLB48metO+QaUVqLRQMdWoo2tXb6lStXWSst/dq6+sNH2rl5IRGfte44c/YcNTJ2EX5SkGNTyri0hVZ5a+vqz5w9xzqwqu6Bnbt2l02punP37p69+wqLJ1/67jLH14Z9SikykH26gHST2nIiQ1TSroOURVN81CazRKUUTWvs3LVbXnQJk5KzZs+jPWCFxZNz84tkdqLRKJsyv6DknUX/fFH87AlqLbaMEAg8HeyVYqv1jAVGSrSbm1OzS6HI2tQT/ZQFhlNIISCxy8epmWLN3UFRRa6uqbt3775MhMN+6qYLybRwWNqwfEnDRw3LVqxes1YpdffuvekzZn351f6ikjJehu2+iNRP9XdPgYE4Bez1wl43h9iIUSv6zYGDUyqqtaLFk6WeIlyMxSXn2/ajhcWTp1RUX7t2/fPdewuKSmvr6rmEpKUBaW5pPXe+06kp9syFS1vtswnyNHe6miCnAoPrQycAl8zM0O6SKaVo7wp3DM0traVllcs+WknrDahBkS936S2abGhy84v27PlCKfX48c810+o5KanE0oblVdXTHvX2UtNfXVNXXlkjE1m5ajUv03IRQWmGQqGVq1ZLDbU1P7LrvfX991XV0zTf5tq165NKy6UC7uv6ZF4ofPhIO+9E53SWr/gXDU9lO8J3KeDzfWH70eO5+UU0mLZLpyueoPhBo8fFd+mcDzuBLDGW1NMeJiV5/DQwMLBn776Cwkly4aInKM/yQF69NGV+QcnhI+2sT2fnxaKSMhkh2X2DSqnVa9bWTKt//Pjnnp6HFVW1cleGUspdydNnzuZNLNYKzKbNW9lbIFClZZWanps2b+VcuNcsGs1Mmz6Tz6qZkFeYm18kXcelDctr6+r/970PJYqptdPpXX40Gm1uadVqbm5+UXNLK3lEJKKiqkZWLinCZwqyFdJKiFKq/ehxmf6EvEJeAMYo3AMDAwPvLPrnO4v+OTAwQDrzYMs4ZeHkM5NuUluWO0QltaFnIBBo2rSloHASL1zcs3ffhLxC6X3RtEZS07Nf72/TSGpNsb2d5KaYRpaynHBYtkX29fb5BSWnTp8hUFo2je9oGKnsF+gi8We5MsBNCj+eWoC6RZoNe/LkyYz62fTWksLkvSilXEDxOUzSWJoyxMG9brqQHDqHZ8+ezZu/aGnD8vajx2vrrEbswIFDCxf984cffiyvmMq1Q/aM9kpHuXCp/kop9xQ0LPaf9gJjr5tDbMSUUp+17tBaOSpakoNLO8kWlwWSiz1VnKm103n75bz5iwqLJ2si0tKATKubKSu4tiNgiKBoLy7PB/DMqhxwepp7KE2QvXjgSiYIwCUzUzW6ZNdv3CyeNIW7H4qTm1+0ctWavr6+SCTyydZPJ+QVtm7fSYmePnP247Xr7927F41GI5HIiY6Tk0rL581f9Gzwb978RZQUDVloPww11hSHm/7yyppTp89EIpGbN7teeGv0vtlTBEU48m173sTi8sqak6dOhwb/Lly42PLZds42d7337t2vrqkrLau8knjYYHNLa0HhpBMnTkYikRQWBNIUVlFJ2f62A6FQKBKJnDp9pryyhoe/sh2Rrar9NTnrrAXIEPxyUbtLP11socUfiktGiydH0FhaXrSfXKKYc/Gksq++bpNznp6g3MsDdYGTSsuPn+iQ5ublaoFAYObbcwuKSvd+8eXAwIBS6qeenpmz5nK10nQ2/qShGw3RaHBcUVXLuzKok3YptKQDOz9KKRrzLVj4bn9/Pw9VyZpnzp6LRCLnz3cWlZTNmjP/6dOnpJJ7zaLRzIS8wqm1069fvxEOh/e3HcibWCwXX1HJzy8o2fZpSzAY7O/vb1i2Ije/6ESHdXACveznuh8Khfa3HSgqKWM3gEVMnzGru/tWJBLRRPhMQTo5VEKkLZY2LC8tq7x+/QY1YnIBmNE09ou0IoAGE0Repq8N+wKBwI6dn+cXlEjrUJqkm9SWZQ1RSSbJ9aK8Yuqp02d4MpAaMS4eSqk7d++WTanSvHrWxx6gFErLKk90nKSV1d3dt6ZUVHN27j94UDW1rqp62pWr1yKRCJv7w8UN4XDYp0u294svm1tayaUPhUJ7v/gyv6Bk2fKVpI+Gmsu5NAdrzv0CX+EAvbXx+b6Mn/IToGySPqTtjPrZT548IdPTGN0dFPkh9lNkpHQ2t0vddCdJqaXMgbK5tGH53bv3ptZMP995oWHZip27dstsSoWNtuBcOFV/zxRkBGNYKzDGujnERoxa8rLy6osXL0Wj0b6+vsVLlrFDRVq5i1BKuRiLK868+Yu6um/RASoNy1ZcHXzRzLUvXQ3I9Bmzbt7sikQiJ0+dnlRaTqXXTy4822pqQOjFFiVIV6h90MxnLDBDbII0EfiZIQJwycxgjS6ZNl6hd9j80prf+PLbHS1p2d9Qz0Gv+WkBPTlaT58+nTVnPrUUJK6qetq9e/F9MiSUBm1a+kopTQTtii4qKfvOeUUf1d5L312urau3+2NKqT1795HbGQjEBqN2uS5X6NAO7Z0lrfnRQHn6Qk5SjMZyikzXNVAysqcaxghZYixSg0eW2pyG/a51CF5R6ZFv41NYEoW9RHmWB+rFNXNv3dZcPGkK7eujGSo53eRiC00Z/kmLFXkSo63tQG5+Ef/0VFIptXPXbvlIZ+fFwuLJPIVFoHiOgjnwu2rPmkUc5OopSlMOf5c2LNfmD+Ugb0PT5ryJxbTVhDO+afNWflXhKcJnCjwuMY7RV69Zm19Q8mnzZ+Sssib+A3v27pMzORuaNsuflAtZYp3KJAGU2rIOQ1TSqINsDGlyQKrd1naAXyqxGi4BakW5gDFqzg69p5fmjkaji5csoxUTMmXjeEtG4LBGjLLJElkHWSb5WRcpspRy/LQEZFOwZ+++8sqa8sqaq1evUUaov/AEtbRhubSUXTHPimN/RCNJEVLmQNlc2rCcXietWv3xjJmzu7q6ZTalDkZbJJULYwpShDFsrBdafzHERoxec8sySULl2MBdhF1zaSxCXVg8+XznBbpeWlbZ1X1LxqE1F0Np5Ujn2XMW8C7ZaDTasGwF93o03htKa09NkFw+feDAofyCEtliMAqjudPYBLEgBNJOAC6ZGalxlE8Vj6awnBawyeTkObw85uD+r7mltbxi6k89PafPnK2b8XbV1Lr2o8dlo0xhjk8pa92Auwh696+lIDWklqJ40pSptdMLiyfL/WMcjQ8zzM0vmr9g0eHD3yY1ODM6MPTiXDbEfniySlqAjOXiVyil3EHJBI0Ke0bIEmORGlzYjC4Zl4eBgYGDh46UllXyxIsfUO7lgcqnVIDCvHeLXHT5il2OwyRnl/DqNWulzlSc5JSFu5K0eaO8Yiovd1y9Zq2clrFbk5Rkl8yzZlFbIUu4PU1jx8m5Nt4lh5bGK54ihp4CzWHS4XX5BSUffLj09Jmzck6VtXUK0BIAniNVSlEW2GmnXHCBKZ5U1rBshdzsyikTQImUb/EJe6kpqZEMBAI7d+0uKCqVatNrbCJPmZKTZqyJU0BzRNkd4uxQI8YcOCAHYZS40ax0KxB4um79xslTqvhxuTZSyybrwA2CVN5FitYHyaeGGCYvdNac+YFAoGHZim2ftsyon/1icTXNSVIL7wnqxexTYfFkuSdT08oPB3eSlGDKHKj1INMfOHAob2LxwkX/7O/vpxLOs5qsttEWfnLhngLfdQqQCC5Lxrpp1I0TNN6Vjdij3t6q6mkVVTVXr13nWTLtuybGRFiEUsrFWLJzkS2w1piktwEh3bSBhHsujHclKN44Q8sNyJmXfZYEYkwtjU2QlIVwegnAJTPzNLpkNLfDK9q1KqclFAqFlq/4FzdnHOD+7+ix4/Qyb0PT5g1NmxqWrVi1+uPBb85UUN8jWxBOXHYDniJoVQBL5ERkgGovLRZa8M7/8mseGScajXZ331qxcjVtKpPvj2U0Y9hIicbQWt9jjGlMU7tIo3y2i3ZXKeUJSj7iqYYxQvYYS+ZFCxuVpPkimnf1CcqlPHi6ZK3bd/I8D6kne01NYeNPKtVcoTig9U8uSvJCfPLr6PBGOXFnB6W5ZJ41y8+AydhxcpaNd6mTpqXRniKGngIpE4lELly89MHipbQvTm6LZ22dAlTT2UYcYH/GngunpMgo7MNo0YaipF0HeictX3LTkkty0ugASTnlpSlj/7ls+Upt6kbLjqenwWkazTo4MA3Mm7+ICXOAidmzaS/nnlKUUrIP4vjpClDubt7smjlr7pUrV1evWfve+4u/++4yH0XoCWpD0+YJeYVy142mmyeHQMCDJCWYMgfCvnVbM6+AJVdfKxKsttHinrngx+nFK79Oktfdw3YR9vhG3Tia8a5sxJRS9Ik2Lq4T8gpr6+p7ex+7J8J33Y0lOxdZ2u2o09uA2F8xG1FwLox3NVDUBNHaRVqFKPssTsrJ3GlsgqQshNNLAC6ZmafdJXvhq7w4q1AuJTIOzTk5GotUVU+jbRi89okdpCtXrhZPKjtw8PD8BYtOnzlLO307Ok5NnlJFX1OVLQglSwMFXijvKYJ2ppWVV//44x1WTAtQW9DT85B22fKpG1o0+hmJRA4faS8snuz/S1D2nfFKqf2DK820XtOdp1Efukg9h0s2PUHJxD3VMEbIQmPJTFHYriQv4SOXLClQdFiWVh46Oy8WFE5y2ddH4xhpejoOhOuFXW3tCnVUsgunME/EafGdCm3HyVN0VGPHSavSySPX7aA0l8yzZtlHM/Y0jd0wK796zVrZ2tBRhE2btnA2PUWkkMKxYycKiyc72SIUCrV8tj1vYrHxqFjWXAao+tuNxZM/9lzIx2WYALKDIW/JcApK2nWwu2RUU2ix4s5duzX/XypgDDe3tLLhKAKdUcHZaWs7wA27MQW+6FRsqF7MnrOAPwihEbNn08XcTlLYJZNVmHUbemD1mrUVVTUHDx2eMXP248c/tx89XlZeffDQ4UmTK+iIVE9QdNrTjJmznb5vaeeg1U1PkpRNe1PmM/skTq7Nowc1e3FqRlt45oIfdxqjywjGsF2EPZpRN47m2QT19j6urauvqKqhExcLiko/Wr7q0aNHnIKn8u7G8u+SscS0NCB0RiLtRqGUhwiKEhk8Us46jvvAgUOlZRWyz2L9nYilsQmSshBOLwG4ZGae0iULhUIXLlycMdP69OT8BYv4DHrj0JyTo+Zs1pz5vb2P6VSMj9euLygq5eEOLcZYsXL1jJmze3oe3rl7t6Kq5qPlq3iwQg30zFlzf+rpUUrR+Xj5BSW8nMZThFKKNp9MnzHr+vUb9IWWCxcvGY/34PPZVq5aLY/qbtq05auv9v/88880KOzq6q6qnsarNzm/ToGurm46VZ/Pe+joOFVaVklLuuVT7jxlTC3M3yeoqp5Gp5hox5D4AcVpeqphjJAlxuJcGAOkJJfAUCh08tTp8soaXgToB5R7eaAZp/LKmiPfttPpHZom5PVV19Tdvv0Dn2GQ1ImLq9es1SYclFLkCvJMqbuSpBK9dJy/YNF7HyzRNklroPh9inzT7F6ziCQPuI2LxNw7aTrfVZ73sO/Lr+jsZnqF7CnCMwXKZkVVzfUbNyORSNs3B+mESS4hwWBw9ceN7e3HqNGLRCJnz54vKinT5rc1E/NPWuCnnbyilKJpbRrT23PBj2sB0lYipQhDVJL3AHPKAwMDX+9vKyop45aWBNGb6SVLP5o9Z4HT+2lNZ/5JA8e58995MQYNBoPbPm2hw9lYKLWT1qe0LlyUzS+nwAGnYkMewpKGj4LBoHUWVFfXkoaP5Dn7nuZmEU6jOopAdW3m23PZ95MPUvjIt+0FRaXTZ8zic8btcYxXmltaiydNmVE/mxYVW71kuXUICm0qU0p5gurr66POesbM2dzryWNp7EVOq++eJElzPxyMeSRxdpeM5t7lCUD0uNHinrmQoo0pyAjGsF2EPZp7yp5N0ImOk/kFJfu+/PpRb69TsXcX4W4sPy5ZuhqQ9z5YQu1kX1/fylVrcvOLZLfingtPUESeCv+ePV80LFvBCw18GiWNTZBdIq6kiwBcMjNJ4+oIbcWOcWjOyfX19U2bPlO+HqbPNPFwh9df0YwTDV/yJhbzfm5quGUKE/IK5ZEDniKcVrPwOEDremndmjxomyJoOvBR/pxZlwB7ejIROh+WDzSjx915uohQStFxkVLEhLxCHrh7gqKGW3tcbsTyjJAlxnKnZFQyv6Bk9+CHGZRSnqD8lAf7EdXS4wqHwytXrZao69+eM2feQq4X7llw2sRFtYnOy/GjJBe53PyivInF8mgQo/tEBUC6ZMYFM1yz7KMZgi+z6d5JGxeRyr31niI8U6ANCdIWkyZXlJSWs5LGYq+dh+ZiL3rrxBv2OCa55fJYfObGcThgLLRyi9QQlWSXTHKg1uPkqdOsBr2QoiMxiydNuZp4LK2MZgwHg8H5CxJWFc5f+G7djLc548Z2UmaTk3UqNrdv/6DtIqMeh0V4mtsJNZcH0oFmNiQuLYJSatnylRSBzx9m/d0D3PPSTDt1i7Ix9wPK/h0O2Zh7VhxPkv45GDNLCthdMirJBNPTFp658EzBqJu8aBch71LYqTTSXc8miLZoyrKUm19UUVV78NBhHh64i3A3lh2pxEtVI0MNiDzbSRto2TF6gqJHqApPnzGrvGKqtnDa09xpbILs+uNKugjAJTOT5I5hQl5hfkHJtLqZX+9v04618HQhXmxS5w/mTp8xq7392OIly7j34s6GV4DQIh+O0N/fv33HrroZb9MWjoKi0nfefU/b+O4ugvImN7/SF0hlIlp7RwNN6TI9ePDTR8tXFU+yPiSVX1Aya/a88+c7ubk040u8qn0DceasucYUPHkmpqr/ktnMzS+qras/eOgIH0XgDsrYKMte3DNClhhLh5L4W2u1qURp3zxwB6WU8iwP2vcoqbvlUk2vCVasXE2fPl/20cpHjx7RZzR5/jlR64Rf9GbavnCOTrjipV+eSlKi9NLRvgiNQEmdqQBIl0zbVq7VLPtoxp6mVvUS8jn4g86koSU99m8H+xHhnoJS6tGjR+9/sCQ3v4gOxrh799577y+WGZcf9aYCY/x+sV15ng2zr2IlmLSqx54LLSmt0PLojT0NpdRQlLS7ZHSMwZ07dzVNeIe9y/tp+yN85aeenkXvvkcfDV+/YeOjR4/mzFsoc0HtJH1q1phNSsql2PCXavMLSmbPXfBipd/sOQukCHdzO6GW5YF0uH37h3cW/ZO/wmSP8OOPd8rKrY//2h0PBmIM0KQHLxWh01NlU8yfaHcH5dIC2IucvW56kvTJwZhHUsBOhuoFwfS0hWcuPFMw6iYv2kXIuxR2KY0Uwb0JCofD9JqjtKxSfsIxb2Ixn9flKcLFWHakEi9XjbQ3IB8tX/XgwU8Sl2cu3EFxUnSigX3pgR9zp6sJYmUQSDsBuGRpR4oEQQAERgeB850XCosnJ7sIbXTkDVpmgABtgtXeT2dAzuhOMhKJdHXfqq2r1zZDju5cQfsMENiz54v8gpJvDhzkl7yRSGTvF19OyCv0uTo6A0olnaQf3zXpRPHAuCQAl2xcmh2ZBoHxTSASidCeRu27f+ObCnLvSCAUCtFePvn1IcfY4/gGTXPRLJ/7YVHjGBKyHiOwtGF53sTiz3fvpSUS0Wj04cOHi5cscz8zM9vwwSXLNouMXn3gko1e20FzEACBpAnQUhYaMmrf7kw6LTwwDgjIFUFyK+84yHoqWTx67Lh93XgqCeGZcUCAznnmZboceHv2PKcDM7OQClyyLDTKKFUJLtkoNRzUBgEQSIUAuWS5+UXTZ8w6c/YcL5hJJS08Mw4IkEtGu7P876MbB2CQRRAYKgHaPzmtbibtS6SzPZpbWgOBp0NNehifh0s2jLDHuCi4ZGPcwMgeCIAACIAACIAACIAACIBANhOAS5bN1oFuIAACIAACIAACIAACIAACY5wAXLIxbmBkDwRAAARAAARAAARAAARAIJsJwCXLZutANxAAARAAARAAARAAARAAgTFOAC7ZGDcwsgcCIAACIAACIAACIAACIJDNBOCSZbN1oBsIgAAIgAAIgAAIgAAIgMAYJwCXbIwbGNkDARAAARAAARAAARAAARDIZgJwybLZOtANBEAABEAABEAABEAABEBgjBOASzbGDYzsgQAIgAAIgAAIgAAIgAAIZDMBuGTZbB3oBgIgAAIgAAIgAAIgAAIgMMYJwCUb4wZG9kAABEAABEAABEAABEAABLKZAFyybLYOdAMBEAABEAABEAABEAABEBjjBOCSjXEDI3sgAAIgAAIgAAIgAAIgAALZTAAuWTZbB7qBwPgl8FNPz7TpM0vLKq/fuDl+KYyVnF+/cbO0rHLa9Jk/9fSMlTwhHyNJACVqJOlDNgiAQAYIwCXLANThSvLhw0cVVTVz5i0MBoPDJRNyMkUA1tTIHj12fEJe4YS8wuaWVu3W0H82t7RS4hPyCotKyq5evTb0NLM/BSpjSxuWD7+qDPzosePDL33oEpc2LOcCU1FV8/DhIy1N9whXr14rKinLKPlgMDhn3sJ0dQfd3bdmz12QX1BCuc6o5hpJnz9He4nymU1EAwEQGD8E4JKNYltjEK8Zr+PkqbyJxRPyCtvaDshbBIpHVLn5RbV19V/vb+vv76doNJrhCBxI1/iGlbl3797ceQu379jFVziQLmu6iGBZoyJAs2TllTU3u7rSrjCP57LcJbt69VptXf2JEyfTQmAEXTKa06h/e47dmUlL1jKdiLvHpZRyjzC6XLKu7lulZZXcDE7IKxxml8xPsR/tJSrTJRbpgwAIjDoCcMlGncniCqdrEB9PcTSHotHoqtUf19TOqKqe9t77i8PhMOdGc8l4qLGk4SPyyobNJaORmXHaJ13WdBHBQBBgAs0trdk8S0ZThemaWRpBl4yBj/bA0oblxlkyzpcxwuhyyTY0bc7NL2ratGWk1l+kt9izaRAAARAAgWwmAJcsm63joVu6BvEeYkbJ7Ue9vVNrpze3tG5o2lxeMfXu3XusuAZqYGDgyLft5ZU1eROLO06e4mhKqfQu/pEpU9jFX9KUtD/r84qLCJ8pjKtocMnGlbmHnlmjxyWTNUYYXS6ZMQsyj5kOwyXLNGGkDwIgkIUE4JI5GqW/v//r/W21dfW5+UW5+UUVVbU7d+0OhULyge7uW+8s+ictuJ9SUf3NgYORSEQpRTM2eROLT585K+Nf+u5yYfHkVas/jkajNARftnyltWp/zoLc/KL8gpI1H6/TXkxGIpGDh45MrZlOasyes+D27R8oTUrhnUX//P7724vefc+YQnNLa0VVTU/PwxMdJ6uqp03IKywtqzx27EQ0GqVEotHo+fOdM2fNNWbTj5J+UpArAMnt0d40O5GU9NzDHSdPFZWUdXZePH3mbH5ByYEDhzi+0dvZuWu3fZ+Su0uWspJOs3AT8gqZgx9rupRJPyIYiEvARQQ95VmilFJcpHPzi2bOmnv+fCeXNxfRfMt9VeHShuVz5i08e/b8lIrqwuLJx090nOg4WVJaXlpWeWVwSxiRXNqw/EVNcalZnB2nWTKXXHjqQI3AmbN5q9PjAAAgAElEQVTnqAHJLyh5Z9E/XyTIeaQx+metOzhOYfHkz1p3UAtDWeDpXBmQVSkajfLjdhGkwwv4s2bPozaqsHhybn6R/0VodkfCXpW06l9bV3/m7Dlpbj8r+pw4EK5IJPLNgYNTKqolB3vlZbbGQH9//85duymR/IKSDz5c+uhRfD9YIPB0sGDXUjNYW1d/+Ei7zAWn6emuGCMQya3bmi9cuEiNrTQ3Je5HB5dc2Nuuw0fa8wtKqmvqfvzxDuvvJ2DMglLKszy4l2oW7ZQLn8XevUQppbROU7OmHyU9SzXnBQEQAAEQSBcBuGSOJPl0AR4H5OYX7dnzBT9w7dr1SaXlfFfblHL6zNm8icXkffEjmzZvLSyefOm7y0op6n5KyyqLSspkIps2b+X4oVBo5arVuflFMgKPqCiFqupp2rp/mUJzS2tpWeWyj1bKRCaVlnd1dZMU6rZl+hPyCpev+JccGror6ScFOY6koQO7Ikopd5JMwz2wes3ammn1jx//3NPzsKKqtmHZCh5R2ceRSilyyfbs3SeTtQ9r+O5QlPTjL/mxpkuZ9COC8+IScBFBT3mWqMuXr2j1Ir+g5PCRdheh2i1Pl6yqehoP0KfPmFVWHhusk9GJZEVVrabGylWr5XJWzo7RJXPPxdKG5e46KKXs9WJSafnly1dILo0LK6pq+ASFCXmFuflF9CqBsqDVSvopq5K7CKXU1/vbZPqUAjcgGnb7T88huFKq/ehxTYSs2j43WTlxIJU+a90hmy/GYlwAbM+FUioQCCx453/5QQrIx2WRo7v5BSWnTp+xp+bkrnBMYwQiOfPtubK1z80v+qx1Bz/oqYN7LrS26/SZs5NKy6tr6u7du88iXAIuDQhXEM/y4F6qSbpLLnwWe3eXLBqNNre0agUmN7+ouaWVegQ/SnqWaheSuAUCIAACqRGAS+bI7fSZsx+vXX/v3r1oNBqJRE50nJxUWj5v/qJnz57RM80trQWFk06cOBmJRKLR6L1799at38gHdgcCgZlvz51aO/1Rby/Ff/LkyYz62QsWvkv7l7j7Ka+sOXP2XCQSOX++s6ikbNac+U+fPqVHjnzbnjexuLyy5uSp06HBvwsXLrZ8tp3ucgqlZZUdHafC4bA9Bermc/OLVq5a09fXF4lEPtn66YS8wtbtO5VSd+/eK6+YWlRStr/tQCgUikQip06fKa+s0fzGCXmFTkr6TEGOI6nvl+M2d5KUWff/P378c820+tVr1iqlwuHwh4sbKqpqe3oeSlCsw8DAwMFDhyeVlkvXlGJqwxopdOhK8mtmORZkEX6s6Vkm3UWwLJeApwj3EkUAJ5WWHz/RIUvUi7oQCARc5BpvGVcV0oCsuqbuZlfXrDnzJ+QV0tTx1NrpZGImWV5Zc+r0mUgkcvNmV1X1tLIpVXfu3tUEGUV45sJTh/sPHlRNrauqnnbl6rVIJBIKhfa3HSgqKftwcQO5hTQunJBXOH3GrO7uW5FIZH/bgbyJxYuXLONXCUoplxVcniKobpaWVZ7oOBkKhaLRaHf3rSkV1el1yZY2LLc+VHD9BrWTN7u6Vq3+mBs9SdvFV3HhQFW7rLz64sVL0Wi0r69v8ZJlTv6SFCfDVGinz5h1/fqNSCRCS5flIUB7v/iyuaWV1A6FQnu/+DK/oGTZ8pUyEQobcyGjGSNIc9+82RWJRE6eOj2ptHxG/ewnT57Q4546uOdCtl30QqG2rt6nP8ZrtjWvlX4m65K5WFMp5Z4LQuFS7D1R01IUrvtc9Xg1u7SFU9XzX6qlPgiDAAiAwFAIwCXzS092ePTMnr37yNUJBGIelJbWzl27c/OL2o/GDn3u7LxYWDyZF9TRwFG+OCcR7KuEw+H33l9cVFL23cs361r6nilQ/ydfEGpD9ra2AxPyCnfu2i1TPnDgED3CU3kuSvpMgd0h7vs5m0opT5JSPWOYFisy6ra2A5I8j9HlgINeUcvhL+smtWVxQ1dSg88pU8CPNbVH7GXSXYT2uJ+fdhH0BppfOWsSabijlait25qLJ03htxV+5FIco7+0tGF5bn7R/rYDpBuNzqWeRLKqetq9e/H9hKT2iQ796EKjCM9ceOpAb9nlTsVoNLp4ybIXniGN+0mEnMQgtbWy5zI29RRBJZYbHK7O6XXJVq9Zm19Q8mnzZ3x+qZN9XXwVFw7Xb9wsnjRF6kzojO81jKLpXZhWHowx+SLZQgrlW8Zc8F2aFZSNG90inWfPWcAvJqLRaMOyFS71QtPBMxdcBc6ePV9aVpmUPyb1d8oC13SJRSu0nqXaMxekiUuxl6oabbGhabN9k/CmzVsn5BXSMTmeSiql/JdqqQ/CIAACIDAUAnDJHOnReveKKmt3AQ/l5YApEAi898ESWm40f8Giw4e/1QYl9JaaV9CtXrNWTpppnRn7A9ydU+8lJWq6eqZALhm/49Qed7p76/vvS8sqqN/1FGEc0SaVAi0rcidp11y7snrNWn4JqpQiBXjVKOWCjVhQVPrOu+99d/mK5o+xCYzMPc2tqWT86TKa9EStlPIskzxs8j9g1fT0FGG0OCdCYylGzQH7vkp+xCVglMXjMBqDUn3h8WgwGLSTdJluMorwzIWnDjQVwNnnQGlZxa3vv2czuYxuCYvL2NRTxIamzVrdJzJSqAt8n0r+1NMzo372hLxC2qB1+sxZ2k9rT5mhyVtUI6RKmvke9fZWVU+rqKq5eu06z5LZP3Qh09TCd+7eLZtSJUVoEQaboKfr1m+cPKWKLeV08rsxFzJBYwR7Nu3NbyDgpoNnLqgKlFfWlE2pqqiqsU8ISyXdw8Ys+CkP9mxq1vTMBSnmUuyl5kY9jRdpHwG1ip5KKqX8l2qpD8IgAAIgMBQCcMnM9EKh0PIV/5LdM4W1wTqtBVqxcjXtWuEDBihRWkFHrgKdByh3eWl9FfsD7JLRih1NolTXMwV7ry8fd7pL/gwt2vEUYRzRJpUCqeROUlNb+0mg7MZiB9ieCy0F/ilH9nyRA0NRkhKh0YDRX7IrKV0OpZTPMukigjPiFPAjwmhxTtDTmeGYfgJGWTzkknyk4ewkx6dLtmz5ymFwyeg0hQsXL32weGlBUemEvEKn+Rk2nDS9n/Hx1m3NWu2uravv7X0s03EJyzdExmiBQGDe/EWaiGF2yTx18MwFVYHZcxY0bbSOsF+5arV2GJUx78aLRkulxSXzzAXpkyGXjJbr+yly/ku1ESAuggAIgEAKBOCSmaFRz1FVPY32SLC/5OQgRSKRw0faC4sna1/E6jh5ik7/6zh5avKUKj5UgxcRyQTlEFMp9ezZs3nzF5WVVzudl2UfemopODldnOc9e/fZFy7uH1z1R+deeIpIIYWr166XlVez58nKUMCJpBZN/qQ3oPYRFc/M2HMhH5dhObKX17VwCkpSCjQaoD1vWpp2JTVr+iyTLiI0ifaffkQY3SROqrPzYkHhJLlLh2+lEDDK4vGi5CMNZydJJ6AWFE7q7LyoqWEU4ZkLTx3a2g4YxbF0n+NCGptqh9BQIp4imltauQrQI3QciPt8EWtoHIIfO3aisHiybLVk/FAo1PLZ9ryJxRuaNsvrFGZo8pYnh97ex7V19RVVNXSgS0FR6UfLV8nDEmVqxjDNs82YObuvr88YgRqQ2XMW8JczqAgZQRlzIZM1RrBns7+/f8HCd3l/o6cOnrngKtDX10eHQsnVxVJDz7AxC37Kgz2bWmX0zAXp5lLspfJGPVevWastXIxGo02btnBd8FRSiqB3YS6lWouMnyAAAiCQMgG4ZGZ01GrPmjO/t/cxHd3x8dr1BUWlcizStGnLV1/t//nnn+mw6a6u7qrqafL8D1qSN/PtufMXLHrvgyW8s59Ean0Ve33SV6EV8LwrPRKJXLh4STveQ6okB6kkxTji5Dx3dXXTKRd8GENHx6nSssrSssquwQO7PZX0TIFUKiop6+g4FYlEzpw9V15ZIw9/V0r5Ick62wOr16zVZgOUUjSqJufHngt7InSFhzXapwiGriSlT+t2eBWWVMOupGZNP2VSKeUiQoozhv2IcC9RNBtcXllz5Nv2gYEBoxT/F42yeBwm+UjDEcmZs+b+1NND1Wrbpy35BSXGI0aMIjxz4akD1YvpM2ZduHDROFnhc1xIxXjm23PZW2B6niJolD93/jsvvJpgMEgQnCZ/OFkZIJIVVTXXb9yMRCJt3xykAwO5zQkGg6s/bmxvP0b1JRKJnD17vqikzP/BGJ4cTnSczC8o2ffl1496e40kpcLGMK1WmJBX+O7/vv/jj3ei0WgoFPq2/Si/OCAHYEnDR8Fg8P+3dy9eUV33Asf7pyaaRPNat829t0272qa3TdftWmlvaTAxExVFwEQMkkg0xuQScjEalIiQ0JiXENT4iIjADPNiOHfBr/PLj73PY4CZAwPfWa7FmX3O7Mdn78H9Y5/H8s1grl9veXlf1NMCtOtDy4q6EEua+dLfWgQqm80e7Tz26O49+p9CYh0SW2G/ArLcHXq5bFS1bXpUGxPHQ2JvJrZCqhEz7BPreeny8K7H9to765x9/9zje57WldXESq5pVNv6sI0AAghsRICQLFxvdnb2V7/+rV14kefV6FzEubmzHOncJV+ylvsK7Hpsr958QtITp+AS0fln1OjfbmvJIXTGqW2Oul9wz8m35TqrxCIScwiCQAJLxdzz5LNPP/sLG3namxrHSGq17UbUFXdyNqPcFt9vhc1Bg2GtoW6so7udnJ23hULhv//ykuZvQ1O/kjbkCIKgljEp15tFFeFUxn9bSxHxIyr05u+P7HrCSvrl2hRptSWSbR0wOl+0PnY+KpJODv4tapwDbF8ktiKxDqHfCxsOJc4LxUTWiGxVVTKxiIWFhT+9uOp8vD/9+S/P/+Z3+gvEsodu6wRaK/DUMz9/8ul/0zqEdpa9HWJoX9jxkOggN9DTCsi1uz9/7pcDH/+ffy1oaCuCILh9+86//+fzNhP7WLOpqRvOVWTy216hEluReIA006mAvalJYh0SW2G/Avp/x1qfPyGAOrwdz8TxkNibia2QEmOGfSJ16NnXj+95evD8v57DkVjJxFHtsPAWAQQQqIsAIVkkoz5n9tHde379m99/8snFv7e06lwkCIK7d+/te+W1vU8tP1Vs9+NP/v6FP4Y+Elf+mK3XNWl58l+LzVD+J9Cppxxpr/mWp8E6j4qOzyFxAu08VdN5sG8tlYzPQQKeAwcP7378yUd373nhDy9OTEy2H+2yzaxRUunshvw91T9RSm5oJieP+a2wOdQYkm2kkra46enpfa+8Jlfd2DDAr6Q/HhLHpBQUVYStRtR2YhGJI0qesqqPJ5ZpqB2lUUVLeuh8yELpfNH6yLaUIpI6/ZW7udjHNCcW4T9k2WlFYh30ebXyqGitjM7yE+eFqjQ1dUOfR2+DmcQi5C4F8hD5J/Y+c6S9Y3p6+g9//LPWQYuI2Zienv7r31rkMfR/+59//PDD7Zf++nfbm8vPT//LSzKefWqnL9RBc0h0WFxcfLn11Ud373n62V/ot+aRXU/semyvTrJj6q+77PfXP/vx6uiYPtT7hf968bMrIy/84UWFSmxF4gGzs3NHO4899x/PyzPc9j71rH/6ZXwdpCExrbBfATlYAlEbjahG/IYOb/+w+PGQ2JuSYUwrtMSoYZ9IrbdB0seChz6lXTs39CKC+FGtlWQDAQQQqKMAIVkdMcOzGh37/Im9z9gbe4QfRyoCCNRDQCZtOumvR5bksWkCp0+/t/vxJ/s/GtA1sUqlcua99x/Z9UTo6ZGbVlEKRgABBBBAYAMChGQbwEv6aKVSkUuz1vRInKRc2Y8AAnEChGRxOs227x8vv7Lrsb19756Rq7CWlpbu37//95bWR3Y9EXrXk2ZrH/VFAAEEEEBgWYCQrCHjwJ4Ztb6z+RtSLTJFYAcIEJJtp07uOfm2fTKknvr4uxf+GHUHxe3UfNqCAAIIILBDBAjJGtLREpLJRWhXRq7qKTcNKYxMEUDACBCSGYym35RLVX/1/G/lKqxHd+/5+XO/PPHWyWw21/RtowEIIIAAAghUBQjJqhL8RAABBBBAAAEEEEAAAQRSFyAkS52cAhFAAAEEEEAAAQQQQACBqgAhWVWCnwgggAACCCCAAAIIIIBA6gKEZKmTUyACCCCAAAIIIIAAAgggUBUgJKtK8BMBBBBAAAEEEEAAAQQQSF2AkCx1cgpEAAEEEEAAAQQQQAABBKoChGRVCX4igAACCCCAAAIIIIAAAqkLEJKlTk6BCCCAAAIIIIAAAggggEBVgJCsKsFPBBBAAAEEEEAAAQQQQCB1AUKy1MkpEAEEEEAAAQQQQAABBBCoChCSVSX4iQACCCCAAAIIIIAAAgikLkBIljo5BSKAAAIIIIAAAggggAACVQFCsqoEPxFAAAEEEEAAAQQQQACB1AUIyVInp0AEEEAAAQQQQAABBBBAoCpASFaV4CcCCCCAAAIIIIAAAgggkLoAIVnq5BSIAAIIIIAAAggggAACCFQFCMmqEvxEAAEEEEAAAQQQQAABBFIXICRLnZwCEUAAAQQQQAABBBBAAIGqACFZVYKfCCCAAAIIIIAAAggggEDqAoRkqZNTIAIIIIAAAggggAACCCBQFSAkq0rwEwEEEEAAAQQQQAABBBBIXYCQLHVyCkQAAQQQQAABBBBAAAEEqgKEZFUJfiKAAAIIIIAAAggggAACqQsQkqVOToEIIIAAAggggAACCCCAQFWAkKwqwU8EEEAAAQQQQAABBBBAIHUBQrLUySkQAQQQQAABBBBAAAEEEKgKEJJVJfiJAAIIIIAAAggggAACCKQuQEiWOjkFIoAAAggggAACCCCAAAJVAUKyqgQ/EUAAAQQQQAABBBBAAIHUBQjJUienQAQQQAABBBBAAAEEEECgKkBIVpXgJwIIIIAAAggggAACCCCQugAhWerkFIgAAggggAACCCCAAAIIVAUIyaoS/EQAAQQQQAABBBBAAAEEUhcgJEudnAIRQAABBBBAAAEEEEAAgaoAIVlVgp8IIIAAAggggAACCCCAQOoChGSpk1MgAggggAACCCCAAAIIIFAVICSrSkT8vHP33qXhK87OS8NX7t770UnkLQIIIIAAAggggAACCCCwVgFCsgSxt072tbRmrk98r8d9+91ES2vm5NunNYWN9AW+/W7i4tBw7f++uz6ZfiUpEYFQgZmZh19/893wZ1evjn0xOTlVLBZDDyMRAQQQQAABBHaIACFZZEff+/H+jZu32juPt7RmLly8dOPmLfn3yYVLLa2Z9s7jN27euvfj/cjPs6ORAvv2H2ppzdT+b//rRxpZHfJGoCaBL699fbj9DX/cnnz79MzMw5qy4CAEEEAAAQQQ2HYChGThXXrm7If+tCk05ey5/vAsSG2kQGhfxCc2sjoheT+YeZg50N4/MBiyb1OTenqXF37XUbHRsfGW1kxHV3c+n9/UFjRl4cVi8dS7Z+OH6Gcjo1u8bROTU/v2H8ocaH9AALnFu4rqIYAAAgg0lQAhWXh3xc+cnL3hWZDaSIGPPj5/oudU7f8+HrzQyOqE5L3BkEzmvqNj4yFZbyyJkGxjfuv5dC63cPjoT4tjncdOjFz9/PrE9199/e2nQ8N2yff9D7b0n3gIydbT/XwGAQQQQACBJAFCsnCh2uf6J3pOhWexkiozGAnh9u0/NDE5ZQ+WWXvoXrurpTVjp+bOLvm4PcAW4W/3DwxqSNnT2+cfoPnXuJCix4c2JAgCe4CP4FegxpRbP9zWs0njN279cDsqT+kgv6X9A4O1LwVIkCPN10UkabWfc1RNnPR1hGRSoq32pk+grUxLa6aOve9wbeW3pVKp64239Et3+r0PyuWyrfD0g5m29mN6wCcXL9m9MdvCG/ottvLrHoQxRbMLAQQQQAABBOooQEhWR0w3q4nJqcyBdg3Denr77JRUpss6nbJ7ZW6tUZYEUfp2I3N9W4pTAa29TubWN5OzRQRB4JTi7NVC17GxP3NYZ7HxG/szh6Pyj8LsHxjU4CrqsxptOlHQ+QtDumt9huqmnR5TB90lbbEBvIwcWz09OJ2Nnt4+yyhDa90m6dS57qX0vnNax+cbx09q/vfvT7e1H7syMhYEwfT0g9ZXD+phX177Wg8L3ZCTSM9fGMocaNffIXJkPp/v6OrWTpcjd5p5KBqJCCCAAAIIbFkBQrLwrtG5US0b4Vl4qRKc6NzIma3KRMqZXUkeMtXWXVFRhFegmyAVsLP80bFxGyVqJCBTPa2qm1Hse6eU2psZm2vIzjRDMru0aFl6evt07utUUbtJP+scKVAywGwvaEjsjD3bcU5Z8lb+BHD2XL8MlXw+/2Z379lz/VquzdnJTf98oMfYUEqm9VIfHYehdXASQ3tf6qMD3jpY2yAItDL+xW+2SlKxGrO1xVn20bHxzIF2+UZkDrTfvnO3o6u7pTWzpvY6zQ+CQG7Qql1pF2yvT3wv6ZcuLz9m46OPz+thmYPtpVLJz01SJian2o50PZh56PxmkL3+l7rGJV9/MNv8rZsdG1pJOdj2RRAEfmXkeDsw7Adtj2jObCCAAAIIILDtBQjJwrtY50a1bIRn4aXKnEYmnTILsRNQmWLq7Nl+2k6MNrL84szMZE5sJ7s6S/arZ+sTvy3NlBm/n09MM+Oz9fe+albJLnx62Tng/IUh7btXo1fJtMnOx+0qmZ2q+p0YNWWXtuv9MJyCHsw87Ont0/tk+IuHltGpW9RbCatGx8bbjnRNTE6Njo339PZprKWfCs1ZEnUwOENOPus0QTOM2bAzbzlMMSU3ezajjA07cnTqL9VT6pgjE7ONYpfgoaOre3JlcbvtSFf/wKDzlYlpadSuY2/26Dhsac2USv86ZTGXy0nI19KaeeW1Q0EQ/PPLr+yRlz+7GpWnpod2k2Ou49AJwjUT3bCqkhgaUDn5y5HSQfoLTXs5dLBJsC296TTB+V5o3dhAAAEEEEBgewsQkoX3r8yNbt5avgapa2VSJWejnf/k05bWzLE3e4IguHnzBzksPAsv1c54nJmKzPzOXxgK/SOxM93ROZZO4BInW1IXO5eSTM6e6+/o6taZrk5AZa9OsLymRCbIhNiZSWv14psZmWnEjrqsktkww0YvPb19wuL0VBAEqmQ71K+jGCqF/aB/sNPFulypdP5H/BStf09vX//AYE9v3+jYuCbq8X6LtDgdCTJptpUPgsBaaW7xG3bIaQ6SreRm/wZhR50ia/79A4P67XCytbvis9XcZMOyS2/2DwzajrM5O5+t8e0rr7Xp97T11YNBEIz/89rxt97WRNkoFosTk1M28dyHA4lFSFVtrzl9JA2scdHbz81xlvrUkqhdKRsyjLVPpZLy6yV0NCY2nAMQQAABBBDYZgKEZOEdKnMjudGzXAoycvXzIAiujIy1tGZ631l+TvSDBzNyWHgWq1NlaqITUJ2I2ClU6N+k5QCdjK7OdfmdnBdXS/ikcyktyJaus6h1LMRJPqKhbdSJ/ujYuC1IS/fbsqaUuoRk9g/2VlJDMp1Hat20/rWEZLZf/Kw0T4sviTpC9JjEDTn17sHMQzmxTc5tW1NIZiNAHS1aru1ETYzfcDKxi4GSmxP1SW6huxTE32th/b0xNbTs2q2SKHHOxkOyjwcv2EBrdnYum83ZFHnIYRAEl4dHbPrt23djai67bFUtnVZevoy2mfF5WsmoTzl9GvrrQnpBFiQ7urrlWyCnoY6OjducZdteABlfQ/YigAACCCCwLQUIycK7VeZGnW+cONFzSi67P3i480TPqYNtnXKq1YmeU53HTshh4VmYVJl22LBK5pfOX691UqgflZlN/HzFmYPqR3R6p/NsmUvZi4t05uSsitg5k1QmJlutrWzoaoOGZInNdHKo8W0dQ7KOru4HMw/lyisJEmShSVhUUjekKzcYkuk1Zpqtjd80AqlRQ67bkSm4dJbk5ufjp2hP6VBxxoPUwY6WGmtlLwbTczhtbjEhmV380RpKo6y8jFU9WCoZmq2UG8Wu3z6b4cZDsnw+bxfK5HTEL8a/1E5vac18P3UzCII3jp/UxL7T79cibKtqVeUPCorgf52jMrdjQyN852A/JJNPaeV1QzpFKvNg5mFHV3ff6fd1HVIHm/3dYn9JOuXyFgEEEEAAgW0sQEgW3rk6q6hlIzyLaqpOOHQKon9XdmIt+ydq+bTMaO1MvZrrqp965caqVO+NTEZ1oqbV6B8Y1PmofKj2OZxXyHKCTtokn8RmhmaSmFivkEwuG7v21TdvdvfevnO37UjXta++0T/t+52iFZOZqAYDmi4bvqHNSvpCh4R/sJ0cOzlHvQ2dQ/v5+Cka8Gh9bCdqcesLyex406yckxhtuu5yYG21nbDKHhkfksWw61dA+kLy3HhIFgTBd9cn7a8RWf6am5sfufr50OUrshQvZ0TLYYfb31hYqOlh3Laqaii/NKyJpdPDQjdsF+tCsXOkfrs13R+9uksH0rWvvuk7/f7o2HhHV/e1r76xt6LVg6WeRGUKwgYCCCCAwM4RICQL72uZG10eHvl+6saBto6W1sypd8/euHnrnb73WlozB9s6v5+6MXTpMzksPIuV1NB4TI53ZjZ2MqQH6O0WYooInZaFHu/PzHQa6qxm2BlkYkDol2WbZrejZtt+DrWk1DEkyxxol7/fywxSLrHTBZmoOaJ0mT1R01bbn6dqSCYftLGKf7CfYjMP3db87V6/0/2UrRaShV53p62Ll/FtVcPfZbPS74Ik1jEkC4Jg7PNx+506f2Eol8tJxe7cvfdWb5/u3f/6kdnZOa1z/Iatqh6pDdEUpdOUmA0J7OUeJzZE14843+jEL7X8yePsuX5ZH2s70nX+wpCcVat56kbo4NS9bCCAAAIIILBdBQjJwntWZkgPH84GQdB76kxLa+bq6BdBEIyMft7Smnn71JkgCGYezh6nEpwAAAv/SURBVMph4VlUb4fgrBHpwTL50IDHWemqcX0sPirQsnTDluJUQI+xq2c2scZtZyHCKcVWoMYMow47dKRLJ7LxG21HuqIykdn/vv2H5C6FettuuR+6Tjej4i5pnd07MTkV9VwyOzO2V1VJJk74vdaeDQ1jQrtSinNm237iWmfeocJ+JnqYHyDpLq22LvVI9eTLIh/UXfZT2l823LUHxLBrJGPjnLqskkkFRse+cEbp0c7j+18/YhMPHu68d+9HW+H4bVtVPdKBtSd56jExG5pnjKG/y56u7GQuu/TvGvKbTXMYHRvX34H6ZdRnOTpZ8RYBBBBAAIHtKkBIFt6zMk/64H8HLg4Nv35oeZXsRM+pi0PD3W+909KaOdDWcXFo+NyHA3JYeBYrz+Sx8y3Z1qmJLk1IujOt37f/kP9ZmUbrDF4OiJqbRtXKLojZyZA9XqZlUXvtkU4rnOuF5EhbYdtMJ5+1vv1sZNQnCk0ZGV2+NUvUS6aMWjFpuxNIWzTnWVUyA9Zyda7pG9qQzH4qc6BdFiUccK2JZO4EUX5zbP66V6vh5CZ5aqvjQzKn+TXWR09a03v9a60SYyeNyhTWNt+OKDlAv1ZOQGJL1EK17Za90SFZEAR37t5r7zyuLXI2zn3wUaFQdCoc+ja0K+2ItaPLpofm5idKdzuj0TlZVCpvj3E6RXtE0vV7IV83+1vL5qwD0q8VKQgggAACCGxjAUKy8M490vGmM2GKenu083h4FqQ2XmDqxs2LQ8Mx/z4dGr5x81bjK0IJ6QnIFN/O6SUCaZbZ/JfXvj5z9sOjncf37T/02oH2N7t7Px688MPtO+kJUhICCCCAAAIIbDEBQrLwDrl95+6pd8+e6DkV/+/dM+furuVEo/DCSEUAgZoFZJnFLprJclyzhGQ1N5QDEUAAAQQQQGCnCBCS7ZSepp0IbA8Bf5XMPxdue7SUViCAAAIIIIDADhEgJNshHU0zEdg+As5lS+u4XGr7WNASBBBAAAEEEGh+AUKy5u9DWoAAAggggAACCCCAAAJNK0BI1rRdR8URQAABBBBAAAEEEECg+QUIyZq/D2kBAggggAACCCCAAAIINK0AIVnTdh0VRwABBBBAAAEEEEAAgeYXICRr/j6kBQgggAACCCCAAAIIINC0Ak0TkpVKpUKhkM/nFxYWstns3Nzc7Oxs07JTcQQQQAABBBBAAAEEEEBgWUBDsoWFhXw+XygUSqVSuVxeXHlVKpWllVfdsX4Wn6OUWqlUpB7lcpmQLF6MvQgggAACCCCAAAIIINCMAs0aks3Pz7NK1owDjjojgAACCCCAAAIIIICAFZidnZ2fn89ms022SkZIZnuRbQQQQAABBBBAAAEEEGhSAUKyJu04qo0AAggggAACCCCAAALbQWCrh2RyOZlcS1YsFvX2HqySbYfRRxsQQAABBBBAAAEEENjxAk5IViwW9fYelZXXJt/ewwnJCoXCwsJCLpcjJNvxQxcABBBAAAEEEEAAAQS2g4CEZLlcbmFhoVAoNFNINjc3tx16gDYggAACCCCAAAIIIIDADhaYm5ubn59vvpBMHk22gzuOpiOAAAIIIIAAAggggMB2EJibm8tms80UkuXz+VwuR0i2HUYfbUAAAQQQQAABBBBAYMcLaEgmz4neWicuLi0t2adFF4vFQqFg7/CxtLS043sQAAQQQAABBBBAAAEEEGhWgaWlJeehZMVisVwuL668KpWK3NujEYHPzxLNpGwbkpVKJSckq1QqiflwAAIIIIAAAggggAACCCCwNQUqlYoTkuntFhcXFzUka0Tl1xCSRd10MZvNlsvlRlSOPBFAAAEEEEAAAQQQQACBFATK5fKmXEgWBMGGQjK9nKxQKKTARBEIIIAAAggggAACCCCAQCMECoWChGQpX0i2zpCsXC47l5PlcrlGuJAnAggggAACCCCAAAIIIJCCQHbltbCwoCFZeeUlZy1uiRMXnTt8lEolicrkgdHZbHZxcTEFKYpAAAEEEEAAAQQQQAABBOorEHPWor2QrBH39qhplSwIAr3Dh385md53kYWy+g4LckMAAQQQQAABBBBAAIF0BOThXnaJTO/tUVl5SUDUoMokX0vmh2SLi4vlcpmFsgZ1CdkigAACCCCAAAIIIIBAagKJS2QNPWtxbatkUecuykJZbuXF3fBTGzoUhAACCCCAAAIIIIAAAhsUqFQqEsiELpGlcNZirSGZv1Am17rpQplGZQsLCw06w3KD1nwcAQQQQAABBBBAAAEEELACS0tLifFYo5fI1hySRS2UyZOj5RTMXC7HWpntabYRQAABBBBAAAEEEEBgqwnI+lg2m9X1sUKhUCwW9SqydJbI1hmSyU0+nCvKdKFMbudPVLbVxhz1QQABBBBAAAEEEEAAARHQeCyXy2lI5sdjukTW0DMBa7q9h9RbbjMiC2V660V7n4/8yktvi18oFAjMGPQIIIAAAggggAACCCCwdQQqlYo+FVqCMX0QmayPlctl51lkDY3H1rBKppeT2ZBMFspsVCZnMGpUls1m8/l8qVQiNts6o5CaIIAAAggggAACCCCw0wQqlUqpVMrn8/JIaLs4Zs9XlHhs64Zka43KbGA2Pz8vJzRKDFrghQACCCCAAAIIIIAAAgg0WCCfz8sNLyQekZBkYeWlgYmer7gp8djaVskkkvZPX3TWyorFoqyVydVlNjDLZrPz1dccLwQQQAABBBBAAAEEEECgMQLVsGN5ZciujDknK256PLahkCzqDEa9M74fmMktJqsmP/1ULzYQQAABBBBAAAEEEEAAgfUJ/BRgVLckAJHTFG0wpicr2uvH/PMVG30VmSx6reH2Hnq+qS6UOVFZ6HKZLEXKnT903UyWzhSIDQQQQAABBBBAAAEEEECgjgJydqKGYXqaogRj/uLYZsVj61klc05f1KjM3hlfbvhRWnkVV172HFENz3RDvdhAAAEEEEAAAQQQQAABBNYnoPGFbtgwRAITCVJCF8fsLe/TWR9b/ypZYlSmy2V+bOZHaJaJbQQQQAABBBBAAAEEEECgLgISeoRGYnonD10c26x4bP2rZH5U5i+XLa68ytWXxqN29cwysY0AAggggAACCCCAAAII1EXAiT6qQcnyM8f0Vam+7JVZaa6PbXSVTD5v74xvozI9j1EbrAq64TDxFgEEEEAAAQQQQAABBBDYuIBGHLqhUYlsVGOx5Z82HtMYJ82N9dzew6+fbYYTmPmxmXIoEBsIIIAAAggggAACCCCAQL0ENOJwNmwk5gRj6S+OaVRVn5BMsnMCMz82EwLHhbcIIIAAAggggAACCCCAQCMEnBhM3vphi0ZHm7JRz5AsKjCTNodykIgAAggggAACCCCAAAIINFrAD8MkZVNiMKfQ+odkWkBUs530RuuTPwIIIIAAAggggAACCOwQASfWiHqrMctW2GhgSKbNi4IgHQEEEEAAAQQQQAABBBBITUAjlC21kUZIFtrg1NwpCAEEEEAAAQQQQAABBHaaQGgMsjUTNy0k25oc1AoBBBBAAAEEEEAAAQQQSFOAkCxNbcpCAAEEEEAAAQQQQAABBFYJEJKt4uANAggggAACCCCAAAIIIJCmACFZmtqUhQACCCCAAAIIIIAAAgisEiAkW8XBGwQQQAABBBBAAAEEEEAgTQFCsjS1KQsBBBBAAAEEEEAAAQQQWCVASLaKgzcIIIAAAggggAACCCCAQJoChGRpalMWAggggAACCCCAAAIIILBKgJBsFQdvEEAAAQQQQAABBBBAAIE0BQjJ0tSmLAQQQAABBBBAAAEEEEBglQAh2SoO3iCAAAIIIIAAAggggAACaQoQkqWpTVkIIIAAAggggAACCCCAwCoBQrJVHLxBAAEEEEAAAQQQQAABBNIUaHhItsQLAQQQQAABBBBAAAEEENgCAmkGWrWX1cCQTM0rq1+LvBBAAAEEEEAAAQQQQACBxgusDkQqGqHUHi+lcGRDQjJpqrRfncurXyVeCCCAAAIIIIAAAggggEBjBFYHH2WNSiRIkYAlhXCrliLqHJI5wZhACHJx5VXghQACCCCAAAIIIIAAAgikJSBhiIQkEp4sLi5uqcDs/wGHYcOlMrgaBgAAAABJRU5ErkJggg==;" vertex="1" parent="1">
          <mxGeometry x="301" y="313" width="589.4" height="170" as="geometry" />
        </mxCell>
        <mxCell id="TXK5YK1UMYOfHFgav4WL-2" value="" style="shape=image;verticalLabelPosition=bottom;labelBackgroundColor=default;verticalAlign=top;aspect=fixed;imageAspect=0;image=data:image/png,iVBORw0KGgoAAAANSUhEUgAAAaMAAACNCAIAAACVJoJRAAATuUlEQVR4Ae2dX2wU173HnYdIlfrQlz5Uqqr+eajUSlX70D5WRQHKv7Rpe7VgY4ODXQrG+ePEgNMGCsbXCY4hIZHIKkIm/gss4JoQb20wyY3lC1ITHJwaiHyNMbmWDVduDWZ3dndm//xux4ceT2bW65nd8fzb78oPZ2fOOb/f+Zw5X//OnDOzBZTuk5r7JOc+iUQiHo9LkiSKYiwWi0ajkUgkHA6HQqF0RXEMBEAABEwjEAqFwuFwJBKJRqOxWEwURUmS4vF4IpFgAsXEalF7BWlzQOnSYsFBEAABiwlA6SwGDnMgAAI2EIDS2QAdJkEABCwmAKWzGDjMgQAI2EAASmcDdJgEARCwmACUzmLgMAcCIGADASidDdBhEgRAwGICUDqLgcMcCICADQSgdDZAh0kQAAGLCUDpLAYOcyAAAjYQgNLZAB0mQQAELCYApbMYOMyBAAjYQABKZwN0mAQBELCYAJTOYuAwBwIgYAMBKJ0N0GESBEDAYgJQOouBwxwIgIANBKB0NkCHSRAAAYsJQOksBg5zIAACNhCA0tkAHSZBAAQsJgClsxg4zIEACNhAAEpnA3SYBAEQsJgAlM5i4DAHAiBgAwEonQ3QYRIEQMBiAlA6i4HDHAiAgA0EoHQ2QIdJEAABiwlA6SwGDnMgAAI2EIDS2QAdJkEABCwmkBdKdy9Ep4bppYu0uZN+c4JWttCy4/gDARCwh8DKFnkYbuqUh+SpYboXtkL0PK50HZ+RL0CrW2n5u/Z0KiQVBEAgA4Hl79KqFlofoFN/X1q986zSnRqmJ96VNS4DZZwCARBwCIE1c+FI4PpS6Z0HlW7kH7ThNK2CxmGGDgJuI7C6lQpP060Z8/XOa0oXHKF17YjjQAAEXExgbRv1jposdp5SutYh+hVkzm3/xh0ye4IbjiLwqw7q+MxMsfOO0r3ziXxr01G9BWdAAASyJrC6jZoGTRM7jyjdX/+HnkQ0h2gOBLxF4KkOunDLHLHzgtKNzdC6NkRzIAACHiSwrp3u3DdB7LygdIWnPdjBWcf8KAgCHiNQfAZKRxQYprUI6Lw1Z/HYQEVzciSwto3O5LzPzvUx3RN4+AEyBwJeJ7C8Odewzt1K1zpEv8R6q9ev8hwjAhT3AIFftlBHbo+LuVvpfAHcofMsgRd6aFp49J9cSlLLtS+1tOUaSclHZ6cFeqHnS2c9MLbRBBWBwtM5hXUuVrp7ITzWmhfDOzgii5pK6fgwGL8vCyKUjgPxamJ16/x/viw0z8VKd+YG3r/kAqVThmb8Ah2/b8BzKJ1XxctQu1a3UNfn/AoynHCx0h34LwOjxRBTZDaRAFM6Q9Kmsg6lUwHJ26//+ZFhgeMFXKx0W7qgdC4gsKjSKe+4CRLV96sblZ3SDU7yi5y4zi5UFabArlDP8nPzfWo05WKl+91J9ZBwRW/lm5OZlY7pUXDkUVeO309zS24heWIktSLFLHLRrO8nQXp0L4+pKjfH+2L8/rwa8oNIOI3A704a1bf5/C5WupXNUDoXEMigdEyDBifnW8GO8BCMjTSjSqfNHxyRr/jgiBwwCpKcWHacBifldH2/vJoxLchfnTaw4Y+KwMocdtVB6XB9Ly0BpiPz/1vnUkxruAApL2htjKZVrsz5x+8/kjCejUuqUtTG556m5PIHpeO4HJvIU6XD7NWxV6TSsQwxXVoJ0+pU2mzchFYZtUeUoSKbqNb3y3HcyD/kUE4Z6PFqkXAggTydvWJFwoHXotalLJROtT/OLKVjURvTwbM3ZJkLjsh6d/aGHAMutF9P2yIcsYvA7/NzRWI/dpm44TmwDErHJ5V85GiPLDsu65GhncPa/Mojg5Oyug3/36No7kGULv8vPYimWfPlXiHhEAIH8nOXyenrhEUJh1yCGdzIoHRsWUCpYtqpaxZKxyzywFA5dWW1Ec1LJ7tbxzNnaAhO2UtgRTN13lTd7zXw1cUrEvfCeBpsaRcTTLmyMysdEzt+wSoVR7nPTptBuV2On+WrCsyo9viy4/IsVUrKYR17gIytiqhWe01pOCoxl8CqvH0ajEj+QVxzaaI2EAABZxLYkLdP+BPJvx6E99M587qEVyBgIoEn3qUT+fzWJiJajjdxumFdwsSLHlXlIYEVOewZZjcxXHyfjjUgMIwfP8QUHgS8TGBVq7wTKMeP65WOiPCLOXn4Tx5Nzh8CRfjFHCbzt2doTauX/6flzzWNloKAisDqVvriQY7xnFzcCzEdEf11lNbhl61xww4EvEVgXRtdGDVB5ryjdETUPoTtdQhsQcA7BFa10slhc2TOU0rHNp38usM7Pa0K4/EVBPKHwK876JR5Muc1pSOii7doHX7o2ltTmPwZ3mgpI7CmlT64bVo0xyryyH06JZU796mkk57EbTvoHQi4jcCT7bT5LzQxqxzQ5qQ9qHQMTOdNWtGMO3eYy4OAOwisaZVf2JHLr39lVkTPKh1rduA6FZ+lNW30FO7fue3fO6Zy+UDgqQ55eBafoYCpd+W0qudxpWMNnhbo3OfUMEDbztN/nMK7ntzxTz4fxnl+tnFlszwM/3CeGv+b3vtcfq+MBZ+8UDoLOMIECICAkwlA6ZzcO/ANBEDAHAJQOnM4ohYQAAEnE4DSObl34BsIgIA5BKB05nBELSAAAk4mAKVzcu/ANxAAAXMIQOnM4YhaQAAEnEwASufk3oFvIAAC5hCA0pnDEbWAAAg4mQCUzsm9A99AAATMIQClM4cjagEBEHAyASidk3sHvoEACJhDAEpnDkfU4nAC//wnDQ7SZ59ROOxwT+HekhCA0i0JVlTqEAKhEO3aRd/5DhUUzP/95Cd0+DAlkw7xEW5YQQBKZwVl2LCFwMgIffvb8wKnFLuCAvrFLxDf2dIt9hiF0tnDHVaXmsDMjDqUUyldQQGtWrXUXqB+pxCA0jmlJ+CHuQT++McFozml5LW3m2sWtTmUAJTOoR0Dt3IhEInQ176mS+l+9KNc7KCsawhA6VzTVXBUP4HOTl0yx4K7iQn9FSOnWwlA6dzac27xO5FI3Lhxo7+/v6urKxgMXrly5Ysvvlhq57dtM6B0mMAudXc4oX4onRN6wQofYrHY8PBwX19fV1fXwMDAnTt3ltrqxMSE3+8vLS31aT6VlZWBQCAUCi2RDz//uQGl+9OflsgLVOsgAlA6B3XGErkyPj5eX1+/YcMGleCUlZW1t7dHIhHT7c7Ozr7++usqc9qvGzdu7OjoSCQSpjvw3e8aULqNG023jwodRwBK57guMdEhSZLeeecdrcQoj5SXlw8ODppodHJysqKiQmkic/rll182Pbj71rcMKN3atea0XhTFM2fO1NbW7sv2U1tb29nZGY/HzXEItSgIQOkUMLyVFARh165dXGXWr1+/c+fOI0eOtLW11dXVlZeX81M+n++9994zpfUTExNbtmxR1qwn/fzzz8/OzpriABEJAn31qwaU7nvfM8fyG2+8oaexi+Z5++23zXEItSgIQOkUMLyVPHjwIB9Uhw4dmpmZUbXv6tWr27ZtY3lKS0tVZ7P4Ojs7u3XrVlZhXV3dhQsXlFLLnWGJqqqqnp6exsZG9rW6utqsaazfb0Dm2PLrRx9l0Vx1kc2bN6vamN1XU/pC7Vzef4fSefMS6O3t5cPs7NmzCzXywYMHe/bs8fl8b7755kJ59B8/ceIEN9rX18cKXrhwoamp6dq1a9fnPkNDQ83NzcFgMJVKEdHly5d5kUuXLum3lSHnD39oWOkKCzPUp/cUV23eouwShw8f1msS+XQTgNLpRuWejIIglJWVsWHm9/sXdXxycnLRPItmEARh06ZNfGxfvXp10SJENDw8zItUVFQkc37s/m9/MyxzBQX0+OP08KEefzPliUajuYtdY2NjNBrNZAbnsiIApcsKm7ML9fX1MfkoLy+PxWLWOPvhhx9yzfL5fL29vXrs9vf3K0sNDQ3pKZUhzwsvZKN0BQXU3JyhVl2nJua2IAeDwcLCQmWjdKYLCwuDwSARsXp0mUQm3QSgdLpRuSfja6+9xkbX+fPnLfO6vr6eD+nt27eLoqjHdCKRUN7Ly/1m/Pe/n6XSrVunx99MeYqLiwcGBojo9u3bhlaffT5fRUXF7du3iWhgYKC4uDiTGZzLigCULitszi60Y8cOJjp37961zNPKykqudCdPntRv9+LFi7xgTU2N/oLanHfvZilzBQX0la/k+sY61oqjR4+KoigIQkNDA29X5kRDQ4MgCKIoHj16lOXUNg1HciQApcsRoBOL89mTlTuzlCuPFy9e1M/l5s2bXAjKy8v1F9TmPHlSVrrHHzemd489Ro89JhfRd2tRa/bREd6KqqqqqakpIuru7uZ9wc8qE4WFhd3d3UQ0NTVVVVXFTy1oAyeyJQCly5acg8vx0WWl0hUVFfGBamh33ieffMILFhUV5cJ1/35ZsI4cMaZ03/wmVVfLRU6dysU48Vb4fL6SkhI2kx0dHV1oJltRUTE6OspmrCUlJcriOfmBwukIQOnSUXH5sWeeeYYNGxZZWNMa5Vbkt956S7/RQCDAB/nWrVv1F9TmrK4mtl/kZz8zIHbFxRSP009/Sk1N2ioNHOGt4Am/3y9JkiAIypuY7Gx9fb0gCJIk+f1+np8nDFhFVn0EoHT6OLkq16FDh9iYef/99y1z/KWXXuIDdcuWLTq3SiSTyWeffZYX3LNnTy4O37snaxYRtbcbUDo2aY1ESLO32pgvvBXKRHV1Nft/c/78eRZrFxYWspWiqamp6upqZWaeNmYYuXUQgNLpgOS2LHyXSWVlJduga0ELWlpa+ED1+XwNDQ3hxX6GSxCEI0eOKEsZWsrI3KgVK3SJXXV15moMnFU2RJnetGnT5cuXiejWrVuBQGBsbIxtmVZuP1Tm9/l8Bqwiqz4CUDp9nFyVKxKJPP3002zwLHrLLBKJXL9+XWcIlgHD6OgosxgMBpuamnw+X3l5+fHjxz/++GPVA/yhUOjKlSvHjh1TTnhZWRNfXTczQ1//+iJi9+Mfk4kvUlGpleqr3+9nHB4+fJh2xqrMn4EzTmVHAEqXHTenl+rp6eEjp7OzcyF3Z2dna2pqfD5fY2PjQnn0H9+9e7fP5ysrK7t27RoTO+ZDIBBQVqLaLcz93Lt3rzJbLuneXvrGNxaROfbE6w9+QDnvVn7kKW/IQomioqKdO3cql24WyplL21E2LQEoXVosrj+YSqVeeeUVPpAaGhq0T/gPDg5u376d5clxKYDx+vTTT1ltNTU1k5OT/5qK7tu37+DBg6qYLhqNcseUieHhYbO4NzbSzp20bJn8U4fsb8MG2reP/vxn+u1v5w8uX067d5NJr3H50tqrsl1ZpM3igHo4ASgdR+G1hCAILF5jI239+vUvvvgie2vTgQMH+PSWne3p6TGl/a+++iqr8PTp09PT02NjY9PT09qatbeoPPBYO1/yzkLalEWee+45LTEcyZEAlC5HgI4uHo/Hjx07phxF2nRZWZnOp/H1NDUWi+3du5dZqaioYK+k1D63r9o+VltbK0mSnvqdnKe7u1uLN4sjOh8ZdjIKB/oGpXNgp5js0tjY2P79+7VDrqSkpKWlRRAEc+2JosgjO2ZUu4FZea/q8OHDHpA5xvDcuXML7RPW8tce2bFjB3vI39weQW1EBKXLl8vg7t27nZ2dgX9/Pvjgg6V7zUkqlert7eVTVK3SsR+1KC0tvXTpkmX7YPKlp9HOdASgdOmo4JgZBB4+fNjV1VVXV6fVsoaGhnPnzpkeTprhNerwJgEonTf7Fa0CARBQEoDSKWkgDQIg4E0CUDpv9itaBQIgoCQApVPSQBoEQMCbBKB03uxXtAoEQEBJAEqnpIE0CICANwlA6bzZr2gVCICAkgCUTkkDaRAAAW8SgNJ5s1/RKhAAASUBKJ2SBtIgAALeJACl82a/olUgAAJKAjYrnSAIqtc0Kp1DGgRAAARMIRAKhQRBiEQi0Wg0FouJoihJUjweTyQSyblPau6zqK2CtDlYYVZRYu4Tj8clSYrFYtFoNBKJQOnScsNBEAABcwmolI7LHJTOXM6oDQRAwE4CVihdKpVKJpOI6ezsZ9gGgfwmkFnp2OxT+3oxLbNMs1conZYXjoAACFhJwB6lE0WR36db9PePrcQBWyAAAp4kEA6H+YqEcjmC3adbqphOFMVYLMZWJKB0nryw0CgQcBQBrnSqhVconaO6Cc6AAAjkRMA6pWOLEmyXCYvpotGoIAiI6XLqQBQGARDQQYApXebNdNmvSBCRakudSukikUg4HNZjQEdbkAUEQAAE0hBIpVLhcDj3bcNElH7tVY/SCYKQSCTSeIdDIAACIGAGgUQiwZcjVPfpDD0gYUzpeFjHl18988PGZnQK6gABEDCZgCRJXOn4wmsWj4ItrnTaLXX8Vl0kElm6n1g2GRiqAwEQcCEBttNDe5PO6MKrXqVLuyjB9pokk0kXAoTLIAACTieQTCZ5QJdh6qpztWCR+3QspuNKxyew7FF/5ofTgcE/EAABFxJgsZQqoNNOXXNVOu2iRCKRUCkdc0UURRdihMsgAALOJSCK4kIBndG3mLBGLhjTcaVThXXS3Ed5t04QBNywc+4lA89AwG0EYrGYVub4+5qUq646A7pM9+nSKl3asI5Fdth04rbLCf6CgOMIsG0lTObSbqNTBXTmKJ1K7JSvb5IkSRXWsacmBEGIRqOSJOn3wHGw4RAIgICFBFKpVDweZ3EceyIiQ0CXxaora8r/A4LS4a/vspxfAAAAAElFTkSuQmCC;" vertex="1" parent="1">
          <mxGeometry x="90" y="220" width="208.01" height="70" as="geometry" />
        </mxCell>
        <mxCell id="TXK5YK1UMYOfHFgav4WL-3" value="" style="shape=image;verticalLabelPosition=bottom;labelBackgroundColor=default;verticalAlign=top;aspect=fixed;imageAspect=0;image=data:image/png,iVBORw0KGgoAAAANSUhEUgAAAXsAAAFRCAIAAAAaa5oMAAAgAElEQVR4Ae19f2wd1bXuSUSoCFIVIYH4IcITpWpF/kleqMpV+REJIWiSRqpoKe0fEZcQtQjl0fYP5DRVo15Vl8CjeQEj5SSRyfONCcTXUXGAGNtCVqGEYnPjGygkeoYEhZgExQmOz8yx42OfeTWrXVnZe894n3Nm5syZ+SKr3WfP2mvt/a21vr32zJxDzsM/IAAEgEBcCOTiMgQ7QAAIAAEPjIMgAAJAID4EwDjxYQ1LQAAIgHEQA0AACMSHABgnPqxhCQgAATAOYgAIAIH4EADjxIc1LAEBIADGQQwAASAQHwJgnPiwhiUgAATAOIgBIAAE4kMAjBMf1rAEBIAAGAcxAASAQHwIgHHiwxqWgAAQAOMgBoAAEIgPATBOfFjDEhAAAmAcxAAQAALxIQDGiQ9rWAICQACMgxgAAkAgPgTAOPFhDUtAAAiAcRADQAAIxIcAGCc+rGEJCAABMA5iAAgAgfgQiIpxpspe2/vev3Z6P/5Pq79/7fRe/Js3XY5v5bAEBIBA/AhExTib/uIt3FLx37Pvxo8ALAIBIBAfAlExzv/cXjHdLNzi/UtLfCuHJSAABOJHICrGqaLAoSHxQwCLQAAIxIYAGCc2qBvSUKFQ+P73vz9v3ry9e/c25AIw6YQhAMapxiHvvffe/PnzV69eXc3ghhpDK83lctUttlAo3Hnnnbl//rvzzjsLhUJDAYDJhoxAAzPOpk2b/hnJM/9/+eWXP/zww5999lnICJnU1Z1xPvjggwULFuRyuQceeKBUKpnmOHvf5s2bv/3tb7/33nsBojXWOGCcAGyzeSk9jEPs881vfvPTTz+N2pd1Z5zm5uarr7767rvvvvrqqz/55JPq1rt69er58+cHM051mvVRRD2ocXRkstbT8Iyzb98+z/PK5fKhQ4cWL16cy+U2bdoUtRfryziUvffdd98rr7wyZ86ctra26tYLxqkON4yqBYGUMA5BsHfvXuWOQ7FYbG1tXbRoEVVAV1111eOPP37u3DmGbN++ffPnz3/33Xd379597bXX5nK5efPmNTU1FYtFlvE8r1gsPvvsszfccAPpueyyyxRDnud9+OGHy5cvnzt3Lh3xHnvsMTZEDNXR0fH444/ncrlFixYdO3Zs8+bNc+fO/cY3vvH+++9LW7O2SVs+nz9x4sQNN9xw3333KQer1atXL1y48MSJE2+88Qat/bLLLnv66acnJyc9z1NOo7Qi+l9Zg+zbt09eImbX5zY1NbVnzx5GeNGiRW+88Ua5rL7KGVzjfPbZZw8//PC8efNyudyCBQueeuopBX/P8wYGBhjeq6666g9/+IPjOPp80JNwBFLFOG1tbblcbs2aNQy6Mbt+/OMfU+55nkd5ddNNN8nsUgql0dHRe++9VxFQGKejo4O4RorxEY844nvf+96cOXNIgJMnl8utW7eOJ2zT2LRp04IFCz744INyufzggw/qB6vVq1dfd911v/zlL+Vkcrnc1q1bw2WcycnJtWvXKlYWLlz4+eefKwsJYJz333//+uuvV5Tcfffd8h5zT0+PDq8fCSqm8TFRCKSEcSYnJ19//fXrr79+7ty5PT09DPGzzz77q1/96uOPP56amiqXy4ODgzfeeOMVV1zx0UcfkQzv5HfdddfRo0enpqZ27do1Z86cu+66i7fQ5ubmXC531113DQ0Nlcvlqamp3t7eyy67jB/fHD9+/Kabbpo7d24+nx8fHy+Xy0NDQ7fffnsul/v1r3/teR4xTi6Xa2pqeuedd6hEWrt27d/+9rcrr7xS2uKZ+zWU1H3xxRdzuVw+n5fyq1evpgT+4Q9/ePTo0XK5/NJLL82dO3f58uXj4+MsaXmqIoiM6b1169ZcLnf99df/6U9/mpycnJqaev/99x999NFTp06xFWoo0+arxWJx5cqVc+fOfeaZZwjw48eP33///blc7sUXX2SxNWvWXHLJJa+99trU1JTneadOnfr973/f29vLAmg0CgJ1ZpyfdHhPH/A2v3Phzx44Y/3y9NNP6yW91KmkGaXTj370o9HRURI7ffr0zTffzOcLSpXrrrvu6NGjrIcYhBmHaqvf/va30vTQ0NA111xzyy23nD17luRvuumm48ePf/755wsXLrzmmmuGhoaozbZYf0DjwIEDl156Kd+r+uSTT66++mqdSubMmfPHP/6R8pNS9MYbb1QMKVD4GfVjHEJm/vz5f/3rX/3Gcr8f43z00UdXXHHFo48+KqGjRcladePGjblc7pFHHuGDKmtGo7EQqCfj/O8DNWGlMM7Xvva1/fv3Kxodx3nqqaf4/gvt/PIBjZ5OSm4QKShliMI4mzZtmjNnjrLlkh46Ykh5UkhsVQXjbNy48dJLLz1w4B/YlUql++67T1ZtnudZUomlmA4RgWxERsGfPyqocv/+/fuV8xR/lJjLg+0tt9yya9curkBZFRoNgUA9GWfgc6/7E+9/PHPhG1jb/6sC0Ihx9u3bx8elBQsWvPvuhS+DFgqFu+++myOYG1UwjlJESAahOyOXXHLJW2+9JWcfBeOMjo5+97vf5YXIhjxYWVKJpVgw4yjISARk249xSLlcCLcl49DjyPfee+/nP/85vYiE16AlvA3Urifj/Pcp7/nBC3Sz+4PKcGPGoWF79+6dM2eOPDi89dZbl1xyyY033jgwMMDnCyXN9HRScoMOWXQ4IkPlcvnJJ5+Ud47z+Xwul9u4caNcAJ2qaD6SoWqpcehIxTkpGzLzlTXKWcm2pZgOESk5e/bsLbfcQsdDqdbYVlBlGULmN7/5DffM2iiXy6+//vqCBQtuvvnm06dPzyoPgUQhkBTGaavsAfEMhgrj0D1IeceRKvbbbrvtiy++oHsZTz755Ne//vWKapxSqfTAAw/kcrnf/e53xWJxZGTkkUceoVTn+zj0BvC8efO2b99Od4755aDm5ma+cyxPUrItWTI4ODZu3Kgf34rF4j333ENPr2i4JZWsW7cul8v97Gc/GxkZCbDrxzjlcvmxxx7L5XKLFy/+y1/+Mjk5SbfMH3vsMfs7x1S1zZs3r7m52W8ahUJhzZo1O3fuZIHh4eHbbrvN+FAsYCG4lAQEomKcu/7jQvHi9z1yrnFaD1UDhcI4nue9+eabl1566Xe+8x0KTXqEJAsBalfEOJ7n6Y9mly9ffuWVVzLjcNWj2Lr33nvphnQoNQ7VFMaNnaAgdrO/j6Ovi7mPShJlOfSRb1p7nvfpp5/ymzgsLInA79CkyNCbOKyBGvx0zG8yv/jFL5QXkaoJI4yJF4GoGOfV/zc74xw65f3f/5756b/q/umMUyqV1qxZwy+eeJ538ODBW2+9lSL4W9/6Vmtr6+bNmytlnHK5/Morr9D7gddee+3u3bs/++yzhQsXMuPQXYaOjg5Ov2uvvfbZZ5/l19hCYRw6JCqPdQg60n/PPfeQRcsap1wuyznncrlKGcfzvHPnzj3++ONXXXUVgXzrrbf++c9/5gdPNoxDL0+uWLFC4R1mHM/zjhw58uCDD15++eVkZdGiRXv27OGTcnXxg1F1QSAqxvE879iX3oHPgv4K572Jmbcr8A8IAIGsIBAh42QFQqwTCAABawTAONZQQRAIAIGaEQDj1AwhFAABIGCNABjHGioIAgEgUDMCYJyaIYQCIAAErBEA41hDBUEgAARqRgCMUzOEUAAEgIA1AmAca6ggCASAQM0IgHFqhhAKgAAQsEYAjGMNFQSBABCoGQEwTs0QQgEQAALWCIBxrKGCIBAAAjUjAMapGUIoAAJAwBoBMI41VBAEAkCgZgTAODVDCAVAAAhYIwDGsYYKgkAACNSMABinZgihAAgAAWsEwDjWUEEQCACBmhEA49QMIRQAASBgjQAYxxoqCAIBIFAzAmCcmiGEAiAABKwRAONYQwVBIAAEakYAjFMzhFAABICANQJgHGuoIAgEgEDNCIBxaoYQCoAAELBGAIxjDRUEgQAQqBkBME7NEEIBEAAC1giAcayhgiAQAAI1IwDGqRlCKAACQMAagTgYZ7JUKo5POG5xrODiDwgAgfoi4LjF4vjEZKlkzRJhCkbLOOWyVyxO1BdfWAcCQMCIQHF8IkwusdMVIeNMTU0XHBQ1QAAIJBeBglOcmpq244pwpCJknOI4qpvkhppx00NnBhGIudKJinFKpakMOg9LBgKNiECpNBVOAWOhJSrGcYvjjQg95gwEMoiAWxy34IpwRKJinIKDJ1M4UgGBxkCg4BTDoRMLLVExTgY3CiwZCDQuAhZcEY4IGKcxdqHGDWXMvCEQCIdOLLSAccA4QAAIuBZcEY4IGAfRBgSAABgH34cAAkAgRgTCKWAstKDGwf4GBIAAahyN3fsHDt5+x7IVK1cdPXY8lFtxpHDxkqWLlyx9aM3aU1+cDkVtREq6unpoqouXLG1avyEiKwlRS4tNlFMk/iEGYUIAHyuAcaJnHHZ20/oNiQpunpjeOPXF6YfWrE0I4xBld3X16PMM7jl67PiKlavy+R1+YkljHJpPwIT9FtJA/RbnoXBEEnSqalq/oS7beLiMI1dBy7n9jmX9AwdDCb6MME4oWIWopGn9hkrrmnx+Bwfz4iVLQ4yBENclVYVDJxZaEsE4lEjSqV1dPbFtKeEyDnlx1m1cOtu+DcaxxypEySoiJJ/fwfFMXks46VhwRTgiiWAcqlr96vOAGy5dXT0rVq7q6uqhWzwffnj4oTVr+U5H/8DB5St+0D9wkOsO4+nJL57k0b3Sg4yRcZrWb2hav4F2v6b1G3hdtPB8fsdDa9Z++OHhFStX0faoc24A48hNlQcSAoQSRTxBIXHwW2YAeoyn3MYXL1kqPShlGD05STmWJ+w3GaYPqZZHjRVcG/RYid7wU0uSfhGi6+EeyThjBZfWJSdMEUIgMDfx8OCrLBZiIxw6sdCSIMaR/jBCqTueuOahNWsH3htcsXLV/T/5aT6/g53NKU0RT17k6GcTulqKYN6U/AayBr1BQ5QV/Z1llq/4wb/94d9p2vf/5Kd/fvMtvi/D2Uh5SzEqc3is4Poxjiz7adVkmliDDd3/k582rd9A1umgl8/v8Fsmo0eqdBBIQJkhQZHP7+B+EpOwG8GRGBqXSaOYKxW1hB6vxYieNMHtALXsEUmOi5csVdzKqmSDg5A6lfnQ5FmPdB/TEyN29Njxzf/nGak8irYFV4QjkgjGoQib9birUwNvHTJuOIuUoCQe0fcTXa2eEjJLbfytaxgruE3rN1BK8LRp4ZRFFN+cqMasM3bSMnmgXCYjQANp7Rz9+iTlMnksr1cBSrfLkkpDySjdriJvXKaSw8quoKA3qwm2GKyWxJSF89iAhlRLk5GBpyiUszWuPcBQWJfCoRMLLYlgHEKNMoH2E6Z/CajiJ9oNKIfJZ7QtKIwjU1FmFGsOUMsy9tlFQ2QMsRI2xDlP4cWMI4OSGIq3dFJiDEcZ3CTGy+RpS0NsncV4hiw/VnBlmwR4/vRRF2A9SkOZoREcOURfppw/S8oJVGqClMyqlsSUhfMEAhpKfcQFy1jB1Zcv1ysXFaA/9EsWXBGOSIIYh0Ak9I3vyOiO55wJl3GUcOGiWpJXsMv1qJIMwjkvI17JGSnPtmRocqe8B8FTJSLm8JWG2HrwMnmsNCQZUBdgSVo+T2bxkqWSTI3g8Fjj4dG4cJoAbU4KerOaIHOzqiUxPfDkbI1tng+Z4OMeU7kEh9rEShzSRrXRdYZDJxZaEsc4hKlSJFOn7nh2D0VYdDVOpZ42RjzPn3NeEgHHKNtiee4xZog+kOWZFKQhts7osbxs8FjuVOajC5AkrV1ykzJDIzhspVLGoW2gUhNkzoinvi5l4XKqfm05H1LIZU7w8nXrfibC7bfginBEssU4xtDRO2v3ujGq2BDnvCQCGaPG2tuYivJoqYcgL0QaYut8VR/IW7Es63j+JG9cI9/4lAOVpRnzXM7BKKAokberlLYfetIEt4PVkpiycB4b0FDU8i08PyeyKkKV6Yn7o26EQycWWhLBOPLRBoeL3CQJbt3xvEtLP/ndx+FMU5ynq5V3eRVhy4/GbGRDPBNJBHqMypMI2TWmInXqwpI1pCG2HrxMnY94/nIyul0ayDlDhz5FTGagDqlxmdLFvDS+36egZ8RfN8TBxrOlybNaGqIs3KhH6VTmo2BCLlCssAYq8PkqP6viUbQ6SpBgJFnnrA0LrghHJBGMQ6EvT7YMN21f8hK1ScCGcXisPEsHqyX3KLc5dAY0elG/q8J2OXA55yURBJvT1Qa8/yLfSLr9jmVdXT3SEFsPXuasjMPpyghzXUMm2FNK+vE+zwPZ3cHLpEzjUWyulhonYBXsX3Yc98za0JesUAPBy2vhICHNEkAma+rM53eAcQzkN6tLYhDQcyYGo1Wb0GO0alUYCAQqRcCQw9F0JaXGqRQgG3kwjg1KkAEC+O54OL9XAsZBLgEBSwSiKWgMWlHjhMNuln4NEMOpKgAcXIoaAQM3RNOVZsaJ2knQDwRSg0A09GLQCsZJSo2TmtjFQhoRAQM3RNMFxgHjAAEggF8d1X51tBH3DcwZCDQKAtEUNAatqHGwvwEBIIAaBzUOEAACMSJgqEai6UKNg/0NCAAB1DgFt1Aojs38r+s4mfgrfLWh0aob5fCf1nk2SuyFGDPRFDQGrQmtcbJDNDqfUhilNZmTv65GjL3aY8bADdF0JY5xCgVHT8IM9hQKTvKTM2UzbPTYqyVmoqEXg9ZkMU4jbi/RsWHtG1fKGCHS5aQj9qqOGQM3RNOVIMZJh8vDJaCqAyjS5Eyf8jTFXnUxEw29GLQmhXHS5HKQTmNRUvpirwrSMXBDNF1gnKQ/CKsiehor4es+WzBO5n4fp+Dz/PvE8Mn89tYtzdu2NG9r7+iUtUP/wCD1b2ne1j8wyJe6e/uo/7mtLYePDHF/e0cny29p3tbd28eX/Bp+JkieriqzMqoKWAXPKr+99cTwSeNwx3ELDl4YiQoBv9g7fGToua0txljyc1Nwf3tHZ7CXg4dXerVSHo+moDFoTUSN47fJtHd0EptQ0jJNHD4ylN/eSoTSPzDI5HL4yNDul/aOjJxxHLe7t086uL2jk4fbOM/PBI2l+bTsbLNhHL9V9A8M8vD2js7WXXto5vr0UOZUmj/28n6xJ73Q3dsX4B0pGdCOmXEqjRkDN0TTlQjGCfATX5Jeb+/o5FwdGTnTumsPf2R5IgUufyplnGAT3b19pFC3yxMwNuQqpIAkONnPbfsUgmRFCDDCAY3+gUG5ewVIJupSRThEQy8GrQlhnNnfweFcVaiETjf6FqSIVcQ4yljFBLMD8U5FQcarUEaxTqX/nx/xbk5Upypn5t8s9/Lk9uMnrNTUFEJUVvNJX6ct/eSuRwLtqbR3UpvvD/CGappVZTFj4IZouhLBOLNWttJ/J4ZPtuxsoyMVHUbePtCv+1KJAL5jsqV5m05PisOCTTB5Vco4chWKRZyqKtqQQxQOiD2mg1kDxnFcfZdSYlIvlJQbAs9tbekfGJSxR0Eie2y4j0bhVBW0R826z8gzMDmA/Ed7SP/AoBITdNvPeOOGdglFXsn/ABMybiplHLkKaZEiO8T9KsSETL2qWWPPcVxJDdJxSlvSAW9LLCMjhzoVGRrOFQ0TDTccx/ULIbYiGqhx/L96L2Ay1LftHZ18b5g3E9mjHFWIbgLusEjf09aklKnUqZsYHv68ddcepgaFcYKfbiir4CUT3RjJkWUcPKvyD54aOVGC7NcmFpjVR4ePDLXsbDsxfFJyBOuUUec4rnI+ogikoCUm6h8YbNnZ1t3bx2pJFVfrwbtmpTETzRHKoDXpp6ru3j6Z+Qy6JBS5VxBZyKvscm4oBy7ulw25X9HeQr7nJ6ZMUsrjeamE28ZVOI4bUIvx2Jmn45HlW43pmoLhAacqdgHXHdxjbLCYfArJkgrjcFCxADe6e/u6e/te3ref9Lx9oF8nF7IVEOeVxoyBG6LpSgTjjPn8JIXfcUP2y4qX3KC7h31pn+R+JqQqpcaRl2RbqpL9NuRI8ilI7CQvQTrF2LbZomggcQS/DyG16YwjQ1eRpMevIyNnXt63/9X9PUZmUTZFqaHSAidzbwAafwdHOe9QTcEnGkrjLc3bZAXEDwW4ACH2ISaiTimvOEn5aDQhZWwYJ2AVXB7zbI2BVelmleTcTubcjGWOjKXgPUyGBLlbysvY0yOQY4wuUXjLypcE6ECnqJJW5ByqK4qjKWgMWpNS4/iVOQqUGfyYzCxN2axSFldVeMfADdF0JYhx/N43T1k0VLQcfL+hiuSpYkiaYq+6mImGXgxaE8Q4xrNVRfmZMmGcp6rgjqqHGM9WDRdRVceMgRui6UoW44B0OMSrDp2qUw4DG510aomZaOjFoDVxjDNDOk6x0X//kYmjukbBmflVefzFj0Djxl6NMWPghmi6ksg4RDpf3XKf/Tsv1aV0MkcRz8afZrAoESg4xQaKvbBiJhp6MWhNKOPICEAbCACBqBEwcEM0XWAcHF6AABDAfyEPdzGAABCIEYFoChqD1qhqHNcdj7oOhH4gAARCQcB1xw3cEE1XVIwzPnE+FCygBAgAgagRGJ84Hw29GLRGxTjT09NRwwT9QAAIhILA9PS0gRui6YqKcTzPQ5kTSjRACRCIFIGJGAscz/MiZJxy2avuKx6R4gvlQAAIMAIFpxhNKeOrNULGIZvF8QleHhpAAAgkB4FiccKXGCK7EDnjeJ43WSoVxyccF2/u470PIFB/BBy3WByfmCyVImOVIMVxME6QfVwDAkAgSwiAcbLkbawVCNQbATBOvT0A+0AgSwiAcbLkbawVCNQbATBOvT0A+0AgSwiAcbLkbawVCNQbATBOvT0A+0AgSwiAcbLkbawVCNQbATBOvT0A+0AgSwiAcbLkbawVCNQbATBOvT0A+0AgSwiAcbLkbawVCNQbATBOvT0A+0AgSwiAcbLkbawVCNQbATBOvT0A+0AgSwjUgXEmSt7YhPdl0Rtx8QcEgECdEfiyOJOPE3H9Wk6sjFP2ZtYGogECQCCBCIxNeOXoq634GGdy2juDogYIAIEEI3C26JUi/s86xMc4qG4SuK1hSkBAQWAs4t8+jolxzk/hMAUEgEBjIHB+KsLDVUyMMzreGFgrfI+PQCCDCIxG+d8EjolxzuLJVIJP7xlMKiw5AIGzUf43rGJinIDl4RIQAAJJQyC6YxUYB8c9IAAEVATAOCoiSdsTMB8gkCYEwDhgHCAABOJDAIwTH9Zp2qmwFiBQHQJgHDAOEAAC8SEAxokPa5s9Yd1r3uq93rGzkc+q52PvnlZv1W7v0KnIbdksHDIZQQCMU0G+UZa+cKiCIZWGUYiM88SbQYQSP+MEz6dSoCDfoAhki3EOnZpJwmXPX/RnX1OkiXHij9fQGUf35rrX/rEZvHDoIhezx+9p9Xo+9p5403yVKj7yMg+hBmuOH7eUWcwW47DzXjg0c6bo+biyagWMwwBW0YiIcZ548yKWUajh2NmZU6rSyZMnzmIN3E+N0Ces6M/mRzDOBdJ54s2Z6Hzn+IU6iGNx3WvmXZFOWBy4cmuVhy+5G+tMp2y5XHPpBKefueRYmq20JTdqvmUj93C2JaNfCvCoEXeGoFftnvlfRsM4XKoacWfuE+l15bLnZzrlLSTWuez5mRpEUWL8yLDTVSIXRS0YxwhdHTvBOBeCm7KXGYHoQxKHTgHkOU4qDvcn3rxQQ5EeziKywmrXvXZR7klO0c3Jq5RLPNsR13vmnYuqtlm3aKmNQ1CfHptgJpLU5lc+sEJu+M2H0GPyIis2ao2Mw3rILhiH8U9IA4yjMg5zgRLQtMnf0+qxALtQyRkpqUc89VBiBHNK8NVZD4Z+Gc7T1hlHXzL1UP7rXKBrYOV6w28+er/ka10P9yizJa5kZicxHX8ezvWXMoQF9InxJTSqRgCMcxHjcJFiDEedAgh3mZaKJ2iIEtMcytzgUTKHdXPyqmzzcNnQlcurI+7M4UipCPSyTooFz0dRrn80zkfyLw/RDfEl2SDY+eTItZiUAeNINJLQBuPEwThKWcR7uJ6EkgX0xOOrwYlEgaUrVwKOtXG/sW7ic1/AfFhDQMM4H+NCyJBC07pmWeMQV+pnMaN+ViU1cCc3jBPmq2hUhwAYpz6MQ8WUHtOSBYIzXEoafa8rV8R0DX6MY3MGVJTrH43zMTKCvnBdm16Ernvtwr0zljfq56tgHIYitgYYpwLG8QtQ6tc32BF35u1h5ems7FEynDKNTzpK4pEVvsqFkl+sKMp1MZ1x9AXKHmU+8sClK9d7/OajM5Heo2vTGYemp3hBoq0rkavTr1pOQx+IngAEwDgVMA6Fr7zXQ8hS4CqxzqArN0ckU8iB1L5/z4V7K/rVZc+rV+VklGdVxgzkWfnxhZweybCJGhnHbz5ymXzTfdYjlc44NFvlbg4YR3o8Ce1sMQ4FN99rpIasGji7jAHNnayBbtAoOaP7lUiHRkkTnGDLnv/HiYDeCeLvVVGW0sAXDs28qMKz5QKKJ6NnqdEuPdPhUdSQY6WANFcj44y4M4/52K7EQfGLcttLx5N6aJScuU5qVTCOxJxn67ed+M0N/X4IZItx/FBAPxAAAvEgAMa5cKqKB3FYAQJZRgCMA8YBAkAgPgTAOPFhneWdDWsHAoQAGAeMAwSAQHwIgHHiwxq7HBAAAmAcMA4QAALxIQDGiQ9r7G9AAAiAccA4QAAIxIcAGCc+rLG/AQEgAMYB4wABIBAfAmCc+LDG/gYEgAAYx/vSnRp1zo854wWn6Dhuuv8KTnHMGR91zn/pTiH6Y0OgoWMs3JjJNOOccabGMsAyfhw65hTPOOCdaIvclMVY7TGTUcY543qjznm/VMxU/6hzPratPlOGUhxjtcRMFhnnjDOd5dJG59OvNq7pTNFB1ItNfYxVHTPZYxynfM6Z0LMu4z3nnIkRpxx1HmZFfzZirPa8YmUAABY1SURBVLqYyRzjfOmWMk4ufsv/0i1lhRHcaO/dZCfGqoiZjDGOUzaep04Mn8xvb93SvG1L87b2jk6Zk/0Dg9S/pXlb/8AgX+ru7aP+57a2HD4yxP3tHZ0sv6V5W3dvH1/ya/iZIHm6qszKqCpgFTyr/PbWE8MnjcPHnCLKnBA41yfGHMcdGTnTumuPEjCHjww9t7WFYybAQUav6Z3tHZ21K9HVGnuqiJlsMc6X7pQRuPaOTmITSlqmicNHhvLbW4lQ+gcGOVYOHxna/dLekZEzjuN29/ZJB7d3dPJwoy2l088EidF8Wna22TCO3yr6BwZ5eHtHZ+uuPTRzZSaO457FI/Oayx+/GCNHv7q/h6OI8D98ZKhlZ5vfNqD7aNaeOBmnipjJFuPYPJ/q7u3jnGzv6ORcpQ2KP7LjiRS4/KmUcYJNdPf2kULdLk/A2JCrkAKS4GQ/tWt5BhFCdVBztidhDsYYGxk5097ReWL4pNy3CPPQGUd3a6Q9lcZMthin4IzPij7nqkIldLphMmI9ilhFjKOMVUwwOxDvsEWbBq9CEWadSj99LDjjSUjahp5DcIzVzjhKTU0hRGU1n/Rl0U2e1U/ueiTQnkp7J7X5rMcbqh42lcZMthhHx0vpkf47MXyyZWcbHanoMPL2gX7dl0oE8B2TLc3bdHrSzQWYYPKqlHHkKhSLwaeqmXsNqSg06rgKBXDlo5Fx5H2cgNwmVfoupcRk/8Cg3sNHObpt1D8wKMObNctotC+rK0I7S4zjlAuzfYlBnoHJJeQ/2kP6BwYVEiH/GW/c0C6hyCvxF2BCxk2ljCNXIS3SRhcQ0wXHxc3jivJHFZ4txnTGqchBJCxP4rwtsR4ZOSwvQ5SGc0XD1MMNx3H9QoitcKPSmMkS47gew2RstHd08lbgOC5tJrJHOaoQ3QRsBdL3pE0pU/1MDA9/3rprD1ODwjjy6YacHi1KWQWvlOhGRh5fkg01hVDyVIiABFNvBzMOscCsPuJbP5Ij2JaMOn5AxoFHDQpaYqv+gcGWnW3dvX2sllRxtR68a1ZaF2eLcQLO2N29fcbslYQi9xMiC3mVXc4N5cDF/bIh9yvaW8j3stLmcGEOkhpk27gKx3EDajE5vNIzOehJRyAgxhzHDWYcCqpZGYfLE/kUkv2oMA4HFQtwo7u3r7u37+V9+0nP2wf6dXIhWwFxXmnMZItxjM8RKA6U123IK/IYImOF3KC7h31pn+R+JqQqpcaRl2RbqpL9NuRI8pU+d9DzDT1+MUYIyyiSPqK2/VmGOILfh5CqdMbxM0p3Cdo7OkdGzry8b/+r+3uMzKJsitKW47iVxky2GOes6X0cSkiuI6jB1QSl8ZbmbbIC4ocCPIrYh5iIOqW84iTlo9GElLFhnIBVcHnMszUGVhXvVoBfdASMMUaFBuNPDYox9r7+9qmMAaVN7pZ7now9PQKlFd5cZeVLAlReKaqkFWUaVcRMthhnxP99UB3KrPVU8f6onm/oyVSMVREzGWMc1/PbgrLGL/p6z+K3ciq8SexHr9mJsSpiJnOMM+J651z8Mo76U4fnXPxKTphf78xCjFUXM1lknK/q3tlfPtargLT2jDnjeA3Hr2Cpsn/m/J7mGKs6ZjLJOK43MvMLJmkOCHtyrO5XTqrMw5COLY1hPb0xVkvMZJVxvgr9Ubc0VlDPF/a52uiSBac4it/EiZgEUxZjtcdMphlnxPXOFL1Rt3SukK1651xhfNQtnYk42RqjEokehHTEWFgxk3XGQVYAASAQJwJgnDCfUMTpOdgCAo2IABgHjAMEgEB8CDQ844yOxwdWI24pmDMQSA4Co+PREY6Xi1C3UO2cB+MAASDQGAg450Xqht2MiXFK042BdXL2GcwECNQLganpsGlG6IuJcTzPQ5lTrwCCXSBgj0CkBY7nxXWq8jyv7Hl4tcTe8ZAEAvEjcLY4k6eR/ouvxiHSGZvA8QoIAIEkIjA2ETndxFrjMHFOlLyxCe/LYhJBj39XgUUgUF8EvizO5ONEiRM02kasNU60S4F2IAAEEo8AGCfxLsIEgUCKEADjpMiZWAoQSDwCYJzEuwgTBAIpQgCMkyJnYilAIPEIgHES7yJMEAikCAEwToqciaUAgcQjAMZJvIswQSCQIgTAOClyJpYCBBKPABgn8S7CBIFAihAA46TImVgKEEg8AmCcxLsIEwQCKUIAjJMiZ2IpQCDxCIBxEu8iTBAIpAgBME6KnImlAIHEIxAH40yWSsXxCcctjhVc/AEBIFBfBBy3WByfmCzF9Ys4F5NgtIxTLnvF4kR98YV1IAAEjAgUxycuZoM4PkXIOFNT0wUHRQ0QAALJRaDgFKci/U83aCQWIeMUx1HdJDfUjJseOjOIQMyVTlSMUypNZdB5WDIQaEQESqUprRaJqiMqxnGL440IPeYMBDKIgFuM8r/7ezF3RcU4BQdPpnCkAgKNgUDBKV5MCxF+iopxMrhRYMlAoHERiJBjLlYNxmmMXahxQxkzbwgELqaFCD+BccA4QAAIuBFyzMWqwTiINiAABMA4+D4EEAACMSJwcSES4SfUONjfgAAQQI1TLbt3dfXcfsey/oGDDXG7LmCS/QMHb79jWVdXj5Tp6upZvGTpQ2vWnvritOxHOzUIGP0ew+oirGouVp22Gic2xmlavyHSzDdGXjoY5+ix4ytWrsrnd8SQSA1nwuj3GFZxMS1E+CkRjJPP71ixctXRY8cZ2apxTzfjMD4xNIjdFi9Zyn9hcURdGKdp/QZeSNP6DQqAflcpDqtbOI0lo/Z1d9WRr6yo0o8RcszFqsE4VZ7h61LjVBpGtcgr3B1ieRUz45z64vRDa9bKLa2rq4dJhCbD5SolvPKRhe3xJLh44KkvTjet3yD3VD9VYJyLCcr6kx+gxv7gGief3/HQmrUffnh4xcpVtGOwI0mb3EwWL1mq7Cf5/A7e3ORAzije32RQjhVcOZB3RcUWa+YYHSu4sjqQOim4KdxpoLw6VnBJgHUuXrKU7+NInTwZXv7yFT/oHzjIC5GTGSu4+pwViIxOYXz4KgHCU5JqlYX4oSchlctU/CIvLV6ylJQzT0koeDJjBZeYhcbKBZK8lOQV0TylMLuP5GmNcnpyrF+bZqJ4QReWaLAJstjV1ePnTV1PKD3WmV2rYAPUOOQYDgslgPSPLDlWcJvWb+BkUKKHA5cSWImSfH6H1JPP71BC1q/G6R84+G9/+HcKAmV3ZUIxWlSmx5En44kU6oxz+x3LFi9ZSlFLVlhGqlXmIzXrbZ1xJNQK+zSt36DApXyU6DF3GI0yz5IY5y2jxw6VPlJWLS/RtDmlpVEjnlKVRE8ODG7PijMJSIj+o+0FetxBFhcvWUoepMkYJx88h0qv1kok1uMbhnE4ZKUP9IiReaInrSym9ECUV/0IhR05qwBJyiylmXMK0QbL+aMo1CfP2zizCZkgSdkpVclFKRs4r8XYkEiSAKexdAFdoh6eg5yArlwfzjLKQLbIBaBET0KkLFMGBrX14perPyWfSZ4MkQlFgGcb0CC/M3Eokjq2LBDsTRYLvWHNGLUKNgbjcFpy5FEQyJgjH0hfKlFI+cYbi+QC3X+0h8v4VmSU3FCu8kc5Qz3TeIb6JTmQtclE4k5dUs5NVnkKAqzB2JBIMlUR7EbopNFg9PTF0gRkqlMP48N+Z1KTczbCIufD86czFzMIQccf9WkYBaTpgDbNiizKAKbS2y+0gr0ZYK7GS7USifX4NDMOn4TlfQFLxlFiVA90JaClv3W7VKDpmcYZpV/SIy+4xuEaUAlomTN6SstpK23epY13RhhGHqVTG8OuoKcvlpVILiMxHqt85CFMRmyOG3pWMwvIEoZNkE6JkkRPWqyozUiSj0i/YpQV6n4PiDQeVXvDmjFqFUwz43A+G/0hg9sowJ3EIEqI+MWBckdDBpCeaTxD/ZIcyDMxBqsuKefG4U55qCchK1caSo0jrxovSaNSWEdPXyzLU3HElCExD2AcIyysU2/wTSijTtlJ2CpFkK5w1h7SyeD7YcUHPb/9Y1ZDVQvUSiTW45PCOMqeKWOa05LQJOdREMg2lwCsSirRPWHPOErVQKqUWcm5yTyRdKDMVt7H0XOGElVGHi9Q6g+OUV2tjoNfTwB6+kL0HqlWSTC/WQUroavK2tmKYoL7jQ1mHOXZAgnLm0cRMY40ocxQBgxdqmhpijb7j9aMUatgIhhHCSblo5LbSlzKYr5p/Ya/PyemR8Wcn8oRmn0QwDjK2xPKfEgDDVd2P8oltsj1BRGHMnPJOMpj2nx+x/IVP9C/5WDM1eAYrTpeAxhHma2StzboKZUgQWpcHfvL6AW+SiAY+Uh5zkh6uNyggcpH1kNXFS+zUb/G0WPHm9ZvkN9EkRzHx0COk7GCqzyrkjsNe5BDTi7BiKTfxAL6ayUS6/GJYBz2AZfT0sfBjENhSgP/nqj9AweZcQhf5a4KB1MA4wTPh90mjwAcshQNfIT585tvMXHQpYCl8VTpbbEVK1dx5PElhoifIgczjpwPj2W1vBa9Ecw4RDqskJdPehSjcskkIL3Gz/W5XmO18gET6WT36RNWjDI+RIhSpzIfZaC8StjKsXK2+hy4RxkoycUGAekgMI4VmzH0aNQRAcolhQ7C2hVDXxdlqeQUIiY9XUM3rVdtUZhIsk6rrA5DKCk1TpKd0bhzoxyWm3aSU8tYdcpTc6SOkDXUqS9Or/tfv0zBLxDYIxYGmVjpAONU+b0qe1/WUVKvcYiDlKqnjjOUpvUahzhIVj1SPvQ2TYDOULEZDX0V1Sm0YoswhMA4aWYc/YaU5W2I6qK29lEy5ynz5R2N2vVDgx8CYZCJlQ4wTsoZxy/C0A8EJAJWbBGGEBgHjAMEgAB+dbTaXx2VtI02EAAClgiEUb5Y6UCNg/0NCAAB1DiocYAAEIgRAav6JAwh1DjY34AAEECNEyO7Wx50IQYEUoxAGOWLlY7k1jiFQnGs4BYKruNk4q/wFcnSqlMc2YlaWqPHWIgxY8UWYQgllHGyQzQ6n1IYJSozUzmZNMVY7TETBplY6Ugc4xQKjp6EGewpFJxU5nkSFpXWGKslZqzYIgyhZDFOmrad2lmy9o0rCemdtDmkO8aqjpkwyMRKR4IYJ92hUB0BVR1AScvzhMwnCzFWXcxYsUUYQklhnCyEAkinvryTnRirgnTCIBMrHWCcpD8IqyJ66pvYibUOxglwjRVbhCGUCMYp+Dz/PjF8Mr+9dUvzti3N29o7OmWN0D8wSP1bmrf1Dwzype7ePup/bmvL4SND3N/e0cnyW5q3dff28SW/hp8JkqeryqyMqnhKW5q3te7aMzJyhsWCTbBYwcErarUi4BdjjuOOjJxp3bVHCRgCn3xnEy3sLL9Ge0dnfnvrieGTfgLh9geQi/FSGGRipSMZjOPz0k17RyexCVEPO/7wkaH89lYilP6BQY6Vw0eGdr+0l1K6u7dPOri9o5OH27jWzwSNpfm07GyzYRw2R5HN0wg2waMcZ+alJGOUoNMeAb8Ch7zw6v4ejiJCnpz18r79+e2t7DLplErbMTNOpTFjxRZhCCWCcWyc193bxwVCe0cnpzpFBn9kVUQKXP5UyjjBJrp7+0ihbpcnYGxItbLttwpWYp9akDQiwEjKxsjImfaOzhPDJ+W+RQLdvX39A4PKVifHJr9txMGvMwwysdKREMaZ/R0cZhyFSuhgwmTEcaCIVcQ4yljFBNcmxDtscdaGVCvbjuMqJjRVeDen1irPmfnne89OZxwSJjfZ1DhKTS0H8rFaFt2kXz9Wc3TxbGk3or2T2nx/gDdUFhaNymLGii3CEEoE4/hVvAyf9N+J4ZMtO9voSNXe0dm6a8/bB/p1XyoRIO/j6PTEhqgRbILJy55x2DrHbrAJZT6VVsh++1iW+4NjrHbG0bcQJSb7Bwb1Hj7KHT4y9NzWFqqqOLyN0WhZVlcaM2GQiZWORDBO8P7jOK48A1Oukv8ogfsHBhUSIf9xessEpl1CkZcCjuMGmJBxY884rJ8ocmTkTIAJFhaNyvarLDOL39qDY6x2xqEoZTrgbYmdKCOHOhUZOmVzRcN7EjeURGDNPo3KYsaKLcIQSgjj+Ja7hDJvBUQH+e2tsocPXAQ90Q37XveH9D1tTUqZSp26ieHhz1t37eFSVmEcsmt8UsZz4JrZz4R8ksWjHDyrqvneuQRTb4fCOIePDLXsbDsxfFJyBNuSUccPyDjwqEFBS0zUPzDYsrOtu7eP1ZIqrpeDd81KYyYMMrHSkQjGCah4u3v7ZOYz6JJQ5F5BmSyvssu5oRy4uF825G1dYj3y/XNbW5QoUR7PSyV6W0aP0YQ+BM+q/MqWivoDYozuo+lhxtubsVjWPcXlSf/AoB6BCuNwUOl6unv7unv7Xt63n/S8faBfJxeypVthbThVzXLnj5GSDbqvxjUFX5L9cneyOTEFHLhYP9/KJdPShJRRahx5ydhWosRvFfrYilILwn4I6MByj5+LaQOzZBwKG9pIjEEbcB+HZ0JKWnftae/oHBk58/K+/a/u7zEyi7JjSQ2VFjhjhez9Ipe+BZGzlYKCHck3+eXWxA8FeBRtDpTq1CnlFScpH40mpIwN40jT+puHs5pAgeNHH1X06zFGhQZHCzV4m1H6jWkv44FrIlmSKAGwpXmbjEAOAGlabookQJSnqJJWlGlUWuBkkXHGfF4CVKDM4McqUgtD/BDISPz4LT+g3+oeTBhCibiPQ0AEvIeekUDRl4nvNwQkSRWXshBj1cVMGGRipSNBjJOp3xjVyUXvqaI2riIJszbEeLbSwW/QnqpjxootwhBKFuOAdDjQqw6drDFIFetNK+nUEjNhkImVjsQxzgzpOMW0/i4kE0pwo+DM/Ko8/qJDIH0xVmPMWLFFGEJJZBwina8e0wR9FyY4aRvxKvFsdGkGzRKBglNMQYyFFTNhkImVjoQyjowMtIEAEIgaASu2CEMIjIPDCxAAAtl7AzBqCod+IAAEAhAIo3yx0hFVjeO64wHLwyUgAASSg4DrjluxRRhCUTHO+MT55ACKmQABIBCAwPjE+TDIxEpHVIwzPT0dsEJcAgJAIDkITE9PW7FFGEJRMY7neShzkhNSmAkQ8ENgIsYCx/O8CBmnXPaq+4qHHzToBwJAIFwECk4xjMKlAh0RMg7Nojg+ES5G0AYEgEAoCBSLExVQRUiikTOO53mTpVJxfMJx8eY+3vsAAvVHwHGLxfGJyVIpJA6pTE0cjFPZjCANBIBAehEA46TXt1gZEEgeAmCc5PkEMwIC6UUAjJNe32JlQCB5CIBxkucTzAgIpBcBME56fYuVAYHkIQDGSZ5PMCMgkF4EwDjp9S1WBgSShwAYJ3k+wYyAQHoRAOOk17dYGRBIHgJgnOT5BDMCAulFAIyTXt9iZUAgeQiAcZLnE8wICKQXATBOen2LlQGB5CEAxkmeTzAjIJBeBMA46fUtVgYEkocAGCd5PsGMgEB6EQDjpNe3WBkQSB4CYJzk+QQzAgLpRQCMk17fYmVAIHkIgHGS5xPMCAikFwEwTnp9i5UBgeQhAMZJnk8wIyCQXgTAOOn1LVYGBJKHwP8HrVTWXTqCP9sAAAAASUVORK5CYII=;" vertex="1" parent="1">
          <mxGeometry x="104.04" y="300" width="179.94" height="160" as="geometry" />
        </mxCell>
        <mxCell id="TXK5YK1UMYOfHFgav4WL-4" value="" style="shape=image;verticalLabelPosition=bottom;labelBackgroundColor=default;verticalAlign=top;aspect=fixed;imageAspect=0;image=data:image/png,iVBORw0KGgoAAAANSUhEUgAAAXkAAAEeCAIAAADgkPKIAAAfYklEQVR4Ae2dfWwU553HJ6vSP4wSuahCaaOAhFoFpVJlBLm0KpBICCkJKNK1TSMhnasDolZCNFekIIi5a+5SVYTjOCc0YcFJrwR0FGKk4lKbuKW9qM1dD3O8JDJBonFSSLAdv7DeednFu97naj/xs8/OjHfn5ZmZZ2a+yEqenX3mefk8z3z29zwzXisE/0AABEAgeAJK8FWgBhAAARAgcA0mAQiAQBgE4JowKKMOEAABuAZzAARAIAwCcE0YlFEHCIAAXIM5AAIgEAYBuCYMyqgDBEAArsEcAAEQCIMAXBMGZdQBAiAA12AOgAAIhEEArgmDMuoAARCAazAHQAAEwiAA14RBGXWAAAjANZgDIAACYRCAa8KgjDpAAAREumbgFum4QPb9T83Pwf8j742AMwiAQNoJCHPNr6+Rxe1kkd3P4nbyn++mHTT6DwIpJyDMNWtetxcNs89vB1KOGt0HgVQTEOYa5pS5Eovbyd8eJ0+8Yf7Z2EVO9JNKqkfBRedv3Ljx1a9+9fOf/3xfX5+L05AVBKImEJ5r5nIQPf4KLhxnU6Grq0uZ+bd7925nZyAXCEhBQBbXLDvoDkelUnnrrbe+8Y1vZDIZRVHmz5+/efPmGzduuCuFkH379i1duvT8+fNuT4wqP+KaqMijXp8EZHHNonYXHZmcnPz+979PP975/7a2trooZSZra2trU1NTjFzjtoPIDwKSEIila/bu3asoSlNT06FDh3K5HCGkUCicPHnyueeec4sVrnFLDPlBwBuB+LlmaGho6dKlmUymp6enTp8Nwzh8+PBXvvIVGvgsXLhw+/btExMT9JTdu3fzARGffuihh1RVZSXfuHFj8+bN8+bNUxSlubl5z549hmGwdwkhlUrl7NmzLS0tfCFUhSxcMgzjpZde+uIXv0jztLS0nD17tlKpbojv3r2bhlf9/f2rVq1SFCWTyTz99NOaprG6+DbPFYuVy+Xjx4/fd999tKJVq1b19/ezEmhC07Q9e/bQxmQymdWrV2Ob2YQIL4MgED/XdHd3K4ryrW99q1Qq1SHCX5nMAk888cTk5CQhxPZdmo13zTvvvHPvvfey02li7dq1vIw6OzvpnpEpG9NBLpdbs2aN6V1FUV544QWmG+qaZ555hkqNZX766af5POw4K5wnUCqVtm/fzvLQRCaTOXXqFMtmGMb69etNefgus5xIgIBYAvFzDdVEw7swL7300g9/+MM///nP5XK5UqlcvHhxyZIlCxYsuHLlCk+wzhqKXpaZTObFF1+k8cX169e/853vKIpy7NgxWkgul3vwwQebmpqOHDkyOfPv9OnTzc3NvI9og1etWnXt2rVKpVIoFLLZbCaTWbhw4dWrV2k5zH0PPPDA5cuXK5XK22+/3dzcfP/994+MmB+7ZkEQ3xFCSG9vbyaT+frXv97f31+pVCYnJ0+cONHc3Pzggw/SlSYh5NKlS3feeef69evpkcnJyT/+8Y/btm3j7WkqFi9BQAiBxLrGSsdWK7YH6blXrlxZsGDBli1bWGRBCHn//ffvvvvuTZs20Tw3b95ctGjRI488whZW5XL5ySefXLRo0c2bNwkh4+PjK1as+MIXvnDt2jXWpEqlsmvXLkVRjh49Sg9S1/zgBz9g5WiatmbNGlYOO5cGZbZxzdatW5ubm999t+YZ7WefffbOO++8dOkSLWFgYOCee+659957TYs4vnykQSAIAol1Dd2VWLx4Mb9esF6idVxDF2v86Sy9Zs0aGumMjIzcf//9TU1NnZ2dNK7p7OxsampasWLF+Pg4IYTK6LHHHisUCvz40cdkWHRGXdPV1cXnmSttG9dQN7EWmhLd3d2stJMnT7Ltp+9973s0CGLvIgECARGIn2uOHj3acL9GVdW1a9earjfTfi0FWsc17Kk5aznMNYSQY8eO3XHHHXyeTCbT2dlJy6euse4uCXeNqqoPPfQQ3ww+zbuGEDIxMfHqq6+uWLGC5nnkkUfYIiugeYZiQSB+rnn33Xf/ej+oqanpT3/601zj94c//OEzn/nMkiVL+vr6yuUyzWarFduDNP/58+ebmpqeffbZuWohhFCpLViwgN36Md1jooHPPffcMzBQ/X0wtoZiu7b+4xpCSGtr69133/3+++/XabDprYmJiQ0bNiiKks1mTW/hJQiIJRA/15RKpU2bNimKctdddx05coRuaqqqyj9fQ5c/K1euHB4eJoQMDQ298MILd911l3UNtXXrVkVRNmzYMDo6aiJL933nzZu3f/9+67s0M/XRrl27bt68abu9WqlUtmzZoijKmjVr6N6wpmk/+clPMpnM0qVLh4aGaDlCXHPs2DFFUVavXn3p0iV6u83UI0LImTNnWltbWYbJycnXX3/9jjvuYKs56yk4AgJCCMTPNYSQGzdusPifXymw54avX7/+pS99iX+Lpq2uofdu+Jz8DeCuri7TTWiak22sXL16deHChfzpiqLMmzdv8+bNg4ODdIQ+/PDDL3/5y9Y8J0+eZEPY0DV0LWYqxNQYVVUfffRRax5Tj6wZmpubL1y4wBqDBAgEQUCYa1YcavCdEvV/9/KBDne9Mwzj5Zdf5h/V27ZtG731Qwu6cOHC1772NXpd3XfffYcPH963b5/VNZVKpbOzk5WjKAp/ZRJC+vv7161bZzIOc81fb1H96Ec/UhTlc5/73Pz58/nLmL/TPDg4uHnzZpohk8k89thjpkfshLiGEEIfGjTtiPM9Mj3i6Pn3yNyNFnKDACHCXLP3v3255sX/jeVonDp1KpPJPP/882xXiBBy5cqVJUuWWL0Wyx6i0SAgiIAw15Qr5Og7ZGOX+etprF9YYzpCv79mqvq8vqCehVJMa2uroig7duxgGzqqqv785z//7Gc/u3jx4o8++iiUVqASEIgBAWGuiUFfA2jigQMH+HUTS//1seBXXnklgApRJAjElQBc42vkyuXy6dOnV65cyTZ05s+f/+STT5q2Y3zVgZNBIBEE4JpEDCM6AQLSE4BrpB8iNBAEEkEArknEMKITICA9AbhG+iFCA0EgEQTgmkQMIzoBAtITgGukHyI0EAQSQQCuScQwohMgID0BuEb6IUIDQSARBOCaRAwjOgEC0hOAa6QfIjQQBBJBAK5JxDCiEyAgPQG4RvohQgNBIBEE4JpEDCM6AQLSE4BrpB8iNBAEEkEArknEMKITICA9AbhG+iFCA0EgEQTgmkQMIzoBAtITgGukHyI0EAQSQQCuScQwohMgID0BuEb6IUIDQSARBOCaRAwjOgEC0hOAa6QfIjQQBBJBAK5JxDCiEyAgPQG4RvohQgNBIBEE4JpEDCM6AQLSE4BrpB8iNBAEEkEgENdMlkpGoajpRl7V8QMCIBAtAU03jEJxslSKVlmCXVOpEMMoRksWtYMACNgSMArFCHUj0jXl8pSqIZABARCQl4CqGeXyVCTGEekao4CIRt5JZvtBh4MpJBBVdCPMNaVSOYXDhi6DQBwJlErl8EMbYa7RjUIcoaPNIJBCArpRiLFrVA13nbCAAoF4EFA1I8auSeGHA7oMAvElANfE42MhvjMMLQcBSgCugWtAAATCIADXhEEZn2wgEAIBVZ3ewVRVXdOE/agzD+LTkn12Aa6Ba0AgCQTEKsZqKyodP7qBa5Iwz/zMAJwbdwKqqlnVENARVdU844Jr4BoQiDGBoMMZq7M8BzhwTYznmedPGJyYDALhi4aqx5tu4BpfrjnXd2HV6od7enqTMXfRixgRiEo0nnUD1zhyzVxOmet4jKYsmhpTAnBNQ3kJ+32oMKfIXE6Z63iYbUNdKSSger2r/dHHg9lDh9v3H2zff/BE5ynrdozzI26xN1SD8AxwjaNIyu1AIn+qCHgOak50njrXd1HTdCqdN3/ze+dyMeV0u2sjXCUNC4zGNQMfXF+3/vGent5stqNl2fKWZcvXrX984IPreVXv6eltWbY8m+3gJ+uOnW00w46dbTS/6b90j4bFNSzbxk1PDQ2PsKJovfTcVasfPtd3gb5Vpz3sXCRAYC4Cpsve28s3f/P7w0eOj46OeTtdc/k1dQ3VIDxDlK5pWbacumBoeGTjpqesaTq0VAQ7draxkWZOYUdogh5vWbacZqYnMm2ZLEY1RyXFHERP5NtjqgIvQcBKQJv+5/fhYN+ucfesjXCVNCwwStfwQUdPTy8LNLLZDpamkQ7/Mq/q9V3DW2nHzjZeYfxbvFCoa/j2ZLMdLNSyzi0cAQGegOc1FDMU1lANVVXNwKNvmDZFHCZ9UJWweIT5ghVb3zX8PW92rqlMWhQTirU97C1WKRIgMBcB/3HNic5T2UOHP/p4kNnHfQJxjd2fbbFe2yZ9MEfQnLw+TGLih99USF7VWTnWt/KqzgIoa3vgGh4s0vUJuPdCzYLrROepnx547b2r13yWU7+RpnerYUJYqSjXUCxyseqDLal6enqtaxlbcVgLceIaWjhcY5qIeOmKgJ811Ju/+b0Q0eA+lP0d5YbXNt1MyWY7duxs4zdZ6Aywnk6PWx3E4hpaIF8Uf8RaIOIaVxcbMnsLSc71XWzff5De9vZWAjvL7RCEFc1U65EirqGO4MMcusBpWbbctCtMgVJNOIl3mGvY3XS2HGMLqLyqwzVuZyrymwh4CG34B/no43yeveM2qMmretUBYaWidA3/jAxTABtCKiD+3hB7i9mBlUBPp6fwRfGuYbqhZ/Gqgmt4tkh7I8BCjPATHhoclmGq9UTpGlMgY+JlG+yY8uAlCMhDwPNvKvh0k7c/Nlt1QFgpeV2DHRN5riK0xCEBDyspv6Kxu8/rpLVhGaZaj6Suoc/48qshJ/iQBwQiJxCmbjxs0zA+VQeElZLONew3pCAaNi2QiBcBVTNC+CZQn3/9MSzDVOuJxjXxmjpoLQi4JaBqhqbpQRiHlum2Pdb8VQeElYJr7J8Aso4NjoBAkgiEZZhqPXANXAMCaSRQdUBYKbgmjfMsSZ/P6Is3AmEZploPXAPXgEAaCVQdEFYKrknjPPP2SYizkkQgLMNU64Fr4BoQSCOBqgPCSsE1aZxnSfp8Rl+8EQjLMNV64Bq4BgTSSKDqgLBS0bhmPJfv/e1/sd+jRwIEQMAPgTNv/m48l3cV4IRlmGo90bjmdHevH7I4FwRAwESg6/SbcI1NgPrygddMpPASBEDAD4GXD7wG19i45pddPX6w4lwQAAETgTdOdsE1Nq4Z/mS0+8xvTbDwEgRAwBuBX3f3Dn8yCtfYuMYVFGQGARAQTqC6ZxtWKpq9YeHgUCAIgIArAmEZploPXIOwCwTSSKDqgLBSwlyj6wVXWkVmEACBqAjoeiEsw1TrEeaaQvF2VOBQLwiAgCsCheLtqgPCSglzzdTUlKveIjMIgEBUBKampsIyTLUeYa4hhCC0iWrqoF4QcE6gGEVQQwgR6ZpKhXj7s1jOMSEnCICAHwKqZlQjjXBTIl1DW24Uin5Y4FwQAIGACBhGMVy91NQm3jWEkMlSySgUNd0ICBmKBQEQcE5A0w2jUJwslWou/dBfBOKa0HuBCkEABGQnANfIPkJoHwgkgwBck4xxRC9AQHYCcI3sI4T2gUAyCMA1yRhH9AIEZCcA18g+QmgfCCSDAFyTjHFEL0BAdgJwjewjhPaBQDIIwDXJGEf0AgRkJwDXyD5CaB8IJIMAXJOMcUQvQEB2AnCN7COE9oFAMgjANckYR/QCBGQnANfIPkJoHwgkgwBck4xxRC9AQHYCYbimWCL5IrllkFEdPyAAAhETuGVMX4/F0L/NJljXVMh0r6AYEAABCQnki6QSYjAUoGsmp8gYAhkQAAGJCYwbpBTWn1QI0DWIaCT8KEOTQMBEIB/WdxAH5ZrbZSydQAAE4kHgdjmMpVRQrskV4kHZ5Hi8BIEUEsiF8hd3g3LNOO46SbxKT+HlhC7XITAeyt+MCso1dTqGt0AABGQjEMIiCq7BWg8EQCAE1Qj9G7t8e2XTNtoDAiBQhwB/8QaURlyDzzQQCIPALb2c027ntYKqGZqm+/9RNSOvFXLa7Vt6uY5EHL4VkF/4YuGaMOaZw/FGtkQSGNPKeUF+mctQec0Y03wZh5dCQGm4Bq4BgaAIjOkkp92eSxDCj+e0255lHZBf+GLhmqDmmedRx4nJIDCmTQUdzlhtNRPgTHkAyEshoDRcA9eAQAAEtMqEVrS6IIQjE1pxVKu41U1AfuGLhWsCmGd4ii/1BG7ppRC0MlcVt/QSXBP2hd32M/Iw99Pxl7Ab4HbIkT8JBLSK19XTxeP7D7bTnzcuzqWShsfzmuE2tOEDkIDSKYprun817R3oJgkXs9xx0y293FAHthn63jh4/Dy9HT4tnVd7P7TN5uTguMsb4QH5hS9WCtdQC3TXTqDpkORX02HI5bemHcG/2/YzsuGtmgiFj1/4nDXX1V/Ihp+Rtss1J9ZkqG0A3gIBbwSE3Hsa6D3a/h+/G/D6JI7be1K8FAJKS+Ga0cvTNqmxwMwRGoM0cM2MQZh6bLX16YyBayDTUAioWsFJ6FE/j0/XqFrBlSgD8gtfrByu0QmLYiigaWX8glyemRn1XcPnpOdaox56vOMX1TJdDQMyg4ArAvUl4uxdv2soTdNdtZmXQkBpWVxjEgrvC9NbozNiYoEMn5PCnXbKzOKr+nJ2e3jO5VUoH3euxh6Z40pAq6heFz5MQ31vHGzf/8s+H+Womu5qezggv/DFyuKaUX6BM7OAYl6o55qZs/g7TZ+mOddUp+xMsUxS1eMQDQgIJcCU4S0xI5qjZwb8/s6UqxnOSyGgtDSu0QmLR6aXRZws6rmmNsZpCNe64Gp4CjKAgFsCfvZrprdp9gsQDfZr6t4Dmg1n2mr3ic2uqQ1PmKGcTAi4xgkl5PFJwPt9qPO/bN/Pbnv7imtwH6qua2aClDZuV/jTIZ+Ry6d3qWbSD/P3vGvVU2eWUGfV3O0SGjnXqRpvpYrAuMfna7gH+Waf6Jt93Ma1d/B8TQPXTMcdvEdmXUA1QfdiumdWWzXbLpZdm08f2DMdn72xlap5j85GQMD7c8OunWK7JYTnhhuIJoI5MesyVA0CYgl4DW3EuGbc/XfZBLQfzBcr0d6w2MFGaSAQLYEJPbxvruGjmwndy7fY8FIIKA3XINoCgWAITK+kBDxAzHukYTqvFVw9VsN0HJBf+GLhmmDmGVZnIKCT0elvsQlPN96+uYbqhpdCQGm4Bq4BgWAJ5PRSXhWzETNXXKNqRs79d9awoGZUD0gvNcXCNcHOM344kU4tgTGD5PTShCo+xplQCzm9NOY7iqyxQjAv4Bq4BgRAIBi71JYK12CegQAI1FohmFdwDeYZCIBAMHapLRWuwTwDARCotUIwr+AazDMQAIFg7FJbKlyDeQYCIFBrhWBewTWYZyAAAsHYpbZUOVyTKwxl2wfXr8QPCICAAAIv7hnN4bvN7R46Gtr7YwF8oSoQAAFGYPdzrp6crA1BAnkVfVwzolUGv70WrgEBEBBJ4NtrR9z8Ve9A7FJbaPSuGdXJ4I93iaTM1I4ECKSWwK5tiGvs9uE+Hhn8993QDQiAgBACQ3ufH/14BK6xc43dJo4rUsgMAiDgh0DtcieQV1KsofwwwrkgAAL+CQRil9pC4RrEWSAAArVWCOZVUK7JFTB+IAAC8SCQKwRjl9pSg3KNdjselP0HnygBBOJOQLtda4VgXgXlmtIUXAMCIBAPAuWpYOxSW2pQriGEILSJ+8cd2p8GAuEENYSQAF1TIcT/16CmYbDRRxCIisC4URt7BPkqQNcQQiqE5IvxCCOjGmzUCwJREcgXp6/Q0P4F6xrajWJp2ji3DEgHBEAgegK3jOnrsVgKTTKfVhSGa8LuE+oDARCQjwBcI9+YoEUgkEQCcE0SRxV9AgH5CMA18o0JWgQCSSQA1yRxVNEnEJCPAFwj35igRSCQRAJwTRJHFX0CAfkIwDXyjQlaBAJJJADXJHFU0ScQkI8AXCPfmKBFIJBEAnBNEkcVfQIB+QjANfKNCVoEAkkkANckcVTRJxCQjwBcI9+YoEUgkEQCcE0SRxV9AgH5CATimslSySgUNd3Iqzp+QAAEoiWg6YZRKE6WQv/GmlrfCXZNpUIMoxgtWdQOAiBgS8AoFGsv/1BfiXRNuTylaghkQAAE5CWgakY5nD+bYPGYSNcYBUQ08k4y2w86HEwhgaiiG2GuKZXKKRw2dBkE4kigVCpbwo7ADwhzjW4U4ggdbQaBFBLQjVD+qm6tvoS5RtVw1wkLKBCIBwFVC/HvQs0aR5hrUvjhgC6DQHwJzBogvP/DNfH4IIrvnEbL5SQQnmNma4Jr4BoQSCOBWQOE93+4Jo3zTM5P2oS1SlWndzBVVdc0YT/qzIP4tGSfuMJzzGxNcA1cAwLiCYhVjNVWVDp+dDNrgPD+D9eIn2d+ZgDOjTsBVdWsagjoiKpqnnGF55jZmuAauAYEhBEIOpyxOstzgDNrgPD+D9cIm2eeP2FwYjIIhC8aqh5vugnPMbM1xdg1PT29LcuW05916x8f+OD60PDIxk1P0SOrVj98ru9CaJOYNmbjpqeGhkdCqxQVyUMgKtF41s2sAcL7f1xdQ6/tbLbDdrb19PQKd82OnW11VALX2A5Eeg7CNQ2lFVfX7NjZRmMZ29kcvmtsm4GDKSGg+rirPTo6dvjI8Z8eeO29q9es2zHOj7hF3VANwjPE2DX1o4yQ4xq3I438SSLgOah57+q17KHDp7t7/bvG7a6NcJU0LDAa19CNlR072871XVi1+mG6w8IviBruvDRc0di6pn6xtu/yLWTbQy3LljPT8dtGO3a2WS+hbLaDnchnyGY7Nm56qr//vXXrH7cSsJaDI9IScB598DlHR8dOdJ766OPBc30X/btGc/k1dQ3VIDxDlK5pWbacGYFesT09vXlVH/jg+rr1j7PLMpvtYNn465ZdwC3LlvOeyqu67RqqTrF5VadOYQYZGh75t33t/EZvfbsxe/LXAz3I1nq0AawK2hfWNZ4AXwjS8hPQpv95fzhYkGvcPWsjXCUNC4zSNewiZH6hyshmO/i3bC/j+le+rWvqF1u/wLyq189g20hrM3ihUNdQvZoIyH91oYU8Ac9rKGooIa7BGsr+6RV6ZbJPeH7YbC9a63VuPcIXYr3I6xdLIw5TcMQX6M011g1sviKT+/i3TFXjpeQEENc0DGoIIVHGNbauoZccvz6iaVNmt66pXyxdQLEQw3Zm16+xvstYgbQZdHkI1zAscU/4WUBpmi4krsF+jZi4xjoX61/5DuMaVqyTmKJ+ja5cY7tUdNIG1mAkpCKANVQs45qGqxU6yepf+VbX1C+WmsIUOplmsykMMb1r6xprM/gjpgLhGhPSeL30E9oIiWvc4nJiB7F5pFtDsVtC7D6ULUQPrqELpbmKpbu27F3rfSiaYa49HVvXmBTGL6Dyqg7X2I5sTA96C21OdJ5q33+Q/znXd9GDttxuDOdVXaxHnJQmo2vYTRl+18a0mWLrGttnYfhohV7tcxXLn85uRfNTn7/jzordsbONL5CmWWupblgGXlVwDc82AWkPjhB1igd6TuwgNk80rvGABqeAgOQE/Pymgh/pePtjs2I94qQ0uMZ+91ryaY3myUnA20rKl2hmvhXUAw0ndhCbB66Ba0BAJIEwdeNhm4ZZSaxHnJQG14icZ2wgkUgzAVUzQvgmUJ9//dGJHcTmgWvgGhAQT0DVDE3TgzAOLdO/ysV6xElpcI34eeZ/HqAEEAiagBM7iM0D18A1IJBGAmI94qQ0uCaN8yzoz0yULz8BJ3YQmweugWtAII0ExHrESWlwTRrnmfyfumhh0ASc2EFsHrgGrgGBNBIQ6xEnpcE1aZxnQX9monz5CTixg9g8cA1cAwJpJCDWI05Ki8Y1o2O39h54fcWjrfiRlsDf/8M/X7jcPzw8gh/5CYyMjE9MqK6CKSd2EJsnGtf8078ekPYaQ8MYgQ1b2uS/zNBCSuCTkTG4xiZAXf3Np9iERkJaAn+z7rs3B4dxMceFAFxj45rtz++X9gJDwxiBb256Ji6XGdr5ySeIa+y+X+MvNwb/ZV8Hm9NISEjg77b+45mzb+MajgWBkdGxW7k84hqbuMYVFGQGARAQTkDsvq+T0qLZGxYODgWCAAi4IuDEDmLzwDUIu0AgjQTEesRJacJco+sFV1pFZhAAgagI6HrBiR3E5hHmmkLxdlTgUC8IgIArAoXibbEecVKaMNdMTU256i0ygwAIREVgamrKiR3E5hHmGkIIQpuopg7qBQHnBIpRBDWEEJGuqVSItz+L5RwTcoIACPghoGqG2GjFeWkiXUNrNQpFPyxwLgiAQEAEDKPoXA3Cc4p3DSFkslQyCkVNNwJChmJBAAScE9B0wygUJ0sl4fpwVWAgrnHVAmQGARBIAwG4Jg2jjD6CQPQE4JroxwAtAIE0EIBr0jDK6CMIRE8Arol+DNACEEgDAbgmDaOMPoJA9ATgmujHAC0AgTQQgGvSMMroIwhETwCuiX4M0AIQSAMBuCYNo4w+gkD0BOCa6McALQCBNBCAa9IwyugjCERPAK6JfgzQAhBIAwG4Jg2jjD6CQPQE4JroxwAtAIE0EIBr0jDK6CMIRE8Arol+DNACEEgDAbgmDaOMPoJA9ATgmujHAC0AgTQQgGvSMMroIwhETwCuiX4M0AIQSAMBuCYNo4w+gkD0BOCa6McALQCBNBCAa9IwyugjCERPAK6JfgzQAhBIA4H/BzZ3zfFdL0TQAAAAAElFTkSuQmCC;" vertex="1" parent="1">
          <mxGeometry x="101.73" y="460" width="184.55" height="140" as="geometry" />
        </mxCell>
        <mxCell id="TXK5YK1UMYOfHFgav4WL-5" value="" style="shape=image;verticalLabelPosition=bottom;labelBackgroundColor=default;verticalAlign=top;aspect=fixed;imageAspect=0;image=data:image/png,iVBORw0KGgoAAAANSUhEUgAAAWcAAAE1CAIAAAC0nLYmAAAgAElEQVR4Ae2daXATR964vansfkiq9sPWVmprq96kKrVV+ZAv+4F3s+EIDkdYSDbLslD5Q7Is727AEByMgUCAELIhB7lJNgkGg09sTDjCFXGYU7ZlG2yDwRhsybct2ZYsSxqNT9nz31HLrdZopjWyrhnpl6JS4+mePp7p36OenpadxMF/QAAIAIFgCCQFkxnyAgEgAAQ4sAYMAiAABIIjANYIjhfkBgJAAKwBYwAIAIHgCIA1guMFuYEAEABrwBgAAkAgOAJgjeB4QW4gAATAGjAGgAAQCI4AWCM4XpAbCAABsAaMASAABIIjANYIjhfkBgJAAKwBYwAIAIHgCIA1guMFuYEAEABrwBgAAkAgOAJgjeB4QW4gAATAGjAGgAAQCI4AWCM4XpAbCAABsAaMASAABIIjANYIjhfkBgJAAKwBYwAIAIHgCIA1guMFuYEAEABrwBgAAkAgOAJgjeB4QW4gAATAGjAGgAAQCI4AWCM4XpAbCAABsAaMASAABIIjANYIjhfkBgJAAKwBYwAIAIHgCIA1guMFuYEAEABrwBgAAkAgOAJgjeB4QW4gAATAGjAGgAAQCI4AWCM4XpAbCAABsAaMASAABIIjANYIjhfkBgJAAKwBYwAIAIHgCMTSGuOjLmdNa9/pW4J/Vk3tYHMv7gdb12nXPsA/wgEQAAKxJRBLaxi/u6RflS31rztLy42NcxzX+u4J/ars3qKK2JKC2oEAEEAEYmkN/ZpcKWWg86Z9V7mxcYdOj37sLSyH2wYEgEDMCcTUGsREo+3fJ5vWF/hLxLT/Gjc2btc2eMQBM46YDxloQMITUIQ1ug9c5zhufGhUvzpHRBwZV3hxlDZ6xFGgS/i7BgCAQCwJKMIa5mM3eQbjXPPGw/7W0K/KNu3nH1XsJZ4Zh/lIZSyZQd1AILEJKMIaTesLeg9XdP2nWFQZ6CQvjvFx27UH6Mf+C3fl37jly5cnSfz3yCOPVFVVyS8KcgIBIKAIa1BkQSZ1H7zOi+Pqff2qbMMbeaNmRub9A2vIBAXZgIAcAmqyBv/+9RC/qGHad1W/Krsnt1RODwV5li9fDvMLARP4EQgERSCW1mjbyW/ECPbfcEffwAOTflV267snguoqykyxxsDAQG5u7tNPP42eZh577LHNmzfb7XayFrvdnpaW9uijjwqeeJYvX46zGQyGFStW/PznP09KSnr00UfXrl1rNptxKhwAAbUTiKU1mKqWYJWhX5VtL9OPWhj9quymtIJJ0KdYY/fu3QIXJCUlLVmyZGRkBFVks9lmz57tnycpKQlbo66u7te//rUgz+7duyfRVLgECCiTQCytwXFcf3FdcOJIyR7u6nfeatOvyu78TDMJphRrfPPNN+np6QaDweVyjY+P37p168knn/zVr35VX1+PKjp8+HBSUtLLL7/c3NzMcVx3d/eyZcseeuihU6dO4ZZ88cUXSUlJe/fuRa6x2WwHDhzYt28fzgAHQEDtBGJsDV4cl+7JF4e9tJFzjbf9+6R+VXbf6VuToE+xhn9pgsy7d+/+2c9+duHCBZxTp9P94he/IKcS2CwdHR04GxwAgXgiEHtryBcHr4yxcdP+a/pV2S2bj4wPuyZxJwQiIEtwOp2ffvrpE088QT5fkEunGRkZSUlJixYt6urq4jiuq6tr0aJFSUlJhw4dwuWMjIysXr0alfDUU099/vnnFosFp8IBEIgDAoqwBi+OiwEeVezaBl4Z7rcn+pQctq5zcvSlrMEwzNy5c0lfoGPSGlar9dlnnxXkmT17ts1mEzRGr9dv3rz5t7/9Lcr8+eefj4/z38SD/4BAHBBQijXoMw70YGL8/jL/LLM6h70z+cm/lDVKSkoefvjhJ5988ubNmy6XZxYjyHzq1KmHH37497//PXqH8uijj6alpQlesgjGRG1trWBxRJABfgQCqiOgIGtIicN27T7nGvfsHF0TkjI4jhOIAN8wjUaTlJQ0ffr0np4etNL5ySef/PKXvyTnGsuXL3/88cerqqp6enqwWXAJ6GDTpk2ffPJJV1cXmlzYbLa///3vZCGC/PAjEFAdAWVZg+M467k75OIor4xxzvObOEKbZaB7I2WN9vb23/3ud4Knj6SkJDLgN2zY4J/hqaeeOnbsGH4AEd2HOnfuXIaRu5NVdWMIGpxoBBRnDY7jBu4bTfuv9uSVod/oNWKyeR5M7k7+wQTfVylrcBxXU1Pzxz/+EXnhqaeeys3N/fLLL0lrNDY2/s///M9DDz30m9/8RqCPw4cPoyqMRuOGDRsee+wxlOGJJ5745ptvBgYGcAPgAAionYASrSFkOs6Zj94YaOwWno/uz2i59Mknn2xsbMQ1j4yMvP/+++QuL5wEB0AgXgmowRrKYF9VVfXII488/vjjFRUVaAeXy+VqaGiYP39+UlISuWVDGe2FVgCBSBEAa8gl29PTg7+iIng8+cMf/mA0GuUWBPmAgMoJgDWCuIFozQLvwkhKSnr66ae/++47WLYIAiJkVT8BsIb67yH0AAhElwBYI7q8oTYgoH4CYA3130PoARCILgGwRnR5Q21AQP0EwBrqv4fQAyAQXQJgjejyhtqAgPoJgDXUfw+hB0AgugTAGtHlDbUBAfUTAGuo/x5CD4BAdAmANaLLG2oDAuonANZQ/z2EHgCB6BIAa0SXN9QGBNRPAKyh/nsIPQAC0SUA1ogub6gNCKifAFhD/fcQegAEoksArBFd3lAbEFA/AbCG+u8h9AAIRJcAWCO6vKE2IKB+AmAN9d9D6AEQiC4BsEZ0eUNtQED9BMAa6r+H0AMgEF0CYI3o8obagID6CYA11H8PoQdAILoEwBrR5Q21AQH1EwBrqP8eQg+AQHQJgDWiyxtqAwLqJwDWUP89hB4AgegSAGtElzfUBgTUTwCsof57CD0AAtElANaILm+oDQionwBYQ/33EHoABKJLAKwRXd5QGxBQPwGwhvrvIfQACESXAFgjuryhNiCgfgJgDfXfQ+gBEIguAbBGdHlDbUBA/QSUbo1Rl8vJDjoYNsH/OdnBUZdL/nhTF7dgeyefA+SMBAFFW2NoeCTBZSHo/tDwiJxBoFJuMnsnhwDkiSgB5VpjdNQliBn40cGwo6MBZhyq5hawdxENBihcJgHlWoMdGAJN+BNgB4bot1bV3AL2jt53SI0OAeVag3Em+lqGvzIcDMs4WfrIUDW3gL2j9x1So0NAudYQjRk46WACWEPtiKIz7qGWUAiANdQ3o6Hfb7AGnQ+khk4ArAHWUBaB0Mc0lBBpAmANZcWMnJkCfUzIKUHJeei9g1QlEABrgDWURUAJUQFtoBMAa8iNGc3uysylmjvFzTH/oKbf0Zg3z8Gw/Q42r2r4b4fHk7O457O4JUXjeVXD/Q5ZqOm9g1QlEABreIayzebUFdw7+tb15hqjaOCBNUSxiJ680jg0L5dLzvL5961O1k5fJUQFtIFOAKzhsYalx3787ZLsFReawBohf+tHaxh895LrdsegnWEtNvZQ9fALudyK42NdfYGnG/TxCqlKIADWSCxrHL8zPDube/uCz279djO77Oj44sPjDaaB/z5fpJ0dm5fLXWn07s399PpochZXdHsYzyzaLezWC665Ofxs4s+HuK/LRkxWSSN0WNjXjo6v/HGsp18yDy5ZCVEBbaATAGskljUaTAOLD48vLho3dPOCQP8uPhh6IZfbct5ld58JaI12M7vi+JjgAWSDxmWxiUih3cx+cm10Xi5XUOOVDq7a/4A+XiFVCQRUbA3N7sq8lZc6Gnrvl7QXpV87sExzYJnm7AflXU0WNBb1Nzqz/nH+8JtXututPqPTwV7YU525VFNeVG9qtR5afSlzqUb0H/nAotldmbX8/ANdx/2S9sNpVzOXaQ6+du7sB+Xdbb6FM2xTddfJHWUHXzuXuVSTtfz8yXfLWuu6cQPQo9Cxzdrezv7yovr8lGKUrfg/1X29dpyNckAfN5QLUdKuK6Ozs7mTd70xvOvK6Au53MUHnslFQGugqcd7l0fbzbwmbrUPrjw5RpbgYNj7xoGXCzzrGgvyuR9qh5GSAjaP3jtIVQIBdVsje8WFU+/pMpf5xPzhtKtIE1aL48Q7pZnLNHd9X3x06s35KcX5KcWdenNQ1sheceHsRxVIB9gyJ7aXWnomot3BluXXHfBtD5JC7fkmFDB4AeWHjddxIejg3Gc3bDZniHEV8PKy5sH5ed6HFPR48s8TY/gRg26NLgv7j2PjZH4Hw15u4GcrX5SM4tpJayRncXNzYK6hhHgPTxvUbQ0UbEc2Xm+pNTkcbHt9b2HqZTSJQMO35id95jLN2Y8qyGhEJy/sqXYQ7wJxMNNXQzOXaorSr7XUmux2Z0N5R+6/LmYtP99Q3oGqQ7Obg6+dK8m+iyYOXQbL2Y8qMpdp8JQHVYRafmqnrlNvttudNWf1B187l7fyUmdjLw48qQP6nZe6Cp83Wdl/nhjDDyno8eTrMu8LDro1BDogn1MEyyWoxp5+NvPGyLxc7sV8Ttcc+Bcs0XsHqUogoHpr/LS7kpzY3y1uzlymObNLhzSBphVkNNpszjO7dFn/OK+/0YkDycGwMq1xfFtJb1e/50IHe/bjCnITx8WvqzKXakqy7/r7CE95sDXOf36z38qgoizd9mObteQDEdk2wTF93Agyi/6YfXMEP6TsujL68iHuVrs3nsNrDdSAfZUjgvVU0YYF/G4eve+QGh0CqreGYNtVy21Tzj8vHn+7xPPUQCxhoGHacqc7919EhokVQZnWEFRXmnsXWwOVkPt6cdu9HkFI6A7dy1yqKc29S9GTZndl1KxRbxz4SwH/kIIeT/A6KGq2wBrtZnbVKX7tE71DaekdWPrD+JpTY31ia5+CjuMfC2qGcQn4pOhBdMY91BIKgXizBlqn8FqDYdFTw4l3Sq0Wh4Nhy4vqyUcYPHBDtwaq+tDqS6ZW4froneJmRVnDzrBbzrsWF40fvzO8IJ87fse7MupgWLzYabKydV0DK096Xpcga6BrZ2dzu66Ooje1mKHoQU8/e/zO8MsFnGBGI5oZ5hqhBHPUro03axiqu7JXXDi+rQQ/tqA1UfRIgtSA1kEFozZ0a6CnDFXMNRwMe/HB0Iv53P8dH1t2dBy9CsFA0EoHuWDx10J+bzjer1HbObDIfYbMQ27xQN4hU2E1NGohHYWK4ssaDrYkm39kuPh1FY4BB8Oi5c9rmbVo3iFYB0U5sTUM1V3ktfhYdEc5+YSCVkz8JzJmk+3YFu2BV8/dL2lTyBOKg2HRs0lyFvfpde+LD9RZO8PmVg2/dMizgyu7auTsvaE5OV5rOBh+DrJB4/pTnnfPuJQ1XjrEbT7n+m9+TJJ+EIVBD1WESED11ijLr0NLGGaTrST77sHXzuX+66LguyTd7dbDb14pWHv5zIcV/uugaBDjmP9xR1mn3uw/sgNaw8GwteebDrx6Lmv5+RvHHqAHok69+dROXeZSDX5ownoSvKyJ5rqGf++UcybEAQ2XR4GA6q0h2PJw8LVzVT82kK8wUDxcy6xFOfECh3+c3C1uFuzFIJcn5Vij38qc//ymoEmZSzX5qy813/J8KQ6s4U+ePBOFQQ9VhEggfqzhvwuTHIvo1UnmUs2Now/I8z7HDrZB13F083XsjmCt4WBYu915+5zhcNpVtNcrd2Xxle9vmbttuCKwBkYhehDigIbLo0BA9dYQvAoVHYgOhkXWEF0HlbpEsefpw0KxzZbZMHrvIFUJBBLCGv1W5uwH5ZlLNdf23fZ/eJE5mpWTjT5ulNPOybWE3jtIVQKB+LdGb1c/vyTh3tNtbO6b3FBW1FX0caOopk6iMfTeQaoSCMSzNdBrUbQ2mfuvi4Yq8VeqkxjZsb2EPm5i27bQa6f3DlKVQCD+rYFWSdvvC3d5hz6+Y1UCfdzEqlXhqpfeO0hVAgEVWyNcw1R15dDHjeq6I2gwvXeQqgQCyrWGqv9eqSASwvhjwL+EqmpuAXunhJiBNijXGqr+2+hh1ISgqIB/dV3V3AL2DiJWCQSUa43RUZ/fiCsInoT9cXTURR83quYWsHf0vkNqdAgo1xocxw0N+XyDO2FNgTs+NDwiZ1gMDXt/MRe+VvkHMnsnhwDkiSgBRVuD47ixsfHBoWHGKfcbk8qPjUm0kHEODA4Nj42Nyx8KKuI2id7J5wA5I0FA6daIRJ+hTCAABEIhANYIhR5cCwQSkQBYIxHvOvQZCIRCAKwRCj24FggkIgGwRiLedegzEAiFAFgjFHpwLRBIRAJgjUS869BnIBAKARVYY9jFDY5y7Aj8UxCBwVFuOMAm1VCGJVyraAKKtsbYOGcb5Cws/FMoAdsgNx7E1jNFRwI0Tj4BRVvDOqDQaAGRYQLWAfmDDXLGCQHlWsM5DMpQBwHnsKxgGHW5nKz3b1BPYmd99C9xsoOjLngSE95f5VqjHyYaKnk06x8Ujir/n1X6hTrkKfhaneCGKtcaeA4MB8onIBhVgh9drrHoTxPCW6PLNSboVCL/CNZQx1OAwsVBDyFV/6IgZB/4dUHkLQZrgDXCQIAcUv7Hqv6lhMga8KsJydsK1ghDzCh8IhCF5pFDyv84vA8LsSrNv18JewasAdYIAwF6/MQqzsNbL72PCZUK1ghDzEThw1zhVdBjJrzRG6vS6H1MqFSwhiKt4eD0vYpsmMTLYHrMxCrOw1svvY8JlZoY1mjjlmVxyeS/MwqOyTZuhbupCy+E1kjU6yKuViLUwzh/ocdMeKM3VqXR+5hQqYlhjV5uj4Z7z/3vrSK3PhRsjfrrE4KjBvxNHbeykHuvVtosYA2GDaNiEsoL9M4mhjWID9taFJMKtobFwr2Xz4tjrU7aCCyX6dbfdrBGWNVAsQw9kBIqFaxBi8wwzuHDXhRYgxLhkUhKKC/QOwvWAGuEgQB9kEUihqNfJr2PCZWqbmsYTdzJ6/zj/dyJlc6FRVxmHS0MAj+h9HI5Z7iFOROLCxMl84upgoWGXi5Hwy2ZyDk3n3urlNMTT0NofrEdX+gueYG7wLmF3B5BO+Us2frnIZuHK0JtINY16mt4Smg9eMkp7jr5gqaWP7+njavVcUvcpaEno+sX3FRzuA/v03iiPtJjJvoRHoka6X1MqFR1WwPN0pOzuAX53MJ8DgVkcha34rrkQA9gjYn3F7wCNNxbRyd8lMOt13DvXfFKoe2+J8aSs/iqvZYp5K5bfGrnrZHFaYiScWafgOzk1rp74S3Nf/GFyINEOTfHXTu+8ARXj7U1YY1MjccXC/O93bmOs7mt8VYx3525KEMOd1THX7LAvbySXMjdxJklDugxE4kYjn6Z9D4mVKq6rXHyCqdp4YzEUL5+wRMhJ/t9QhcvK9CtkXOUv3yJhmubKNPY4nkP6hPhJm6l2wUrir0eMXZy693zjgVnfJqErMF/zudwOS2eVmnOuNt5wienzEaibHLXNdztXHJhop0W7i13I9dXTfBxW4N3xBm+15pTbl/keMz7mVscheTcZIIMbq2FDRAyQUW4qY/5rrz7xfzmZ/brp2Ton91vWFTYUlDT22/3vhDZdcU4JUO/6mS7g2FLm/pfO9r67H7DlAz9cwcN7xR3mfoYssb86t4pGfolh1s7zUxtp+2N0+3TD/CZn91vWHumvanHQWamHAfoZCIlq9sa5MDFx2+54ySzbSIqfEc53RroWkGQHD3BB9IyYv7icdMJr1w8tRs8ExCyBI81crijJqJJBm6hu53Fvs1D5dAbifLIt8aKKz5uulns9gLeDDJhjaPuKZJHZxPzC1SLFEzMnB4ylFAUJF1utL6Q2zQlg/cF+W/aAUPxAyvOjKzx+o/tn2qNSC5k5mU/8ILAmZE1FhW27Kvsmeb2BZn5pUPNdzttODPlgN7HhEqNQ2vQBzotIPu59e5IJmPewnLIGuRTD/oEFn3r6Z+ErPFhA6EMlrNMrFBoIm2NQuEuLyEBtzUWFnuah6yBZyJ0mOG1xq122zy3MqYdMOwpNbWa+VlAt9V5tdG67mzH1UahNf6wjzfLtAOG78q7u63ODguz9UInMsL3FT04/pE1pmTo/7BP/8x+/b8vG1vNDrPNuafUhIyz9UKnXcbr24TyAr2zqreG0cJdr/Fu4npPw61wz8ClPh6FMeMbtOgJZRnx4YyfUPZMPFxYWA6JQLQKNMMnJyaUzDjqBAf0RqLMcucaghVclhMW7rYGbjCyBhZi1KxhsTnfON2OnjLO3+/DMS96gOYaUzL0s7ObLxM2MfUxS4+0TsnQLz3Sip9TsDWmHTAU1PTiAu0Mu+5sx5QM/fy85vtGOz4vdUAPpIRKVbc1jrofwn22irsnC8lZnGhIW/xjxtcaxjrPeqFgNZScaNCt4T8xAWtIxSF5vqy5f2YW/2yyvbiTPC96jKzx3EGDv1++KjFNydA/n91U1eZ57kDWeGa/PvumdwKCij1Wa3lmn/6P+/Wn71lEKyJPJpQX6J1VsTVuXnEvKOZwOQaf53b6x6Pwk9bXGjnuDZdvEe9TFxZxOYKHC5b70D2d8VkfnSjH84RCvFUFa5CxJ3Wcc7OHf9zINFwINNFwMCyyBlrgFBSIRECugyBrzM5uvtclnFBgVeVXe+cgggLxj/RASqhUFVsD2QE/geNJ/h73xoTJzDXuu9/dnvJdgJjQAS7fwnIn0YsG33clfAZUQhZHrlZEyBpIcP7d97Zz4s2r4NtrQm8q4wkFiUA0tnHc4gOKNYofWKcdMDyzT3+s1jN9oFjjXpd9dnbzlAz9VyUmXLjUQUJ5gd5ZFVsDhQ35llR/n9/ygB5YJmMN9DahkCsO9KIR22FtqXeaY2zh1rrnIPIfZ7wR7usmYWD7pqKrPO9xcjiNVGsT2BrknEWONXL8Hl783UEPpIRKVbE19O6dSGgfBLnFa5lbHKQ16nXEVih3YHu2Zrk3R3kfNPq57ROpyVmcdwNVEffhda7WdwOIJ7DdyyjefVlZ3EJirwcKb5lzDbmNxAaZ2DPCN5W6y0sVcw20HjEzq6msud8/YgVnKHONwlvmKRn6GQcM+J0LxRpXG60z3O9iC2+ZBVX4/5hQXqB3VsXWsLAcuVF6bg638gIf2+gtAGkNMsL9l07x+wILy+mueFZDeRFMTFvwJTm+e0D0LdyHR70bUvkVkPveqQeeR8i0hvxG4pItJi5TsPmdfGOiqrnG6XuWP7q3de0lXpr6hy46Q7HG2xe6pmToXy5oae71bNmgWGNvBb+YQi6dStXoYAJtZaPHWXylqtsa3vjBn8AhHHgmLzmcxndLuLFtYtMn3hkVQi3hbbNCSqMHBSUUcVKr2bGwsGVKhn5ebtOt9gDbrqSsUd1ueyGHfxGz64oRlyxljVaz42+H+de0b5xut9icOL/UAb2PCZUK1vCufaKFkpViv9VChzaq+38xBPThJkCPGak4FJzPvtmDtl29kNuUc7On28pHstnmvKoX3+W1IL+5ssX7OFPZYnu5gPfOgvzmB8T+C2QN/jVtfR/ezfXAaP/H8bYpGfqZWU0lTd79Y4ImkT/S+5hQqWANoTUWnPLbJ27yzDXW13gzK+RDXiHNoMcMGXuUYzvDfia2QxxtAPXfUY62gU4/YJid3TzzoGcfOq+SVp+pCrIGyvzsfj5zsntjCFKGRsaLXtRmeh8TKhWs4RVBW63nuyHJOdyKE57fGIi/hu+/zKmQiFVCM+gxQzGFf5KuuX/tmfZZE4E9/YBh6ZFW0W+vPbOf36CFdPDMfv1fClsyKnrwllBcMrLG/2bop2byX1qbkqH/X/d85MOrxjb3pnWck35A72NCpYI1vNawsJyxk8vUcOgtDFoEnes2yFFiO7kSolRpbaDHDD0aJ5Eqta4hWpTUuoZoZspJeh8TKhWs4WMNpUWjWtpDjxlKKE4uCaxBBx7pVLAGWCMMBOjDdHJqoFwF1qADj3QqWCMMMaOWGUHk2kkfppT4n1wSWIMOPNKpYA2wRhgI0Ifp5NRAuQqsQQce6VSwRhhiJnKf4WopmT5MKfGvoiR6HxMqVbnW6B+AeFYHgf6BACGjIjVQmhqgk4mUrFxrOIfVETNqmQ5Erp3O4QARQwlFFSUF6GQiJSvXGhzHWWG6ofgd6wEnGhzHMU7vrxdXkSbIpjJO+Paa14uKtsb4OOcYghmHcgk4hrjxce9gkjpiB4bICFTjMTswJNW7BDyvaGug+zE2zg2NcuwI/FMQgaFRbkyGL9AddLnG1GgKss0u11gC2kGqyyqwhlTT4byKCAwNj5BBqK7joeERFaGOQlPBGlGADFXwBMbGxgeHhhnngFqUwTgHBoeGx+TPqRLmPoM1EuZWQ0eBQJgIgDXCBBKKAQIJQwCskTC3GjoKBMJEAKwRJpBQDBBIGAJgjYS51dBRIBAmAmCNMIGEYoBAwhAAayTMrYaOAoEwEQBrhAkkFAMEEoYAWCNhbjV0FAiEiQBYI0wgoRggkDAElG6NUZfLyQ6qZQ8yvZ1OdnDU5ZI/tOKp73QyMlODBSgfNeQMioCiraHqrzxJRYLMr0LFZd+lmAR1XibAoMIAMgdFQLnWGB11BTWYVJR5dDTAjCOO+x6W2xQQYFAxAJmDJaBca8TBr3KRipCAv+IljvsuxSSo8wEBBhsGkD8oAsq1Rhz82jipSAj46+TiuO9STII6HxBgUDEAmYMloFxrBDWMVJeZfp9U153oN5gOEFIjSgCsEZtfhEu/qdEPQtXVSAcIqRElANYAa8SGQIieimhUQOF0AvFvDVtbtemHv5gK51ofnAtxpIbxcvpdmURFzq/2OHd9wHT3TuJamZc4DxU4t7zNNLfKzB/RbHSAkBpRAiq2Ru/Vd4150z3/Cmb11Z8RHaaWqgMoT+/Vd0UzxOQk/aZOoknBWaOqhk1PZ4ovBVURWIN+1xInNf6t4ZlrFM23NlwIKkgimpk+wiZRNViDjhRSw0hAxdbAocVPOqTnGjibopeUIF0AABJXSURBVA7ot3ASTQVr0JFCahgJgDVisxZIv4UyreE8VMCmpuJ/Pusa7mcQT1J6uqOqBpXp/GoPzk8e4KcVprvXuesDnOQ8VIAbg55QHFU1zi1vowxkqoNhycKdX+3BF/pXLbiQaW71lilv6YQOEFIjSiCerUFf+OjvuG0smt/z02prw6Xu40uMeTOM+TN7z6+zmzvQKEcZTCdesfe2oTP23jbTiVeMRfP7O247GLbvVp4xf2b38SW27iZPhn5L99kUY/5zlopv0Rmp/9NvqtRV5Hl+ckEEGDnX4IPwqz14ZZQPZkIcfCHS6xrO7/dixTDFl9jUVBzhyBp4QQSlYt04DxXgY1Q+KQ5ha4laPJkn9CTISXaZPKYDhNSIEkh0a5gOv2AsmOVdVc2b3nvpbTQ6A1rD4WDMV3YY86abr+xwOBgHw1oqvjXmP9fz0xp7v4Uc4v7H9Jvqn194xi/sSWuIZsbBz6f6XS68hOGnYGjegacwaGqD1SBIFZRABr8np9/sA10iaDmad/i01t0YQfl0gJAaUQLxbA08zkQXPpAUjHnTTUXzLbcLHHZb350iY8Esfu7Qw79cDGwNhrV1N5lO/D9jwSxr3cn+lnJT0YvdxxbZjA9w1VIH9JsqdRU+7/86QxB7OCcf/O75v08cyrMGeuggrUHObjypxHyHrFTQQvTwQs4+UGb/ttEVg6ugA4TUiBJIdGuYCudY751CY1HwACLHGg6GtTYWmwrndh/7W/ep5WRpeHyLHtBvqugl5ElBTArCm//Rd8mDfNDgy6FYw52E1zX4Cye2gYhUSuzgQPHvc6GvUMgmeRXmV51nxURiYoIh0AFCakQJJLw1pJctZFoDP5gY86b3XnsPD2v6Af2m0q9FUhD52CfCm01N9T5KyJ9ruGOYnBGQUxgRa0xsLfNMGSYaINpC1Ck0lcAW859rBOw7ykAHCKkRJQDWkFzslGsNB9N7dadnI1nxZrTAEXDo029qwMv5lUhygRNFuzto/Zcb/CPT/wyqkZ8OkMW6X4tIzTU8hbgnBYKVUYo1vMsl6EL3KxvSUwH7jjLQAUJqRAmANYKwRl/9WdPhefgdChq+1nunTIVzejRre86lGvNnWm7slTPu6Tc1YAk+EYteW+7Y4Q1v8qXJxCOA96EAL3P6PkHw8Uy8NPFOCiZmEIK5BrneKXhp4lnFmCifby3xTkfw0oSsNGDHcQY6QEiNKAGwhqQ1PMscBbP6qnMcdpvldoGpaD4/p5h48+pgWH7j6ZGXTEde6m+tII/x4JY6oN9Uqat8zk/oAM0O+JCeCG8c8PyDwJa30Q4L0hp4iRQvQ+DHGXL1gSm+RD6hoGjHl+DqUKtQ8HtWJQ4VCBQjuBZX5+kR7gvafuI73/Hp9cT7FDpASI0oAbVawxPS+Hso+GAipANmkPMA0nvpbfKlrLFgFv+mFlfRb+n5aQ25OwO9ee0+sRRv8RAd8Q6Gpd9UqavgPCZABwipESUA1pCcazgY1m7u6D2/zpg/05g3o/v4EmvDpZ6Lm7A1eq+9Z8yb3n02Be/OsKNdXnnTe6/upC9w0G8qjg04kCJABwipESWgVmtIDSa1nKffVLX0IobtpAOE1IgSAGuo+HsoMQzamFcd0aiAwukEwBpgjdgQCNE79GENqRElANaITczQb2qIEZUIl9MBQmpECYA1wBqxIRCi2iIaFVA4nQBYIzYxQ78rIUZUIlxOBwipESWgXGvE8V8SCvhHgOK472ExWkCAEY0ZKFy51ojjv1oY8A8OxnHfw2KNgAAhsCNKQLnWiOO/kBzwjxvHcd/DYo2AACMaM1C4cq3BcdzQ0HBYBpmiChkaHpEz7OKy72G5ETIByoEMeSZHQNHW4DhubGx8cGiYcQ6EZcDFsBDGOTA4NDw2Ni7/PsVN38OCfRIA5aOGnEERULo1guoMZAYCQCAKBMAaUYAMVQCBuCIA1oir2wmdAQJRIADWiAJkqAIIxBUBsEZc3U7oDBCIAgGwRhQgQxVAIK4IgDXi6nZCZ4BAFAiANaIAGaoAAnFFAKwRV7cTOgMEokAArBEFyFAFEIgrAkq3xqjL5WQHw7IlGQoBAmEk4GQHR12uuJKB7M4o2hpDwyNhvM1QFBAIO4HE/Cqdcq3hco2F/R5DgUAg7ARcrjHZH9JxklG51oDfTBP28Q0FRoJAAv6KIOVaA34LXiSGOJQZdgIJ+OsIlWuNsN9dKBAIRIhAnDx4yO4GWCM2v6M8QsMXio0JAdnhFicZwRpgDSAQKoE4kYHsboA1Qh0xMflw86+0rrtqc/mf15XNKenQ+KfKORN6CXJqics8ssMtTjKCNSStUd9ze71u3vbKJR3WNuWP9R8NmSnaqSnaqRl1OybX2tBLmFy9cXBVnMhAdjdUaQ0Uzx9Vv+4/4DLqdqzXzavvue2fJHrG6rD90PDtpvKXVmunpWinbtQt+KHhW6vD5mDYcFnjtql8e+WSzHv/Fm0A/eSxxr0p2qmkuVr7mrZW/NXfDmimkK6bV9Zxnl6mVOqkS0CgkLNStFNXa6dtKn+p4MGXpv4uqbri7LzscIuTjPFmja9vb5Rvjda+pverluPhjg5SS5OvtZ0OozWutZ1OLU2e3BQgo27Hau201NLnUZMcDHup9fjakpn+1ohhHAqsgXl+WP2vBBFHnMhAdjdUaY32vpZtlYvJT2AcMx9Vv76tcnF7Xws+I3VgZ5iMu9tTtFPTdfOO6zPMNrOdYW6byvfUpqOlgXDNNUK0xqbylzbqFmTd+wB15Ns7W7ZWLEormzs5DUnRCOW8AJSp33SscW+6bt5q7fQzhuxQSlbLtbLDLU4yqtIaHda27ZVLpKxBni/vKN5WuXi1dtpq7bStFYvOtxTZGQaNxVumsnTdvDdLZ11tPSk6OlEw7LzxamXnlZ03Xl2tnbZGO+OLW292WttxflN/V8GDL/EDTnrZn7LufWC2mR0MixqJP3jJA/mzoYy6Hdsrl3xTu2nnjVdN/abWvqZtlYvz7n+2Xjfv69sbUTMy6nbgwvFECbcQ9WJ3dQpG4d8Legm4KKkDgTVQtqx7H5ATIvTkWNddc8qQtUG3IEU7Na1szknDAXw77AxzvqVoa8Ui9KhIkkQF2hlG03xoU/lLuLPoAD+oBqyCcrMcDPtR9evbK5domgvWl72wtiT5pOHgKUNWaunz68rmXGs7JdV3dD5OZCC7G6q0hqnftPPGq2hOYbH3vV+1/P2q5RZ7HzpGAeZg2KutJ98snUUOsjXaGccav0d3+oR+f4p26ue31uKBKxgZKBjSy+avK5tDFvLtnS04J15BJDPk1H8cLmvsrk7ZXrnkXHPhBt2Cis7Ll1qPv12x8EbX9W2Vi8lowbVLWSOtbE5qaTLOlqKdSvYictbIdaNwMGxG3Y60sjkfV68i2/Bm6Sxd50UE81jj92u0M8jUFO3UT2pSkIIdDHtCv98/Q4p2KsmBXgXlZiFrpJfNX1/2AmrDloq/pJXNRccfV6+UGiSo8bLDLU4yqtIa6B6jT+y67pr0sj+llc2tMZWij3c0jNDxm6WzThoOmm1mq8N2tik3XTdva8VfW/ua0DhO0U4tbPgKK0BwgKyRop26rmzOaUN2n73/fEtRamky+QT0U1PeV7fX3TaV2xnG6rCdMmS9WTrrncpXuqwduLRQnlDQB+Dd7ptbK/5a2PBVRt2Oz2+tbe1r3l65BEcLriijboeUNdCDmKb5kNVh8+8FvQScKnUgmGuY+k1HGv7zZuksUgpYTJ/VrG0yP7A6bN/f2ZqinZp57z0Hw6J5X2ppcmHDl+TNWlsy81LrcQfDos+JtSUzjzV+b3XYOq3t39RuWq2dhgSNGkavwsGw9Jv1UfXr7uXwF8s6zm+rXJyinbqtcvGNrmsbdQvI2asohDiRgexuqN4aPzXlpZfNf7N01gn9ftIaKFbxcgC62Xvvbk8tfR4tW6BB9qMhU3Qc4NVQ8hEGlU95vkAZBIMsdGt0WNu+vbPl3zf//k7lK2cM2WQ3ycZTrCGzF6IlkFWIHmO9kjOF1dpp++/txB/RiHZG3bv4DImlsOGrFO1Uwc0qavgaP+M86L2TXjafBIsqJdVJr8K/5YKbhaxR2PAlOr9GO+NsU64gj38h6IzscIuTjGq1xt6729N18+q6qzLqdnxa88b7Vcu/uJXaZGncUrFw793tDoYVnY663wtO/6kpD881jjXulRoKgo9Q/NBBWsPU33Xw3q70sj+RAUMObgfDkuEhVZfoefTAhUq71Ho8tTR5U/lLD3rvoKEsmNGgHknNNcgmocvJXuDaw2KNN0qe23nj1SutP2JBSLWNXm9F5+V1pbORF7qsHe9UvpJayi834LlGinYqXtwJWIV7wkK7WR9Vv46YkHzAGqKeU6s10Pgubj2688arxxr35tZ/vKViYXlH8XrdPPRyIaA10OfbF7dS8dgVHAS0htlm/qQmhfQFOiZDNBRroCH7QfU/7QyDhIgesKWGsmjMB+wF2WvREsgMosf+Vfhno5csmoqssbs6BZV2tPFbtFCKga8rm1PeWYzrEi0Epwa8WWANUUGInlSrNXLrP04tTT7S8J/N5X+u6Lx8re10WtmcIw3/Wa+bh1bgLrb+sKZkBmXZAk0B0srmVhm1eGyRB/7BQH4KORgWDev0svna9rPoc1U0nlFFFD2RlZLHqDRyEo5SRWuR+rAN2AuyRnrgkTnJY/8qyFR0TC85t/5j/yeUwoYvU7RT0d009XftvPHqutLZ6P3LGu2MnTdevdF1jayIXkXAmwXWEBWE6Em1WgNNJd6pfAV9sKOP4vdv/j1dNw8tVTzovbNRtyBdN++/2ytN/SZyeKFjs828q+ofKdqpG3QLzhhy5OzXEFgD6WBb5eL/PnWjvR5f3V73RslzgrlGjak0rWzuet286+1nyEm7f5MEZ6SsQb5CIi8RDRv/kBb0ImAJZAbRY/8q/LOJtg1n03VeRKuneOn6tCF7XdkcPJso6dCklj7/Te2m+p7bondTSpq4ioA3C6whKgjRk+q2Bvlk+8WtVDR3xQucoi/zyJC+barYqHsRz3jRAV4a8A8GQbw1mR9sLv+z4PLV2mlkFehx+r8vg8lsomsKeHzjA9QA/7kG+QoJNYksHB3jKgL2ImAJuD1SB/5V+OekW4PfcVf3rqAX5HoqeskiyJBWNmf/vZ341Sy9ioA3C6whKgjRk2q1BvroWK31LG2i92qrtdNxzDsYFm0c2lb5N/I9vyCkW/ua99Smp7l3ZKAvUFC+hyKwhoNhb3Rdw7vINpe/fFy/74PqfwqqcDDs/Z7aT2pS3ih5ThDS/tFFnkkcazgYFn0haKN7A5j/ljy3VvjNbOtKZws2nuA9snRrBLxZYA1RQYieVKs1yOiC47gncLYpd412xvd3tqIvFqKPhDOG7DUlM/zfJUWfhmhoxfFJsIbkN+WjP/igRikCaC/G17c36s31KI/eXP9N7aYU7dRJLDNL1TLp83EsCNGugTXAGiogILWdPL3sT4I3KZOO/FAuFA2tOD4J1lBBzIQyoOPj2oklqsV4bSitbM6Xt9Pk/yKViHKIY0GIdg2sAdYAAqESEA2tOD4J1gh1xET0QwwKVwWBOBaEaNeUaw34K0qqCBhoJPwVJVGzxOYk/MVGCEhVEIC/2BgbQYjWCn8dWhUxA42Evw4tGr8xOzk0PAKDEggomcDQ8EjMwiN2FSt3XQMxGRsbHxwaZpwDSh460LZEI8A4BwaHhsfGxmMXubGsWenWiCUbqBsIAAExAmANMSpwDggAAWkCYA1pNpACBICAGAGwhhgVOAcEgIA0AbCGNBtIAQJAQIwAWEOMCpwDAkBAmgBYQ5oNpAABICBGAKwhRgXOAQEgIE0ArCHNBlKAABAQIwDWEKMC54AAEJAmANaQZgMpQAAIiBEAa4hRgXNAAAhIEwBrSLOBFCAABMQIgDXEqMA5IAAEpAmANaTZQAoQAAJiBMAaYlTgHBAAAtIEwBrSbCAFCAABMQJgDTEqcA4IAAFpAmANaTaQAgSAgBgBsIYYFTgHBICANAGwhjQbSAECQECMAFhDjAqcAwJAQJoAWEOaDaQAASAgRgCsIUYFzgEBICBNAKwhzQZSgAAQECMA1hCjAueAABCQJgDWkGYDKUAACIgRAGuIUYFzQAAISBMAa0izgRQgAATECIA1xKjAOSAABKQJgDWk2UAKEAACYgTAGmJU4BwQAALSBMAa0mwgBQgAATECYA0xKnAOCAABaQJgDWk2kAIEgIAYgf8PI9Jxyy4Y1AYAAAAASUVORK5CYII=;" vertex="1" parent="1">
          <mxGeometry x="118.49" y="600" width="151.03" height="130" as="geometry" />
        </mxCell>
        <mxCell id="TXK5YK1UMYOfHFgav4WL-6" value="" style="shape=image;verticalLabelPosition=bottom;labelBackgroundColor=default;verticalAlign=top;aspect=fixed;imageAspect=0;image=data:image/png,iVBORw0KGgoAAAANSUhEUgAABycAAABDCAIAAAC5n56tAAAgAElEQVR4Ae2dDXBc1ZXnn1zIxEr8QcYGJwFjDJkQJmWyyaY2w4TVko0xCR+GDQs7DlGRZGaZJaRMWGBMCEtCyKJJmISaSVVmky0yk6KwKWGQZRvZyDIGGYyN5NhgIyTro1uWW1+22ta31N16u/KJT47vfe/26+7X6n7d/y6Xfd999557zu/ed+X71+37LBsfEAABEAABEAABEAABEAABEAABEAABEAABEAABEACBzAjExcfKzBRqgwAIgAAIgAAIgAAIgAAIgAAIgAAIgAAIgAAIgAAI2EJ0jUN1xYAAARAAARAAARAAARAAARAAARAAARAAARAAARAAgUwJQHXNlCDqgwAIgAAIgAAIgAAIgAAIgAAIgAAIgAAIgAAIgIAkANVV0kAaBEAABEAABEAABEAABEAABEAABEAABEAABEAABDIlANU1U4KoDwIgAAIgAAIgAAIgAAIgAAIgAAIgAAIgAAIgAAKSAFRXSQNpEAABEAABEAABEAABEAABEAABEAABEAABEAABEMiUAFTXTAmiPgiAAAiAAAiAAAiAAAiAAAiAAAiAAAiAAAiAAAhIAlBdJQ2kQQAEQAAEQAAEQAAEQAAEQAAEQAAEQAAE0iQwjQ8IgMBZAlBd05xHUA0EQAAEQAAEQAAEQAAEQAAEQAAEQAAEQOCsxIR/QQAEziEA1RXTIwiAAAiAAAiAAAiAAAiAAAiAAAiAAAiAQGoEzpGXzlwk8AEBEBAEoLqmNqegNAiAAAiAAAiAAAiAAAiAAAiAAAiAAAgUMwGptwqJ6U9JKTYhDQLFSSCRSHDgP//5z61injIQOwiAAAiAAAiAAAiAAAiAAAiAAAiAAAiAgIGAm94aj8cTiQTfNVjALRAoEgLT09OsusbjcaiuRdLvCBMEQAAEQAAEQAAEQAAEQAAEQAAEQAAEUiDAiur09DRvamWxNQVDKAoCRUMgW6rrRNw+PWEPjtsDo/gzw+H0hD0RL5phhUBBAASKgADmefoBhxm+CAY7QgQBEAABEAABEACBYifAkqvUW6enp4udC+IHASMB/1XXxPSMwgix1ZHA0ISNOck4IHETBEAgAAQwz2OGD8AwhYsgAAIgAAIgAAIgAAI+EVAkV9rf6pNtmAGBQibgs+o6GbdPYHOrkcDJMXsqUchDCrGBAAgUNgHM846SK2Vihi/swY/oQAAEQAAEQAAEQKDYCCh6K70dqNggIF4QSJuAz6ordrkaVuN86/RE2v2FiiAAAiCQYwKY53kyd0xghs/xAEXzIAACIAACIAACIAACPhFQJFdscfWJK8wUEQE/VdeJGA4W8EpgIlZEgwyhggAIFAwBzPOOSquSiRm+YAY8AgEBEAABEAABEACBYiZAqisd5ArJtZhHAmJPm4CfquspHOdqPFtALstPYbtr2mMWFUEABHJHAPO8nMnd0pjhczdC0TIIgAAIgAAIgAAIgIA/BBTJNR7H+8H9AQsrRUXAT9V1cNzrTk+3lWrx5A+OF9UwQ7AgAAIFQgDzvJefU5jhC2S4IwwQAAEQAAEQAAEQKFYCkFyLtecRt88E/FRdvaxFUYYInBjzuSNhDgRAAARmgQDmcC8EMMPPwlBEEyAAAiAAAiAAAiAAAlkiII9zJc0oSw3BLAgUPAGorjnbn1vwYwsBggAIFB4BL5ojygyMFl7PIyIQAAEQAAEQAAEQAIFiIaBsdJ2eni6WyBEnCPhNAKorVFe/xxTsgQAIFC6BVBXVA82h6trX5J/NO17v7BtiO2/sf++D8ABfFkyicIcAIgMBEAABEAABEAABEChkAorkGovhVeCF3N2ILdsEoLpCdc32GIN9EACBwiGQkip677oHLafP3Llzf/qzZwZG7e6T43Pnzl1+2eWHWo+lZDn/CxdOlyMSEAABEAABEAABEACBYiLAqiupRdjoWkydj1j9J5CPqusH4YHPf+GLpaWl//Qvz+b/0jptD/3vTFgEARAAgSwTSGnG+/CHP+Ikuv4x75HHnxwYtb/5rb+1LGvZpZcVmPCa5X7w0/z09PQTTzxx5ZVXzps3b+nSpatWrWptbfWzAdiaLQLR6FB757HO8PGhYRxyMVvQ0Q4IgAAIgAAIFBYBllwTiUQ8HsdG18LqXkSTAwJ5p7q+fajl4kuW8UL9f65/LKVFfoAK56C3U2ny8ccfL0/r85Of/CSVdlA2jwhMTk4+/fTTq1evlj1//fXXP/nkk/F4PI8chSu5I5DSHMszuVvioR883jec+NrNt1qWdcmly4909KRkP58L566LUms5FovdcMMNSgeVlZXt2rUrNUMonWsCff0nW9rC/GcwejrXHqF9EAABEAABEACB4BFg1ZWkokQiEbwY4DEI5BOB/FJdd+x+e/6Chcry7/Y7v9E7FM/n1XV6vuXTMHDw5bzzzlM6wuPl+eef72AOWUEgcPfdd7v18te//vUgRAAfs04gpemOh9OPn3q6PRK95b/8V87hxPcf+kHP6dj1X73ZsqwVl3+yYITXrPeETw2sX7+e+0ImFi9e3NPT41MjMJN1AtFTQ6y3cuLUqaGsN4wGQAAEQAAEQAAECogAS6680TXz4wWmpmLNLW076l5/8eVtL23evmv3m+83t46PTxQQNoQCAiYCeaS6/u75TXPnzpWrPk6XX/cV+faVlJb9eVvY1C15cK+kpIT5p5QoKSnJifuNjY1lZWWVlZXm1mtqama+zrxsWSQSMZcswrvz58839PVdd921c+fO18797N27d2KiqH9kRiKRZctmtufX1NQUw5hJaUbl4bR9996BUfuHP36Kc2Ri3YPru0+Of6n8ukISXgMxGBKJRGlpqewLmU46nXqJkR6QiooKL4VRJj0Co2PjsVi8I9TNeislOkLd6Rn0Xqt/YLClLXy0vWtkdMx7rfwvOTI6drS9q6Ut3D8wmJK3oa4I90KoC//NSAkeCoMACIAACOSegK66ZujT8UjvS9W1W1/Z2Xjg3VC4uzPU9U7Toc1bX63esiN6qpC/l3OkubVq09ZQOOv/GcuwgxyrB9p5x4iylzkYPfVSde3efU2GJvJFdX38yX8wy3xXXvUXHvdA7dzTOK+sbF5Z2c49jSwQ3LG2wrKsO9ZWcE7OE4ZeyYdbq1atkstv7+kbb7wxqf8VFTPd4a/0CdU1KfakBbz3siy5ZMmSPXv2JDVOnU4VU+r64eFhOvFgeHg4aSuzXwCqq2Eu5XHymZWf/e/3rrto6cc4R0ncu+7BcP/I57/wRcuy/t3nv9A/Mu1oNtQ/fM215UpdulTmfMfqs5k5+0MxjRYPHz7sCJMy165dm5JNx4l9FlRX+l1akfzaQ++R3r4TLUdDp04Px+OJjs5zhNf2zmN6ecoJdUXaO7snJ6eUAm75SjG+NKiuJFxmT3mMRodaz5yo0B3pY388Jrojfa1t4WjUdS9w2qorOZDt2D2Gmati3ZG+lraw7HrDOMmVk2gXBEAABEDAkQCrrnSia4anzPX09m+qfqWjs0vZMJtIJFqPdmze8urpodlb3+3d1/RSde1g9JRj4L5nBlq49NH5Wcbuez8mNRgM1bVvOEFvUzGs/ejWxz9xccM7h5Mum6G6Jh0ZuS1Ai/BHH320rKzMx3WyR9U1t7HneetJn0G3AldffbUhNOpxqbQ2Njbed999hiryVp6rrtLVYkgnnYFlAbcB45h/77oH23tOrbjizy3Leurpf5J2HNM01T/2RKXj3ZxnBmIwvP/++459QZl33nmn9yjcJnaort4ZplFSnuUaPTUUjyc6w8d5r2XU/YSBUFfEcYNqqqqrwedsK4/dkb72zu7O8HFH+djgmG3bSVVXc/Wkd7Mde1IHcluAVFc5wGgLsMzJrYdoHQRAAARAwI2AorpmcqhrLBZ7uWZHuMt1s2drW2fNtjrvTZC8tbGqRv6pq29wi0XJn2X5z0fhUglkFi59dH6Wsc8CHKWJAKiuXQOj131ltWHVp9z6yEfmb96+27ychuqqjIO0L9etWyffquQlvW7duqTN1dTULFu2rKmpadmyZT5+7RSqa1LySQsoj5v3S8OxEqSZSsk1qRtKAaiuCpDcXpqnX+Wu26ExbkPrF7/67YaXtlmW9aXy6xRT+iVU18xHQiKRMPTRU0895b0Jt4kdqqt3hqmW7D339VktbeEZ4TWRoKMG+vpPGgw6qq6Tk1Ptnd1yi6LBQtJbWVUeydXuSF96+ml6tZKGzAWyGju3krcJ0u6PtnfR+Qwjo2NtHV2d4eNQXfO2y+AYCIAACBABllx9OdS1uaVt9xt7zWxf3flGW3vIXIbvkrzlXWblipSYZfnPR+FSCWQWLn10fpaxzwIcpYl8V10/CA9c9ZmVbstvt/zS0tJfP/ucvgLnHC+qa0fv6e898PCChYssy5ozZ85/+Mu/2la/hyzcsbbiwouW/vRnz8yfv6C0tPQ3/7rhew88bFnW8ssuf33/u1TmUOuxu+7+GzoOb8HCRd974OGO3tPsgMeE0lt5eFle7vxNXreusSyrvLw8aSAVZz62bVdUVChiXEVFRXl5eSQS4aaVArZtk7pKPpSVlTU2NlKLrLrSt00ty5J3bduurKxkz8vLy+XX1amKcoihnmmwkDTqQBRgPmkk3ALkfnEroPSpZVncERK4dEkZFdzjjsdWyAHDRrgJknQ5X/4agG5VVFSQbERl5MiRlpXBRsEqxrlRRiEDlJa5QB4mPM5vVIyOamW8SROrbrixb3hGB/yzxYuTNmRQXekWN6fvh6UzZ7iAZVkXX7LscHuEGn2uaub0Z/rI/KQuyQJ52HeOLj3yyCNnYz3n31TfpuU2sbPqKp8X5VsOypMiH0N9AqHnvaamRj6Y57gu5hDHkAsjk76yzdtaORGNzux4PTmY5KC07kifLoFJ1ZXTJCCSfbmrlPYz6vm2bcuzTdmxlrawrE72+W6qpwREo0NH27ui0SE6Z0BWp5z+gUGJiArwoQTcLif4/FZZxu0UgqRlDKqr9ErvgsIYnKGuSKgr0h3pIwW/f2Aw1BXpHxiU8UqGLW1h2YM0OE8PjbSfPTFDjhxCJMeYNEt35eCkLpZdmeHYK4w+QhQgAAIg4EiAVVc6hjIWiyknAzjWcsusq29IqqgeaW5NqsyyfbPqundf09ba+p7e/peqa2kzLB21SbXk9lhKK6cN7N3XxGXkGZ0kGvb09m+tracCW2vrx8bG2Su3hCJckn3ZqHSM8ylTaeJIc+vGqpojza119Q3KLdu2qQr7LAORCjUXI2sUy5HmVvY/FO6u2rSVISiH0rqZ5epKQkbHNjdW1XCkVL6uvoHvcgiKKcdLgz9jY+PcWUoUtm3L8KUzSfkodZktV2SXpFlyPmfnur59qOXiS2ZeQZPeZ/3/+olc38p0UtX1QHPoyqv+Qml3zpw5z1VtHhi1ldW4PG32rru/MzBqH2gOrbj8k0r18i+vCvUPSzeSph1HT15lsvRJwV544YX6dtclS5ZIFElVV1onk/xUU1OjaFV89CcVoMJSjSKVitWrSCRSUVFB+iktzleuXMnldVXXtm1a3nMZAq43pIvCFRUV7C0ZUbS/vOq79JyRXZlq2q1F6jJFZJGFGxsb16xZwyK40sVuXcYWFPuym2zbVqRzGmDsDI0ZlnjokseGVIKoilJe+sBjgzOVQaXX1V3lgc1G8jCRdGaTBQ62dH38Exd7H0vf/Nbf9pyOnXfeeZ/69FXSjmPaTXXduafxqzet4Qn5sSdmft3CwiudDMtaKhm55tpypfxzVTXU6M49jd/5u/scHTBn5mHfOboUi8XuvPNOpY8++tGP7tq1y7G8Y6ZhYqdbK1eu5AlTeWaVR0N5DOlSPhqsurIneg7fKtRE/4koy4V6YmJiMmngcrMnnypAahTpX1KZIkWSZDJlJywV00Ux27YNyiPd4lqOls0hsGpMDkivWM5jMY40ONZVPZ4wIBFJZ8gaq4Qjo2OhrohyQq5b7Ionoa6IVANlK4FOk+oajQ61dcy8Zo0k1/6BQQ42Gh3qDB9naApSumQpVodJBgkR3eW+JtGfG9LvUk4mYy/QXQPnQQAEQMBMQKqusVhsako9/91cXbn78ubtJ09GlUzl8nik95XtXv/PSfIWq12KKdK8WGVjpZKLGTZd1tU3sFJG4iMrgCylUY7ZB26LFDp2hoywzZmfVmckTs6RDuzd18QVySDfdQyBXDrS3EpqIwdC+azS0qXUPWVDCi5dMpYu7d3XJOVaGbWedvSZxWJ2j4C4da5iVnpu27b0R+kgpWQo3P3a62+RNUdcbnxs2yaBmAM/0txKaQZLsZBZJZCcqa6XrbhCWealevnbf9vouOhVdjlJs/Q2rf/xvQcsy1qwcNGWuob+kemmIx1/+VfXWpZFC29SXb94zZd2v33wYx//hGVZD/z9D1+ori0pKfmP/+k/h/qGv3PPdy3LWvfg+nD/SP/I9Bv737t0+YqSkpIXt9Y5+uOWqQydPLxUVNcXXnhBd3LDhg2ScFLVVSqtcqFOlhVRTJE+qTxrZIozylqdFTeW2Ki8o+pKO2GlcKa0RcalKT1H8SeIl7IrU027xatoi27FOJ86SPayW5fZtq0PISVHUd4VBYf2VrPgq4wZaleOCjdPKisrZTGKpbKykmUmPcfNFHPI24TbhOaWf+D9To/C64UXLX33aPf//f0LlmX99Te/5WaQ891UVy5ACZJZ+VWKeq071lawCEu/eJOXijXvl3nbg46Obdu27bbbbrvgggs+97nPPfLII9Fokv8iK0YMEzs9kvJZoMHPz7j5MVSeWeUhJTeKTXUdMEquJwc9vSOCJTASoUil0lVXVq9s23YUWB0zqV/IstRDediwZmrI4Vt6QlFaFWukurKsZts25bBOmonqaghK+ulYjDKlG3qONBLQNPcOJSI9A+2d3SOjYzzk9Li4Ct1SRFgSUqWuqliQlnXyinqujBYaDAbjSlu4BAEQAIHCJuCv6lq9ZceJk4NmYj29/f6qriyKkRbGsiZpc6xISq9I7+OKSkkSTOVdxw2n0iClWbgkQVN6QhIeC44sQVIZRZCVgRxpbqUQpLQXCndvqq4Nhbu5RXZGaqlkRzbKgUtrivN06TFkblcm3FRXPV9RSKURJW3wRzGrhyZNeeTDKrkcBmxHB6v4YNt2zlTX5Zddnqqso5RPT3VtOz742c/9e8uyvv/QD3j9/LvnN1mWteiCj77Z9D6prr9+9rnD7ZGLL1l24UVLG4+0836oA82dn/r0VYondMl7qdisOcH9lLcJRXV1jFrJTKq6Kgts/VIuzhUycmGv3OJvqZu3RBk2Tipre6UtXUFTZFndnyDmKL2Z0qVbvOmprrzh1NBlpL8ocqeiZhpUV0WfJf9lpmLKLUBdsmefWVeiuoo2RL9jkJEamsifW+ZpzfHuodZjyy69zDycllx40duHWnbvO7Rg4aLS0tJ3Drc5mpKZun4q73KaVFfezarXUlRX2hubufCaP102C57oMzkPbMepksvLJ479lJnKzAzV9cTgKX1zK+ec8Ca52rbNQlU0OtTe2d3WMXMEpxQBSQiT2iV3kEwYiun6F1VUJDbKpO/dy+2oshUlTSoqF3a8lOKmUj0T1ZW56TZljmPsel0DPWktWGnZv6Sf8jkDUsSXQSkcFJ3Ui+ra0ham8aCTl9akb+xASmOPayEBAiAAAgVJwF/Vdfcbe72cMPDW200eYZK8xV9IpwSrmYrUJcVKsq8U4Eb1fClfepcC2SAlyEjDm/s3VtWwk3RL902Kg5RmeVQ6wwIrWSAFlgvwllj2RDZEaWUPJpVk+ZUrsk3KIemZXeJiXhI6Xtu2lRjJju6Gm303fyRGrmuQaGWLBj6KEM+WKSEhU44ecs5U14MtXdW1r/31N79lXorrd0tKSqprX3tl15u8qFYStKieV1a2c08j3yIt9Y61FaSlWpbFXyAdGLVffWP/h+bNoypU8rmqGipJa29WXfe/d9TtYASorknPdZVraRqRyiZBRSNTBrRSWLnrZXHOchgrAtIICwG0x1aW4aMPlAGpyGrSWhDTSnQpXbrFq3yb2LEYlZHNSfgG9VOvSEa4OgmdrMVLCVgfMLx5lrrV0K4ShT4yaajLiDgtd0xL/9lnxXi+XfKkmlLi3aPdly5fwRCUxIzkevCDN5veX7joAsuynvrHf/ZiXNdPuRYpp7IVVl0dTxjgnbBkoajOdc18gJkndrqrTJU81Sd9DPUCym8vHHXYzIPKTwsnjZLrwIkUdiizUkkvpKIjOEmxIvVKEcLcgBiK6foXGaF8VoplgoVUt+YoX9muqDSk72zVrUklTr/LregqoZeKbqcr8BfnZcjKcbduzgQoXyqbPMyk0M943TjokJWXvzkOIR488twGKsm/PHCsSG5w9QChhqsgAAIg4DsBXXXN5FzXto7QK9t3GSzEE4mabXVdx457DCQlXcyLFkbtyqNFWdLlL9RnorqyNWWPJIl9fJcTLIlK0bOuvoHzKSj6bvv2V3dvf3U3bXEl+VWXFyUxmVaAS/GRbkkHOEf3U7HjeKlLkKy6clxUkdxQFGpHm+YjVtlPTki9WO9u6h0DH31vsvSKKkq39ZBzprrS4vbhR38kF8Ze0iUlJby0dkyYVVfHva6/fvY5y7JoW6tH1fV3z29ybN17puyq/Ez7vteVVst6L0tRzLDXVde2JDcvi3Oz6sr7W0kmUNQxg2PSjUCn9a7xnuMWuKJ76sWUYyV0rVPPYSPcZZyjJKSsqbxrS5eKlB3Thnb1Vhy33CpKk1JLXpKfgRhj3qc4peT/Pz3g4mWX6iNq8ZIl+987uv+9o4vPHBL98KM/Uiq6XbqprjyHU0Vlryv/4o09MfzCjORX5Xd4bv4o+bJ/8zbd19f30EMPffnLX160aObdkvSZM2fO1Vdf/Y1vfKOqqsqL5+aJXVdd5ZOV9DH0MrHrOqwXtwNXZjB6WlGp5GVKkit/6b63/2R7Z3f/wCAdwRk9NfOKqmyrrlKVS6MXqLqMndL8JfG8VV31va5phJ//VUjZ1PcaSwWW3oXFQqei3ZtVV7LDQirpubzXVR8e8oyLDMde/sOHhyAAAiCQIQF/VddYLFa9ZcfhIy1uXjX94b1Xtu9KJBJuBZR8sy6mSF1etDCyr1RUGs1EdSXpVjkPVDlPQGmOLtl5SrBoy/l0kmldfcPefU30GrGxsXE31ZUEQaqrCJ3UnBfVlf2kcBztcBmZcMTruClVd0PacUtLfxzNyop19Q2spyvnBhj4BHivKy1Q1z/2xNmF3p/+/fRVn7nm2nL6M6+s7E83zqTmzJmjLG6VS7Pq2j8y/d/uulue6/r2wQ/o7Vhfu/nW7pPjvGJ33OvacmzgK6u/ZlnWpctX1DW80zsUV1r3fim7Pz/TvquucjMphSyX38oprjoTffkty+h3HZfiSovSAq//9fMEHE3JuoWRVp61lC7dCBBVNz1R7w4vOdyW3ul8ixV2N+lTb0g5ssCxgLTPacffB/BuPi5mTjgaMVfJyV3vU5xeUt/xunjJkrcONB94v/PCi5ZalnXPd+/Xa7nlOKquisY6MGorOc9V1aSkopLwKr8b4eaPkp+T3kmp0Y0bN0qx1fF5v/3220+dSnJOqHli11VXnmn5IVU2esvfpujPuPJ7miLZ6zo2PqHrjJzD6pX3AUDSVWf4OL3viJSyY929R9u7otEht1NcdfuKXiYLkE2pefFdZesi53tJSPGOy8sviVMBXfXjwpmcMODFuNteV491pZ9BTCdVXfUxo+SYVVfZ18RH5jgOD4kxk7En7SANAiAAAgVJQFddvUuijkB6evtfqKr5w6Ej8XOl1alYbP87BzdW1Rxt63Ss6JiZki7GAiWb0vdv0i23fLqbuepKUqAU+5KKgyTzba2tP/juEXkWLVVseHM/73LdWlvf8OZ+0kD1QGSOgZ7CSneYGVJCl3eVAvJS+iDzdTVWz5HlDWnpj0wrVXQCUufV78rq8gRYme+ooeuB5Hiv60M/eFxZ6V1y6fL+kWlevv7iV79RCliWxXcdE2bVdWDU3vXWgQUL/7Svh+wvWLhox+v76FUqdP6Ao+oa6h/e8fo+vXoahwAqvZWHl/6qrvram0KWYlNSoUpZb0cikYqKCnobkr44d5RKzVJaZWVleXn5mjVrePstOUm1lP2MedhlGbqkP2vecwxNU0dI4bWxsfG+++5jzYXB0iChoyrkS65oK6jcfczNKUOC89m4IujIAuQYy7I0hPjSPFSkHTmGOZ+subUeiUTKy8sjkQiV994W289VwnHW9Z55uD3yyU9dSeNq6cc+/taB5iMdPZ+4+BLLsv7uvu97tzMwahtUV9ZVeWcrnzBgVlFD/cNfvWmNcjpNGtP7wGiu+sdru88++6zHp3vlypVjY2NudpNO7EoBGupyNkjpMaTn3bIsORtQE27Pmpvnwco/dryXNVYlkYbkyrJgS1uYVVHafsjfqVeEMDdc5mLyu97SAkljcruivGtO65Ich0OxeBE3qQzH7tiiY0N0xijvrKSmQ12Ryclz3vLspjgrezwd2w16pkfVlUcalZcnLejkpVRKGiv3HZ/bQA9C0t7PZOwFvWvgPwiAAAgkJaCrrvF4PGktc4Fj3T0vvLhly7a6pj+8F+7q7gx1NTYdqt6yY+srO5tb2l58+ZXevn6zBb5r1sUUqUtREnljo75Jk0RGKW5yi6R+SsFU3jKnpdpIzsgmHF+xJQ2SIKifCUtbO+kr82SWy1Ag/G16BZdyKduib9Cze3X1DZuqa+kNXXQaQF19w2D0j/swzHYUswbsih2KV35PXzdFObSr180fsqP3Mh9rwGFSF2ysqvFywoCuRNM5D0FVXa+5tlwuvKtrX9NXhrKAnk6qug6M2u8cbrvltttLS0styyotLb3r7r851HqMTJn3uob6hwdG7T2NR1bdcCNVJ/fSWJa7DaP8yfdXdX9Q+44AAApvSURBVHXUQJXvdCdVXXlbE2GXS3ez6kpLfX0sscRG2MkIi4BKXyhfV3crptQK0KXOx3uOOUyFv9RHWGm1LIuQ6lvn6I1V7Izsd2VIUBlWZKhDuSIlpKSuFOCKXkRbZTyQcembErWiJitNK0PRzDOHd/UpN9Wc49HJ3/zrhl/86redfUMDo/Y//vP/sSzrO/d8N1U7jqrrwKjNSqtlWXxaN6uu/Ks1OSrkBC6rW5YlK6bkYQ77KGnTx44dkz+/JArH9GOPPeZm0+PELs3qQ115FuRjyKctk4WKigoqbChjWZZ8xt08D1D+9PR0a3tYEVvpsrf/ZHqBsNTFe0JJzGItzCyn0l3dJdbC2CvSGamklFl1C/IuV1cSBq9YmEuqu5FNKsYhsHjNKh7famkL8/EFVJdYUQF5i6nKui1tYYbMX4eXBbhpJdiAXppVV0IhQdGQC3VFeACYVVfaqswAQ10R6krGqPcgj2pCmt7YC2h3wG0QAAEQSImArrpOTk6mZMGx8MTERHtHeM9b77xcs6O6Zscbe/a1d4RJz+3p7X/x5W0DJwYdKyqZpNPxYZ2UYH0tqeqqHAbK6hu1QmomG5dmM1ddWXyUplhXpUblLZYIlUxSgVlmJbWUdUOuxVFIEVNRORW2pCpSxb37mvi1XVRMIS/NKnYcL1nf3FhVI7ErZvkgBUcjMlOpqPij3JV85K2ttfWtbZ1Vm7Z6UV2pdTlIeISQTemDMhRt2867va5eVFe5GTalZXBeFZbjJj/TN998s1wqe0nfcsst+RkLvPJCYP78+V56WS+zYMECL/ZnuYzjDjiSSgtMlJlNsL7Poj2nY1vqGnw362aQXrQlTwyQX2twq5VG/mx2Sqpt3X///fpTbMhZuHChL//nTtVPlCcCwyNjrDHJRNqSK8CCQKESIEFcytyksSrCa6GGj7hAAARAIEMCUnWNx+OxWGxqasrwOqwMm6Pq/QMnTg8N+2KqkIwoG1cLKbQijCWQqqt5AfzhD3/EsHrM6q3nN201+ybv5v9o+/3vf58qrg0bNrjFddNNN6VqLRDlC0m/+/a3v50e83vuucex39evX5+ewcxr8R5YpYNoax5lZt5KNizcf//9jjDzJFNOYrOf/unPnkmbOZ/xKne26plu9j+z8rMpxZsn/eXoxooVK9zCdMvfuXOno6lbb73VrUpu86+44gpHh4OY2dt3QoqtlO5Ld5erbdtTU1O6QeTkkEBHqDuII9PRZ8fhOjts6fwHXWCVJ10YPBkbm3CMCJkgAAIgUDwEWHVNJBKsumZ+yEDxAPQxUtoJ6337p49Nw5TvBHKsuj76o/+tLMyu+8pqubKtfe0tpcDc88+XBYKb9r0vs2Hw+eefX7NmTbmHz2233bZ58+Zs+ACbs0ZgcnKysrLy+uuv99DhfyyyevXqX/7yl1NT5xxpN2sOmxuibyLL0wzoK/+FdzSEmYO/d4M75ZLnfIYMB0Invd6xtoJzfEn4i91fax/60IeUH6xJL5955hl/fYA17wTaO4+xVNTW3tXTd2Jk1PWkXe9mURIECo8AHS8g97riINfC62VEBAIgkFUCLLyy6oovPGUVuKNx+tI6f4fdsQwyA0Qgx6rrwZauP1u8mNd7paWlL26tkyve3qH4F6/5EhewLOvvf/hjWSC46QCNErgKAgElIA+NpWlEirABDSq3bgd3ymXP6ZAB+WNFHjjAxTJM5LabzK3fe++9Mvyk6eXLlx88eNBsE3ezR+DMkZfH+vpPQmzNHmRYLhgC8tRd+nWFFGELJkwEAgIgAAJZIuCoumK7a5Zo62b5sFdIrjqc4ObkWHXNcFkb6OrBHTTwHARAoGgJBHrWnU3ni3aEIHAQAAEQAAEQAAEQAIGAEmDVVR4ygO2uAe1NuJ0nBKC62rO5Dpdt5ckIgBsgAAIg4J2AnMSQNhDwjhQlQQAEQAAEQAAEQAAEQCBPCLDwKg8ZwHbXPOkduBFEAlBdoboGcdzCZxAAgdwQMOiMuCUJ5KZ70CoIgAAIgAAIgAAIgAAIZEBAqq5SeE0kEhlYRVUQKF4CUF2huhbv6EfkIAACqRKQwiLSBgKpgkV5EAABEAABEAABEAABEMg5AVZdlUMGJiYmpqenc+4eHACBwBHwU3WNjudMwTQsffPzVnQ8cEMFDoMACICAjXney88UzPB4VEAABEAABEAABEAABAJKgIVXUotisdjU1NTkmU9AI4LbIJBDAn6qrsOTUF29EhiezGGno2kQAAEQSJMA5nkvqitm+DSHF6qBAAiAAAiAAAiAAAjkmgCrrnK7KwmvsVgs196hfRAIGAE/VddYwqvm6GXVWthlYjgUJWBPCtwFARCYIYB53svPJszweFpAAARAAARAAARAAASCS8BReKXtrlNTU8GNC56DwOwT8FN1tW17ZArCa3ICI5imZn+ko0UQAAGfCGCeNwuvmOF9GmgwAwIgAAIgAAIgAAIgkBsCpLpOT0/Tdlf5Wq3JyUmc8ZqbXkGrwSTgs+o6PW2fHEsuO5qXrIV99+SYjUOog/mwwGsQAIEZApjnDT+kMMPjIQEBEAABEAABEAABECgAAsp2V114jcVieL9WAXQ0Qsg2AZ9V15kFuW0PTUB4dSZwemKGDz4gAAIgEGgCmOcdhVfM8IEe1XAeBEAABEAABEAABEBAEkgqvE5MTOCkV0kMaRDQCfivulIbE3H79IQ9OO4sPjquVws4c3B8hsZEXOePHBAAARAIKgHM8/RjCzN8UEcw/AYBEAABEAABEAABEDAScBNe6eVaE2c/U1NTiQTeXWNEiZvFSiBbqmux8kTcIAACIAACIAACIAACIAACIAACIAACIBB4AvKAV3nGaywWI+GVjnkl9XV8fHxqaioWi8Xj8UQigfMHAt/9CCAzAvJkZNJercwMojYIgAAIgAAIgAAIgAAIgAAIgAAIgAAIgECBEDALr6y9Svl1YmJiHB8QAIEzBLDXtUCmQoQBAiAAAiAAAiAAAiAAAiAAAiAAAiAAAv4SYOGV9u7pm16nznwmxefs2QP4FwSKnQBUV3+nI1gDARAAARAAARAAARAAARAAARAAARAAgYIiwNpr4uyH5KTY2Q9pr/y30GCRBIEiJTA1NQXVtaDmQQQDAiAAAiAAAiAAAiAAAiAAAiAAAiAAAr4TYOGVN73yvtd4PH5Wff3jvyy/IgECRUuAjjlm4RXnuvo+KcEgCIAACIAACIAACIAACIAACIAACIAACBQIAUftVcqvyh5YRY3FJQgUDwHWWykB1bVAJkGEAQIgAAIgAAIgAAIgAAIgAAIgAAIgAALZICCFV7nv9ezZAzP/KnoTLkGgCAkoDwJU12xMR7AJAiAAAiAAAiAAAiAAAiAAAiAAAiAAAoVGQJFf3RRYqcYiDQJFRUBqzVBdC20GRDwgAAIgAAIgAAIgAAIgAAIgAAIgAAIgkD0CuvaKHBAAASIA1TV7Mw8sgwAIgAAIgAAIgAAIgAAIgAAIgAAIgEAREYDcBgIgwASguhbR3IdQQQAEQAAEQAAEQAAEQAAEQAAEQAAEQAAEQAAEZoGAVF3/H7cc2kxLXQdzAAAAAElFTkSuQmCC;" vertex="1" parent="1">
          <mxGeometry x="39.00000000000001" y="174" width="983.82" height="36" as="geometry" />
        </mxCell>
      </root>
    </mxGraphModel>
  </diagram>
</mxfile>
